<svg xmlns="http://www.w3.org/2000/svg" xmlns:xlink="http://www.w3.org/1999/xlink" version="1.1" x="0px" y="0px" viewBox="0 0 100 125" enable-background="new 0 0 100 100" xml:space="preserve"><g><g><path style="fill:#37a7b7" d="M16.216,85.854c-0.375,0-0.75-0.11-1.073-0.336c-0.659-0.455-0.956-1.283-0.737-2.057l3.869-13.672    C9.849,63.714,5.046,55.363,5.046,46.697c0-8.817,4.76-17.063,13.402-23.22c8.449-6.018,19.65-9.332,31.541-9.332    c11.891,0,23.092,3.314,31.542,9.332c8.642,6.156,13.4,14.402,13.4,23.22s-4.76,17.063-13.4,23.22    c-8.449,6.019-19.65,9.331-31.542,9.331c-6.817,0-13.601-1.129-19.69-3.271L17.328,85.49    C16.997,85.73,16.606,85.854,16.216,85.854z M49.99,17.907c-22.708,0-41.183,12.916-41.183,28.791    c0,7.885,4.507,15.256,12.69,20.753c0.675,0.455,0.982,1.29,0.761,2.072l-2.745,9.699l9.371-6.871    c0.512-0.375,1.179-0.467,1.771-0.246c5.915,2.213,12.602,3.383,19.334,3.383c22.707,0,41.182-12.915,41.182-28.79    S72.695,17.907,49.99,17.907z"/></g><g><path style="fill:#37a7b7" d="M70.5,49.666H29.631c-1.038,0-1.88-0.842-1.88-1.881c0-1.038,0.842-1.88,1.88-1.88H70.5c1.039,0,1.882,0.842,1.882,1.88    C72.382,48.824,71.539,49.666,70.5,49.666z"/></g><g><path style="fill:#37a7b7" d="M70.5,38.902H29.631c-1.038,0-1.88-0.842-1.88-1.881c0-1.038,0.842-1.88,1.88-1.88H70.5c1.039,0,1.882,0.842,1.882,1.88    C72.382,38.06,71.539,38.902,70.5,38.902z"/></g><g><path style="fill:#37a7b7" d="M58.076,60.43H29.631c-1.038,0-1.88-0.842-1.88-1.881c0-1.038,0.842-1.881,1.88-1.881h28.445    c1.039,0,1.881,0.843,1.881,1.881C59.957,59.588,59.115,60.43,58.076,60.43z"/></g></g></svg>