<?xml version="1.0" encoding="iso-8859-1"?>
<!-- Generator: Adobe Illustrator 19.0.0, SVG Export Plug-In . SVG Version: 6.00 Build 0)  -->
<svg version="1.1" id="Capa_1" xmlns="http://www.w3.org/2000/svg" xmlns:xlink="http://www.w3.org/1999/xlink" x="0px" y="0px"
	 viewBox="0 0 428.408 428.408" style="enable-background:new 0 0 428.408 428.408;" xml:space="preserve">
<path style="fill:#D4E1F4;" d="M10.449,15.673h407.51c5.747,0,10.449,4.702,10.449,10.449v90.384H0V26.122
	C0,20.376,4.702,15.673,10.449,15.673z"/>
<path style="fill:#37a7a2;" d="M0,111.282h428.408v291.004c0,5.747-4.702,10.449-10.449,10.449H10.449
	C4.702,412.735,0,408.033,0,402.286V111.282z"/>
<g>
	<path style="fill:#00BBD3;" d="M156.212,187.037c-5.224-6.792-15.151-7.837-21.943-2.612l-78.367,62.694
		c-3.657,3.135-5.747,7.314-5.747,12.016s2.09,9.404,5.747,12.016l78.367,62.694c3.135,2.09,6.269,3.657,9.927,3.657
		c4.702,0,9.404-2.09,12.016-5.747c5.224-6.792,4.18-16.718-2.612-21.943l-63.216-50.678l63.739-50.155
		C160.914,203.755,161.959,193.829,156.212,187.037z"/>
	<path style="fill:#00BBD3;" d="M368.327,247.641l-78.367-62.694c-6.792-5.224-16.718-4.18-21.943,2.612
		c-5.224,6.792-4.18,16.718,2.612,21.943l63.216,50.678l-63.216,50.678c-6.792,5.224-7.837,15.151-2.612,21.943
		c3.135,3.657,7.837,5.747,12.016,5.747c3.657,0,6.792-1.045,9.927-3.657l78.367-62.694c3.657-3.135,5.747-7.314,5.747-12.016
		C374.073,255.478,371.984,250.253,368.327,247.641z"/>
	<path style="fill:#00BBD3;" d="M240.327,136.359c-8.359-2.09-16.718,3.135-18.808,11.494l-55.38,217.861
		c-2.09,8.359,3.135,16.718,11.494,18.808c1.045,0.522,2.612,0.522,3.657,0.522c6.792,0,13.584-4.702,15.151-12.016l55.38-217.861
		C253.91,146.808,248.686,138.449,240.327,136.359z"/>
</g>
<g>
</g>
<g>
</g>
<g>
</g>
<g>
</g>
<g>
</g>
<g>
</g>
<g>
</g>
<g>
</g>
<g>
</g>
<g>
</g>
<g>
</g>
<g>
</g>
<g>
</g>
<g>
</g>
<g>
</g>
</svg>
