<svg xmlns="http://www.w3.org/2000/svg" xmlns:xlink="http://www.w3.org/1999/xlink" version="1.1" x="0px" y="0px" viewBox="0 0 100 125" style="enable-background:new 0 0 100 100;" xml:space="preserve"><style type="text/css">
	.st0{fill:none;stroke:#D4E1F4;stroke-linejoin:round;stroke-miterlimit:10;}
	.st1{fill:none;stroke:#37a7a2;stroke-width:3;stroke-linejoin:round;stroke-miterlimit:10;}
</style><g><path style="fill:#37a7a2;" d="M5,85h90V25H5V85z M58.2,43.9l1.6-1.6L72.5,55L59.8,67.7l-1.6-1.6L69.3,55L58.2,43.9z M51.5,39.2l2.2,0.4l-5.3,31.2   l-2.2-0.4L51.5,39.2z M40.2,42.3l1.6,1.6L30.7,55l11.1,11.1l-1.6,1.6L27.5,55L40.2,42.3z"/><path style="fill:#D4E1F4;" d="M5,15v8h90v-8H5z M90,21c-1.1,0-2-0.9-2-2c0-1.1,0.9-2,2-2s2,0.9,2,2C92,20.1,91.1,21,90,21z"/></g></svg>