<?xml version="1.0" encoding="UTF-8" standalone="no"?>
<!-- Created with Inkscape (http://www.inkscape.org/) -->

<svg
   xmlns:dc="http://purl.org/dc/elements/1.1/"
   xmlns:cc="http://creativecommons.org/ns#"
   xmlns:rdf="http://www.w3.org/1999/02/22-rdf-syntax-ns#"
   xmlns:svg="http://www.w3.org/2000/svg"
   xmlns="http://www.w3.org/2000/svg"
   xmlns:sodipodi="http://sodipodi.sourceforge.net/DTD/sodipodi-0.dtd"
   xmlns:inkscape="http://www.inkscape.org/namespaces/inkscape"
   width="195"
   height="150"
   viewBox="0 0 195 149.99999"
   id="svg6557"
   version="1.1"
   inkscape:version="0.91 r13725"
   sodipodi:docname="home-cat-2.svg">
  <defs
     id="defs6559" />
  <sodipodi:namedview
     id="base"
     pagecolor="#ffffff"
     bordercolor="#666666"
     borderopacity="1.0"
     inkscape:pageopacity="0.0"
     inkscape:pageshadow="2"
     inkscape:zoom="3.959798"
     inkscape:cx="20.494752"
     inkscape:cy="42.250147"
     inkscape:document-units="px"
     inkscape:current-layer="layer1"
     showgrid="false"
     fit-margin-top="0"
     fit-margin-left="0"
     fit-margin-right="0"
     fit-margin-bottom="0"
     inkscape:window-width="2560"
     inkscape:window-height="1358"
     inkscape:window-x="0"
     inkscape:window-y="0"
     inkscape:window-maximized="1"
     units="px" />
  <metadata
     id="metadata6562">
    <rdf:RDF>
      <cc:Work
         rdf:about="">
        <dc:format>image/svg+xml</dc:format>
        <dc:type
           rdf:resource="http://purl.org/dc/dcmitype/StillImage" />
        <dc:title />
      </cc:Work>
    </rdf:RDF>
  </metadata>
  <g
     inkscape:label="Ebene 1"
     inkscape:groupmode="layer"
     id="layer1"
     transform="translate(372.31606,34.066368)">
    <rect
       style="opacity:1;fill:#dddfd4;fill-opacity:1;stroke:none;stroke-width:0;stroke-miterlimit:4;stroke-dasharray:none;stroke-opacity:1"
       id="rect4220"
       width="194.99998"
       height="150"
       x="-372.31604"
       y="-34.066368" />
    <rect
       y="-14.905118"
       x="-313.39661"
       height="100"
       width="79.813835"
       id="rect6292-3"
       style="fill:#c0c4b0;fill-opacity:1;stroke:none;stroke-opacity:1" />
    <path
       inkscape:connector-curvature="0"
       id="path6284-9-1"
       d="m -311.8667,-6.93041 8.16273,7.42891 -8.16273,7.42889"
       style="opacity:1;fill:none;fill-opacity:1;fill-rule:evenodd;stroke:#ffffff;stroke-width:3.47822809;stroke-linecap:round;stroke-linejoin:bevel;stroke-miterlimit:4;stroke-dasharray:none;stroke-opacity:1" />
    <g
       transform="scale(0.97333547,1.027395)"
       inkscape:transform-center-x="5.1373628"
       inkscape:transform-center-y="-67.641949"
       style="font-style:normal;font-weight:normal;font-size:60.80508423px;line-height:125%;font-family:sans-serif;letter-spacing:0px;word-spacing:0px;opacity:1;fill:#ffffff;fill-opacity:1;stroke:none;stroke-width:1px;stroke-linecap:butt;stroke-linejoin:miter;stroke-opacity:1"
       id="text5220-3">
      <path
         d="m -292.62038,48.860323 c 0.44111,-0.441108 0.44111,-1.119736 0,-1.560844 l -13.33505,-13.335044 13.33505,-13.335044 c 0.44111,-0.441108 0.44111,-1.119736 0,-1.560844 l -1.69657,-1.696571 c -0.44111,-0.441108 -1.11974,-0.441108 -1.56085,0 l -15.81203,15.812037 c -0.44111,0.441108 -0.44111,1.119736 0,1.560844 l 15.81203,15.812037 c 0.44111,0.441108 1.11974,0.441108 1.56085,0 l 1.69657,-1.696571 z m 20.05346,-36.204813 c 0.16966,-0.576834 -0.16966,-1.187599 -0.74649,-1.357256 l -2.10375,-0.576834 c -0.5429,-0.169657 -1.15367,0.169657 -1.32332,0.746491 L -289.3969,55.27336 c -0.16965,0.576834 0.16966,1.187599 0.74649,1.357256 l 2.10375,0.576834 c 0.5429,0.169657 1.15367,-0.169657 1.32333,-0.746491 l 12.65641,-43.805449 z m 22.29294,22.089347 c 0.4411,-0.441108 0.4411,-1.119736 0,-1.560844 l -15.81204,-15.812037 c -0.44111,-0.441108 -1.11974,-0.441108 -1.56084,0 l -1.69658,1.696571 c -0.4411,0.441108 -0.4411,1.119736 0,1.560844 l 13.33505,13.335044 -13.33505,13.335044 c -0.4411,0.441108 -0.4411,1.119736 0,1.560844 l 1.69658,1.696571 c 0.4411,0.441108 1.11973,0.441108 1.56084,0 l 15.81204,-15.812037 z"
         style="font-style:normal;font-variant:normal;font-weight:normal;font-stretch:normal;font-family:FontAwesome;-inkscape-font-specification:FontAwesome;fill:#ffffff;fill-opacity:1"
         id="path4832" />
    </g>
    <path
       style="fill:none;fill-rule:evenodd;stroke:#c0c4b0;stroke-width:3;stroke-linecap:butt;stroke-linejoin:miter;stroke-miterlimit:4;stroke-dasharray:none;stroke-opacity:1"
       d="m -372.31606,-13.770051 31.9536,0 13.78858,13.7885803 13.35651,0"
       id="path5830"
       inkscape:connector-curvature="0"
       sodipodi:nodetypes="cccc" />
    <path
       style="fill:none;fill-rule:evenodd;stroke:#c0c4b0;stroke-width:3;stroke-linecap:butt;stroke-linejoin:miter;stroke-miterlimit:4;stroke-dasharray:none;stroke-opacity:1"
       d="m -372.31606,45.273359 58.11651,-10e-6 0,1.06066"
       id="path5840"
       inkscape:connector-curvature="0"
       sodipodi:nodetypes="ccc" />
    <path
       style="fill:none;fill-rule:evenodd;stroke:#c0c4b0;stroke-width:3;stroke-linecap:square;stroke-linejoin:miter;stroke-miterlimit:4;stroke-dasharray:none;stroke-opacity:1"
       d="m -237.88219,44.212684 30.40559,30.405589 0,21.0122 14.49568,14.495687 15.66449,0"
       id="path5601"
       inkscape:connector-curvature="0"
       sodipodi:nodetypes="ccccc" />
    <path
       style="fill:none;fill-rule:evenodd;stroke:#c0c4b0;stroke-width:3.00000024;stroke-linecap:square;stroke-linejoin:miter;stroke-miterlimit:4;stroke-dasharray:none;stroke-opacity:1"
       d="m -340.3625,-13.770051 14.95216,-15.10306 128.54029,0.25381 19.55406,19.5529303"
       id="path5869"
       inkscape:connector-curvature="0"
       sodipodi:nodetypes="cccc" />
  </g>
</svg>
