<svg xmlns="http://www.w3.org/2000/svg" data-name="Layer 1" viewBox="0 0 100 125" x="0px" y="0px"><path style="fill:#37a7b7" d="M55.44,98.05l-.11,0Z"/><path style="fill:#37a7b7" d="M55.44,98.05l.08,0-.06,0h0Z"/><path style="fill:#37a7b7" d="M99.07,85.35v-1l0-4.07-.15-15.69c-.11-10.12-.26-19.5-.43-27.81l-.27-11.61v-.52a2.94,2.94,0,0,0,0-.38,2.91,2.91,0,0,0-2.48-2.45l-.36,0h-.2l-2.5.08L88,22h-.06c-.08-3.43-.15-6.63-.24-9.59v-.1h0A1.58,1.58,0,0,0,86,10.81l-8.11.25c0-2.63-.07-5.2-.11-7.7V3.26h0A2.47,2.47,0,0,0,75.31.84L70.15.93a23.85,23.85,0,0,0-5.41.7,21.93,21.93,0,0,0-8.83,4.55,20.29,20.29,0,0,0-7,12.23,27.85,27.85,0,0,0-13.07-7.12,29,29,0,0,0-5-.7c-.91,0-1.73-.05-2.59-.07l-2.64,0-11.6-.17a2.11,2.11,0,0,0-2.15,2.08v.07c0,3.09-.1,6.3-.14,9.6l-4.55-.16-1.33,0-.68,0H4.76a2.89,2.89,0,0,0-2.84,2.26,3,3,0,0,0-.06.4v.65l0,.72L1.53,38.39c-.18,9-.33,19.2-.45,30.17l-.15,17v.69a3.85,3.85,0,0,0,3,3.54,3.92,3.92,0,0,0,.82.1h2l4.44,0,9,0,9.13,0a14.8,14.8,0,0,1,7.5,1.91,14.64,14.64,0,0,1,3.11,2.35c.24.24.43.45.7.73a12.61,12.61,0,0,0,1.08,1,10.86,10.86,0,0,0,2.42,1.68,12.65,12.65,0,0,0,11.39.25l0,0,.08,0,.16-.09L56,97.6l.64-.36a6.51,6.51,0,0,0,1.17-.82l1-.92a10.78,10.78,0,0,0,.87-.89,13.52,13.52,0,0,1,2.79-2.34A14.68,14.68,0,0,1,69.47,90c.31,0,.61,0,.92,0h3.24l4.3,0,8.51,0,8.36-.05h.72a3.86,3.86,0,0,0,3.55-3.55v-1ZM75.32,67.74a2.45,2.45,0,0,0,2.49-2.41v-.09c.27-16,.32-34.65.15-51.41l6.4.19c-.41,15.07-.7,36.16-.88,59.72l-6.8,0-4.77,0a43.21,43.21,0,0,0-5.12.17A29.27,29.27,0,0,0,52.1,79.72,18.58,18.58,0,0,1,65.79,68a19.8,19.8,0,0,1,4.37-.37l5.16.09ZM58.48,9.4a18.46,18.46,0,0,1,7.3-3.26,19.83,19.83,0,0,1,4.36-.37l2.62,0c-.27,17.82-.27,38.9,0,57l-2.62,0a23.79,23.79,0,0,0-5.4.7,21.9,21.9,0,0,0-8.82,4.55,21,21,0,0,0-3.72,4.09c.92-16.23.63-42.21-.85-52.14a.47.47,0,0,0,.08-.13A18.85,18.85,0,0,1,58.48,9.4Zm-32.93,5,2.64,0c.86,0,1.73,0,2.47,0a25.77,25.77,0,0,1,17.37,7,1.56,1.56,0,0,0,.38.25c-1.56,13-1.56,45.22,0,58.52A29.69,29.69,0,0,0,33.5,73.82a38.72,38.72,0,0,0-5.16-.23H23.51l-6.87,0c-.08-21.63-.25-42-.52-59.06ZM4.77,24.66h0S4.78,24.68,4.77,24.66Zm81.67,60-8.51,0-4.3,0H70.38c-.42,0-.83,0-1.25,0a20.06,20.06,0,0,0-9.51,3,18.94,18.94,0,0,0-3.91,3.26,5.58,5.58,0,0,1-.66.67l-.6.53a2.51,2.51,0,0,1-.62.44l-.32.18-.16.1-.08,0,0,0h0l.06,0-.19.08a7.36,7.36,0,0,1-3.23.7,7.24,7.24,0,0,1-3.23-.85,5.57,5.57,0,0,1-1.39-1,7.57,7.57,0,0,1-.62-.56c-.27-.28-.6-.65-.91-.95a20.12,20.12,0,0,0-14.46-5.77l-9.13,0-9,0-4.44,0H6.05L5.91,68.56c-.12-11-.27-21.17-.45-30.17L5.17,25.83l0-.72V25l.64,0,1.33,0,4.52-.16c-.19,15.51-.32,33.13-.38,51.58h0A2.7,2.7,0,0,0,13.93,79h0l9.57,0h4.82a33.48,33.48,0,0,1,4.49.2A24.42,24.42,0,0,1,48,87.17l.21.21A2.74,2.74,0,0,0,52,87.17a24.37,24.37,0,0,1,15.35-8A38.55,38.55,0,0,1,71.91,79l4.77,0L86,78.91h0a2.56,2.56,0,0,0,2.54-2.57c-.14-19.4-.35-37.23-.64-51.57h0l4.62.16,2.22.07v.16l-.27,11.61c-.17,8.3-.31,17.69-.43,27.81L94,80.26l0,4.07v.36Z"/><path style="fill:#37a7b7" d="M27.59,30.07l4.16.61,4.1.63a11.51,11.51,0,0,0,3.31.23,6.08,6.08,0,0,0,.72-1.25,4.31,4.31,0,0,0,.46-1.15,9.5,9.5,0,0,0-3-2.36,16.21,16.21,0,0,0-9.8-1.52,10.47,10.47,0,0,0-3.39,1,5.75,5.75,0,0,0-.1,1.47A4.77,4.77,0,0,0,24.2,29,10.47,10.47,0,0,0,27.59,30.07Z"/><path style="fill:#37a7b7" d="M27.59,41.06l4.16.61,4.1.63a11.51,11.51,0,0,0,3.31.23,6.08,6.08,0,0,0,.72-1.25,4.31,4.31,0,0,0,.46-1.15,9.51,9.51,0,0,0-3-2.36,16.21,16.21,0,0,0-9.8-1.52,10.47,10.47,0,0,0-3.39,1,5.75,5.75,0,0,0-.1,1.47A4.77,4.77,0,0,0,24.2,40,10.47,10.47,0,0,0,27.59,41.06Z"/><path style="fill:#37a7b7" d="M27.59,52l4.16.61,4.1.63a11.51,11.51,0,0,0,3.31.23,6.08,6.08,0,0,0,.72-1.25,4.31,4.31,0,0,0,.46-1.15,9.5,9.5,0,0,0-3-2.36,16.21,16.21,0,0,0-9.8-1.52,10.47,10.47,0,0,0-3.39,1,5.75,5.75,0,0,0-.1,1.47A4.77,4.77,0,0,0,24.2,51,10.47,10.47,0,0,0,27.59,52Z"/><path style="fill:#37a7b7" d="M27.59,63l4.16.61,4.1.63a11.51,11.51,0,0,0,3.31.23,6.08,6.08,0,0,0,.72-1.25,4.31,4.31,0,0,0,.46-1.15,9.51,9.51,0,0,0-3-2.36,16.21,16.21,0,0,0-9.8-1.52,10.47,10.47,0,0,0-3.39,1,5.75,5.75,0,0,0-.1,1.47A4.77,4.77,0,0,0,24.2,62,10.47,10.47,0,0,0,27.59,63Z"/></svg>