<?xml version="1.0" encoding="iso-8859-1"?>
<!-- Generator: Adobe Illustrator 19.0.0, SVG Export Plug-In . SVG Version: 6.00 Build 0)  -->
<svg version="1.1" id="Layer_1" xmlns="http://www.w3.org/2000/svg" xmlns:xlink="http://www.w3.org/1999/xlink" x="0px" y="0px"
	 viewBox="0 0 502.012 502.012" style="enable-background:new 0 0 502.012 502.012;" xml:space="preserve">
<g>
	<g>
		<g>
			<path style="fill:#37a7a2;" d="M251.007,71.868c13.491,0,26.722,1.471,39.604,4.372c-14.612,19.384-3.821,47.836,20.517,52.244
				l68.348,12.38c24.99,4.527,45.509-19.694,36.938-43.6L392.971,31.88c-8.572-23.909-39.813-29.571-56.231-10.192l-2.873,3.392
				c-26.447-9.719-54.235-14.636-82.86-14.636c-132.769,0-240.784,108.015-240.784,240.784c0,16.961,13.75,30.712,30.712,30.712
				s30.712-13.751,30.712-30.712C71.647,152.328,152.107,71.868,251.007,71.868z"/>
			<path style="fill:#333333;" d="M40.935,291.94c-22.449,0-40.712-18.264-40.712-40.713c0-138.283,112.501-250.784,250.784-250.784
				c27.383,0,54.177,4.352,79.749,12.943C340.767,2.81,355.101-1.911,369.581,0.711c15.294,2.772,27.558,13.162,32.803,27.794
				l23.443,65.385c5.246,14.63,2.379,30.443-7.667,42.302c-10.046,11.858-25.176,17.28-40.466,14.514l-68.348-12.381
				c-14.793-2.68-26.891-12.63-32.362-26.618c-3.591-9.181-3.925-19.002-1.195-28.047c-8.164-1.19-16.458-1.791-24.782-1.791
				c-93.385,0-169.359,75.975-169.359,169.359C81.647,273.677,63.384,291.94,40.935,291.94z M251.007,20.443
				c-127.255,0-230.784,103.529-230.784,230.784c0,11.421,9.292,20.713,20.712,20.713s20.712-9.292,20.712-20.713
				c0-104.413,84.946-189.359,189.359-189.359c14.131,0,28.195,1.553,41.8,4.616c3.313,0.746,6.021,3.123,7.191,6.311
				c1.17,3.188,0.642,6.753-1.402,9.465c-4.805,6.374-5.921,14.658-2.987,22.161c2.967,7.585,9.272,12.77,17.301,14.224
				l68.348,12.381c8.177,1.479,16.27-1.42,21.642-7.763c5.373-6.342,6.906-14.799,4.101-22.623l-23.443-65.385
				c-2.806-7.825-9.364-13.382-17.543-14.864c-8.182-1.485-16.271,1.419-21.645,7.762l-2.874,3.392
				c-2.713,3.203-7.138,4.374-11.08,2.922C305.098,25.161,278.381,20.443,251.007,20.443z"/>
		</g>
		<g>
			<path style="fill:#37a7a2;" d="M461.079,220.515c-16.962,0-30.712,13.751-30.712,30.712c0,98.899-80.46,179.36-179.36,179.36
				c-16.399,0-32.365-2.142-47.764-6.389c15.567-18.683,6.116-47.661-18.018-53.2l-67.7-15.539
				c-24.753-5.681-46.374,17.561-38.922,41.839L98.987,463.7c7.454,24.281,38.397,31.387,55.697,12.79l3.036-3.263
				c29.376,12.318,61.253,18.785,93.286,18.785c132.769,0,240.784-108.015,240.784-240.784
				C491.791,234.266,478.041,220.515,461.079,220.515z"/>
			<path style="fill:#333333;" d="M251.007,502.012c-30.728,0-61.94-5.853-90.712-16.968
				c-10.491,10.111-25.037,14.175-39.389,10.877c-15.149-3.479-26.917-14.427-31.479-29.286l-20.384-66.402
				c-4.561-14.857-0.964-30.521,9.622-41.899c10.586-11.38,25.951-16.097,41.097-12.62l67.7,15.539
				c14.672,3.367,26.301,13.886,31.107,28.138c3.154,9.353,3.017,19.188-0.151,28.1c10.632,2.059,21.546,3.098,32.588,3.098
				c93.385,0,169.359-75.975,169.359-169.359c0-22.448,18.264-40.712,40.712-40.712s40.712,18.264,40.712,40.712
				C501.791,389.511,389.29,502.012,251.007,502.012z M157.723,463.227c1.301,0,2.614,0.254,3.864,0.778
				c28.094,11.779,59.015,18.006,89.419,18.006c127.255,0,230.784-103.529,230.784-230.784c0-11.421-9.292-20.712-20.712-20.712
				s-20.712,9.291-20.712,20.712c0,104.413-84.946,189.359-189.359,189.359c-17.222,0-34.187-2.271-50.422-6.749
				c-3.276-0.903-5.869-3.408-6.884-6.651c-1.016-3.242-0.315-6.779,1.86-9.39c5.118-6.143,6.635-14.373,4.057-22.017
				c-2.606-7.728-8.667-13.208-16.629-15.036l-67.7-15.539c-8.104-1.857-16.318,0.664-21.979,6.75s-7.585,14.463-5.146,22.408
				l20.384,66.402c2.44,7.947,8.733,13.803,16.835,15.663c8.104,1.86,16.319-0.662,21.98-6.749l3.037-3.265
				C152.332,464.339,155.001,463.227,157.723,463.227z"/>
		</g>
	</g>
	<g>
		<path style="fill:#333333;" d="M382.456,115.04c-4.066,0-7.889-2.499-9.381-6.536l-3.686-9.973
			c-1.915-5.181,0.733-10.933,5.914-12.847c5.18-1.918,10.932,0.732,12.846,5.913l3.686,9.973
			c1.915,5.181-0.733,10.933-5.914,12.847C384.778,114.84,383.607,115.04,382.456,115.04z"/>
	</g>
	<g>
		<path style="fill:#333333;" d="M367.476,74.505c-4.066,0-7.889-2.499-9.381-6.536l-5.904-15.975
			c-1.915-5.181,0.733-10.933,5.913-12.847c5.179-1.918,10.932,0.732,12.847,5.913l5.904,15.975
			c1.915,5.181-0.733,10.933-5.913,12.847C369.798,74.305,368.627,74.505,367.476,74.505z"/>
	</g>
</g>
<g>
</g>
<g>
</g>
<g>
</g>
<g>
</g>
<g>
</g>
<g>
</g>
<g>
</g>
<g>
</g>
<g>
</g>
<g>
</g>
<g>
</g>
<g>
</g>
<g>
</g>
<g>
</g>
<g>
</g>
</svg>
