<?xml version="1.0" encoding="UTF-8" standalone="no"?>
<!-- Created with Inkscape (http://www.inkscape.org/) -->

<svg
   xmlns:dc="http://purl.org/dc/elements/1.1/"
   xmlns:cc="http://creativecommons.org/ns#"
   xmlns:rdf="http://www.w3.org/1999/02/22-rdf-syntax-ns#"
   xmlns:svg="http://www.w3.org/2000/svg"
   xmlns="http://www.w3.org/2000/svg"
   xmlns:sodipodi="http://sodipodi.sourceforge.net/DTD/sodipodi-0.dtd"
   xmlns:inkscape="http://www.inkscape.org/namespaces/inkscape"
   width="1170"
   height="500"
   viewBox="0 0 1170 499.99998"
   id="svg5213"
   version="1.1"
   inkscape:version="0.91 r13725"
   sodipodi:docname="header.svg"
   inkscape:export-filename="/home/philipp/src/librecores-web/site/web/img/home-header@2x.png"
   inkscape:export-xdpi="180"
   inkscape:export-ydpi="180">
  <defs
     id="defs5215" />
  <sodipodi:namedview
     id="base"
     pagecolor="#ffffff"
     bordercolor="#666666"
     borderopacity="1.0"
     inkscape:pageopacity="0.0"
     inkscape:pageshadow="2"
     inkscape:zoom="1.4142136"
     inkscape:cx="538.96747"
     inkscape:cy="142.65356"
     inkscape:document-units="px"
     inkscape:current-layer="layer2"
     showgrid="false"
     units="px"
     inkscape:window-width="2560"
     inkscape:window-height="1358"
     inkscape:window-x="0"
     inkscape:window-y="0"
     inkscape:window-maximized="1"
     inkscape:snap-bbox="true"
     inkscape:bbox-paths="true"
     inkscape:bbox-nodes="true"
     inkscape:snap-bbox-edge-midpoints="true"
     inkscape:snap-bbox-midpoints="true"
     inkscape:object-paths="true"
     inkscape:snap-global="false"
     inkscape:snap-object-midpoints="true"
     inkscape:object-nodes="true">
    <inkscape:grid
       type="xygrid"
       id="grid6268" />
  </sodipodi:namedview>
  <metadata
     id="metadata5218">
    <rdf:RDF>
      <cc:Work
         rdf:about="">
        <dc:format>image/svg+xml</dc:format>
        <dc:type
           rdf:resource="http://purl.org/dc/dcmitype/StillImage" />
        <dc:title />
      </cc:Work>
    </rdf:RDF>
  </metadata>
  <g
     inkscape:groupmode="layer"
     id="layer2"
     inkscape:label="Ebene 1">
    <rect
       style="opacity:1;fill:#dddfd4;fill-opacity:1;stroke:none;stroke-width:0;stroke-miterlimit:4;stroke-dasharray:none;stroke-opacity:1"
       id="rect4208"
       width="190"
       height="436.46307"
       x="869.14941"
       y="304.39597" />
    <rect
       y="304.39597"
       x="109.14929"
       height="436.46307"
       width="190"
       id="rect4218"
       style="opacity:1;fill:#dddfd4;fill-opacity:1;stroke:none;stroke-width:0;stroke-miterlimit:4;stroke-dasharray:none;stroke-opacity:1" />
    <rect
       style="opacity:1;fill:#dddfd4;fill-opacity:1;stroke:none;stroke-width:0;stroke-miterlimit:4;stroke-dasharray:none;stroke-opacity:1"
       id="rect4220"
       width="190"
       height="436.46307"
       x="299.14932"
       y="304.39597" />
    <rect
       style="opacity:1;fill:#dddfd4;fill-opacity:1;stroke:none;stroke-width:0;stroke-miterlimit:4;stroke-dasharray:none;stroke-opacity:1"
       id="rect4222"
       width="190"
       height="436.46307"
       x="489.14929"
       y="304.39597" />
    <rect
       y="304.39597"
       x="679.14935"
       height="436.46307"
       width="190"
       id="rect4224"
       style="opacity:1;fill:#dddfd4;fill-opacity:1;stroke:none;stroke-width:0;stroke-miterlimit:4;stroke-dasharray:none;stroke-opacity:1" />
    <rect
       style="opacity:1;fill:#dddfd4;fill-opacity:1;stroke:none;stroke-opacity:1"
       id="rect5836"
       width="1170"
       height="312.60138"
       x="0"
       y="1.0203419" />
    <g
       transform="translate(-6.9590579,447.754)"
       id="g6018"
       style="opacity:1;fill:#fae596;fill-opacity:1;stroke:#fae596;stroke-opacity:1">
      <path
         style="fill:#fae596;fill-opacity:1;stroke:#fae596;stroke-opacity:1"
         d="m 446.20186,855.15152 c 12.59619,-41.64336 -19.05182,-42.10982 -50.16792,-33.80558 -22.35964,-4.68011 -91.49309,-3.15686 -32.63025,-5.75728 57.99903,6.91433 21.3337,-77.88819 31.62106,-115.07956 0.0954,-23.10179 0.19074,-46.20358 0.28611,-69.30537 39.69569,12.52068 26.26463,-61.71134 -11.99289,-39.99962 -15.66087,-0.25345 -74.99301,-0.38419 -30.69435,-0.65548 46.52792,-2.11756 89.40135,-2.09547 136.06924,-0.56094 21.60929,0 43.21857,0 64.82786,0 -6.41817,-28.34457 28.94448,-12.67237 45.67369,-16.6308 8.61488,11.89308 -7.027,48.46473 24.66977,37.02921 19.08374,2.53035 47.41224,-4.2775 60.74597,4.06099 -1.20342,22.77761 -3.35873,46.52608 26.40739,37.72534 17.71609,-2.62272 12.91319,-28.86261 43.41404,-18.07696 32.17848,-12.19403 5.22215,36.05904 24.67101,36.877 28.29969,-1.16472 83.80965,2.6668 21.30131,2.89231 -27.46363,-7.64901 -32.52593,7.62224 -29.00619,31.67487 -6.93055,4.94394 -46.77893,9.92539 -48.24643,-3.83636 0.76933,-12.39087 -48.12539,-14.89498 -37.88599,6.3708 -2.48631,18.12552 4.90224,46.1259 -3.49078,58.34471 -27.65497,-6.55762 -36.40393,5.79077 -31.21697,32.07507 -6.28293,5.72312 -47.27804,9.28819 -48.88342,-4.23656 0.76934,-12.39087 -48.12538,-14.89498 -37.88597,6.3708 8.64924,36.58014 -45.33714,5.23978 -61.0217,22.34374 -11.31123,15.70605 -8.9794,46.56782 -49.03712,32.76779 l -7.52747,-0.58874 0,6.2e-4 z m 43.83226,-38.1564 c 4.94457,-26.98552 -1.78657,-42.066 -31.0781,-34.14235 -21.25444,0.97238 -5.53737,38.61496 -10.76151,55.487 -8.05302,22.25067 48.49868,6.10739 41.83961,9.91207 0,-10.41891 0,-20.83781 0,-31.25672 z m -21.69235,-16.59107 c -3.23077,-32.90386 7.75883,23.61671 0,0 z m 34.30551,19.34687 c 1.27874,-15.52208 -14.15382,5.43058 0,0 z m -57.12699,-21.87764 c -8.35576,-29.87478 28.27194,-13.72322 45.21232,-17.71541 -3.95803,36.13928 28.10958,39.86221 63.80795,35.43079 13.44706,-6.70677 -3.20657,-43.51423 30.09225,-30.36924 24.38161,11.81522 21.36352,-37.57826 9.77528,-39.1059 -25.45819,4.3012 -39.67175,-2.71211 -33.56824,-30.16785 -19.39108,1.0329 -74.47657,-15.61684 -66.86496,20.2024 19.15574,31.61339 -83.46736,-0.0862 -48.1287,10.15065 2.80353,-22.72675 -0.15215,-39.74106 -27.39682,-32.66405 -0.25629,-26.7539 -0.51257,-53.50779 -0.76885,-80.26169 -31.26256,-9.40237 -17.28122,26.43916 -20.20042,45.38015 0.50124,45.02415 -1.43435,90.20767 1.73539,135.10018 16.38759,-2.56067 55.64429,15.1011 46.3048,-15.98003 z m 78.49855,3.97694 c 10.65529,-19.86645 13.82082,17.60501 2.52311,4.33847 l -0.916,3.61539 -1.60711,-7.95386 0,0 z m 8.67693,-3.6154 c -8.65009,-10.94531 -8.91595,10.93982 0,0 z m -6.12635,-9.7147 c 15.86957,-2.05282 3.32253,2.13735 0,0 z m 121.09581,-23.5469 c 3.79076,-24.67696 0.38624,-42.15863 -27.95083,-34.70775 -26.97869,-6.09249 -8.68886,33.08354 -13.98772,48.67087 -9.48635,30.37256 23.16366,18.60875 41.91397,20.74464 0.0557,-11.52033 0.009,-23.14759 0.0246,-34.70776 z m -28.75147,-10.52975 c -2.46831,-43.66736 32.17906,14.56121 0,0 z m 7.49022,-1.95275 c 0.61479,-15.17451 -14.47051,5.35588 0,0 z m 1.01506,-12.99588 c -5.31878,-5.27084 -1.73423,9.38542 0,0 z m 56.40011,-12.12169 c -2.48585,-23.37204 -3.17594,-44.94834 26.50467,-36.15392 19.16988,9.03469 18.94104,-43.89235 2.06921,-37.60006 -28.69256,7.76482 -32.50257,-9.3529 -28.57388,-34.20931 -7.2688,-14.12615 -40.25602,-2.53387 -57.90176,-6.28308 -28.34821,-9.07569 -23.7563,15.55203 -23.8061,35.43083 -16.41354,-4.6143 -52.9029,12.0361 -48.56154,-14.56234 -43.13981,-1.44732 -88.82096,-0.20281 -132.93115,-0.62229 0,26.03082 0,52.06163 0,78.09245 29.19193,8.90074 25.82184,-14.76055 24.58465,-36.28894 13.21215,1.9328 54.09431,-11.90083 48.80063,13.37057 -6.90343,30.39693 34.20109,21.2711 54.93655,23.44349 30.81535,-10.50254 -1.56083,43.18213 28.90556,32.73648 31.39032,11.94031 14.18907,-24.71094 40.99614,-17.35388 21.9382,-3.01356 39.42062,-1.57134 31.71541,25.05852 -5.91928,19.51918 46.78846,17.07179 33.26161,-6.35851 0,-6.23333 0,-12.46667 0,-18.70001 z M 525.23621,694.83752 c 21.34581,-20.5867 1.03436,24.88265 0,0 z m 5.26821,1.08172 c -2.10578,-13.39151 -7.62352,6.17843 0,0 z m -6.48558,-13.37694 c 18.10887,-5.38466 14.52468,5.45973 0,0 z m -33.98472,28.92313 c 3.79076,-24.67696 0.38624,-42.15864 -27.95084,-34.70776 -26.97867,-6.09247 -8.68883,33.08356 -13.9877,48.67088 -9.48635,30.37255 23.16364,18.60875 41.91395,20.74464 0.0557,-11.52031 0.009,-23.1476 0.0246,-34.70776 z m -21.69235,-16.71612 c -6.70977,-29.16669 7.89142,16.49257 0,0 z m 34.43648,17.77976 c -5.91302,-12.43646 -8.84774,10.81379 0,0 z m 266.02876,-41.19449 c 3.64484,-24.68838 -0.28405,-41.71704 -28.33855,-34.34622 -26.82828,-6.13069 -9.13234,32.76831 -14.53303,48.30845 -9.83814,30.51661 23.91112,17.93506 42.45928,20.38399 1.68865,-9.74219 0.0529,-23.28725 0.4123,-34.34622 z m -30.87702,-12.85011 c 13.34503,-9.69153 0.92666,-18.70078 7.71234,-3.05096 -10.91566,2.49783 14.99198,7.19756 -7.71234,3.05096 z m 18.19698,-4.22755 c -6.70978,-29.16671 7.89139,16.4926 0,0 z M 598.4959,611.68062 c 3.79076,-24.67695 0.38625,-42.15863 -27.95082,-34.70775 -31.44539,-15.12038 -5.02965,94.71173 -6.46625,69.1323 36.39997,4.85568 37.07916,-0.27135 34.41707,-34.42455 z m -28.01031,-11.13843 c 0.74674,-39.69543 30.77375,10.76146 0,0 l 0,0 z m 7.40243,-1.62289 c 1.86517,-13.82115 -13.64657,3.56761 0,0 z m 1.80785,-13.35481 c -4.49187,-5.24471 -2.74429,7.28194 0,0 z m -26.03082,25.39306 c 9.40957,-31.044 -27.04378,-16.22507 -45.38015,-19.52312 -31.83324,6.33339 -100.65997,-21.50789 -87.6663,32.28299 6.94406,15.09144 41.31334,2.75767 59.34328,6.76324 24.56772,0 49.13545,0 73.70317,0 0,-6.5077 0,-13.01541 0,-19.52311 z M 314.3261,817.75792 c 10.65567,-19.86635 13.82059,17.60509 2.52318,4.3384 l -0.91603,3.6154 -1.60715,-7.9538 0,0 z m 8.67694,-3.61538 c -8.65007,-10.94526 -8.91602,10.93983 0,0 z m 348.88531,-18.3507 c 3.19608,-3.77561 -0.45666,-28.93691 7.57531,-4.53045 1.31394,4.11576 -4.65005,6.76293 -7.57531,4.53045 z m 38.97118,-8.04166 c 27.80194,-20.01488 -1.68116,25.05896 0,0 z m 4.77505,-1.16993 c -4.47082,-7.81777 -2.56977,9.81509 0,0 z m 32.53853,0.8084 c 10.65601,-19.86615 13.82039,17.60503 2.52311,4.33847 l -0.916,3.61539 -1.60711,-7.95386 0,0 z m 8.67694,-3.6154 c -8.65012,-10.94529 -8.91594,10.93982 0,0 z m -25.82445,0.36155 c 24.2634,-1.44081 -6.1198,4.94411 0,0 z m -39.59432,1.49301 c 15.86955,-2.05282 3.32253,2.13735 0,0 z m 19.86483,-10.53149 c 17.20071,-5.38541 17.20068,5.38542 0,0 z m 39.04624,0 c 17.20071,-5.38541 17.20068,5.38542 0,0 z m 97.76539,-101.43516 c -0.27355,-17.4999 15.65744,-5.24958 -4.2038,6.36515 l 4.2038,-6.36515 z m 4.91173,6.86665 c 5.64597,-4.71526 5.79617,2.56703 0,0 z M 644.05302,600.72483 c -27.27223,-38.91436 21.87057,-7.5307 0,0 z m 2.42911,-7.12174 c 0.132,-28.30965 -17.94424,12.13818 0,0 z m -329.4925,-2.88943 c 21.34592,-20.58672 1.03432,24.88267 0,0 z m 5.26819,1.08173 c -2.22933,-13.44964 -7.46973,6.25175 0,0 z m 357.71715,-2.52788 c 21.3458,-20.58668 1.03433,24.88265 0,0 z m 5.2682,1.08173 c -2.10624,-13.39159 -7.62266,6.17803 0,0 z m 32.56064,-1.08462 c 10.65595,-19.86616 13.82043,17.60503 2.52312,4.33847 l -0.916,3.61539 -1.60712,-7.95386 0,0 z m 8.67695,-3.61539 c -8.65009,-10.94578 -8.91591,10.94025 0,0 z m -28.13585,3.61539 c 0.63196,-10.82235 21.10041,-7.36985 0,0 z m -37.28292,-1.76084 c 15.86932,-2.05289 3.32282,2.1374 0,0 z"
         id="path5915"
         inkscape:connector-curvature="0" />
      <path
         style="fill:#fae596;fill-opacity:1;stroke:#fae596;stroke-opacity:1"
         d="m 154.57024,1039.0065 c 12.59619,-41.64336 -19.05182,-42.10982 -50.16792,-33.8056 -22.359641,-4.6801 -91.493092,-3.1568 -32.630254,-5.75726 57.999034,6.91436 21.333707,-77.88819 31.621064,-115.07956 0.0954,-23.10179 0.19074,-46.20358 0.28611,-69.30537 39.69569,12.52068 26.26464,-61.71134 -11.99289,-39.99962 -15.660869,-0.25345 -74.993014,-0.38419 -30.694358,-0.65548 46.527918,-2.11756 89.401358,-2.09547 136.069248,-0.56094 21.60929,0 43.21857,0 64.82786,0 -6.41817,-28.34457 28.94448,-12.67237 45.67369,-16.6308 8.61488,11.89308 -7.027,48.46473 24.66977,37.02921 19.08374,2.53035 47.41224,-4.2775 60.74597,4.06099 -1.20342,22.77761 -3.35873,46.52608 26.40739,37.72534 17.71609,-2.62272 12.91319,-28.86261 43.41404,-18.07696 32.17848,-12.19403 5.22215,36.05904 24.67101,36.877 28.29969,-1.16472 83.80965,2.6668 21.30131,2.89231 -27.46363,-7.64901 -32.52593,7.62224 -29.00619,31.67487 -6.93055,4.94394 -46.77893,9.92539 -48.24643,-3.83636 0.76933,-12.39087 -48.12539,-14.89498 -37.88599,6.3708 -2.48631,18.12552 4.90224,46.1259 -3.49078,58.34471 -27.65497,-6.55762 -36.40393,5.79077 -31.21697,32.07507 -6.28293,5.72312 -47.27804,9.28819 -48.88342,-4.23656 0.76934,-12.39087 -48.12538,-14.89498 -37.88597,6.3708 8.64925,36.58021 -45.33713,5.23981 -61.0217,22.34371 -11.31123,15.7061 -8.9794,46.5679 -49.03712,32.7678 l -7.52747,-0.5887 0,6e-4 z m 43.83226,-38.1564 c 4.94457,-26.98552 -1.78657,-42.066 -31.0781,-34.14235 -21.25444,0.97238 -5.53737,38.61495 -10.76151,55.48705 -8.05302,22.2506 48.49868,6.1073 41.83961,9.912 0,-10.4189 0,-20.8378 0,-31.2567 z m -21.69235,-16.59107 c -3.23077,-32.90386 7.75883,23.61667 0,0 z m 34.30551,19.34687 c 1.27874,-15.52208 -14.15382,5.4306 0,0 z m -57.12699,-21.87764 c -8.35576,-29.87478 28.27194,-13.72322 45.21232,-17.71541 -3.95803,36.13925 28.10958,39.86225 63.80795,35.43079 13.44706,-6.70677 -3.20657,-43.51423 30.09225,-30.36924 24.38161,11.81522 21.36352,-37.57826 9.77528,-39.1059 -25.45819,4.3012 -39.67175,-2.71211 -33.56824,-30.16785 -19.39108,1.0329 -74.47657,-15.61684 -66.86496,20.2024 19.15574,31.61339 -83.46736,-0.0862 -48.1287,10.15065 2.80353,-22.72675 -0.15215,-39.74106 -27.39682,-32.66405 -0.25629,-26.7539 -0.51257,-53.50779 -0.76885,-80.26169 -31.262563,-9.40237 -17.28122,26.43916 -20.20042,45.38015 0.50124,45.02415 -1.43435,90.20767 1.73539,135.10018 16.38759,-2.56067 55.64429,15.10111 46.3048,-15.98003 z m 78.49855,3.97694 c 10.65529,-19.86645 13.82082,17.605 2.52311,4.33847 l -0.916,3.61539 -1.60711,-7.95386 0,0 z m 8.67693,-3.6154 c -8.65009,-10.94531 -8.91595,10.93982 0,0 z m -6.12635,-9.7147 c 15.86957,-2.05282 3.32253,2.13735 0,0 z m 121.09581,-23.5469 c 3.79076,-24.67696 0.38624,-42.15863 -27.95083,-34.70775 -26.97869,-6.09249 -8.68886,33.08354 -13.98772,48.67087 -9.48635,30.37256 23.16366,18.60875 41.91397,20.74464 0.0557,-11.52033 0.009,-23.14759 0.0246,-34.70776 z m -28.75147,-10.52975 c -2.46831,-43.66736 32.17906,14.56121 0,0 z m 7.49022,-1.95275 c 0.61479,-15.17451 -14.47051,5.35588 0,0 z m 1.01506,-12.99588 c -5.31878,-5.27084 -1.73423,9.38542 0,0 z m 56.40011,-12.12169 c -2.48585,-23.37204 -3.17594,-44.94834 26.50467,-36.15392 19.16988,9.03469 18.94104,-43.89235 2.06921,-37.60006 -28.69256,7.76482 -32.50257,-9.3529 -28.57388,-34.20931 -7.2688,-14.12615 -40.25602,-2.53387 -57.90176,-6.28308 -28.34821,-9.07569 -23.7563,15.55203 -23.8061,35.43083 -16.41354,-4.6143 -52.9029,12.0361 -48.56154,-14.56234 -43.13981,-1.44732 -88.82096,-0.20281 -132.93115,-0.62229 0,26.03082 0,52.06163 0,78.09245 29.19193,8.90074 25.82184,-14.76055 24.58465,-36.28894 13.21215,1.9328 54.09431,-11.90083 48.80063,13.37057 -6.90343,30.39693 34.20109,21.2711 54.93655,23.44349 30.81535,-10.50254 -1.56083,43.18213 28.90556,32.73648 31.39032,11.94031 14.18907,-24.71094 40.99614,-17.35388 21.9382,-3.01356 39.42062,-1.57134 31.71541,25.05852 -5.91928,19.51918 46.78846,17.07179 33.26161,-6.35851 0,-6.23333 0,-12.46667 0,-18.70001 z M 233.60459,878.6925 c 21.34581,-20.5867 1.03436,24.88265 0,0 z m 5.26821,1.08172 c -2.22915,-13.44957 -7.47021,6.25195 0,0 z m -6.48558,-13.37694 c 18.10887,-5.38466 14.52468,5.45973 0,0 z m -33.98472,28.92313 c 3.79076,-24.67696 0.38624,-42.15864 -27.95084,-34.70776 -26.97867,-6.09247 -8.68883,33.08356 -13.9877,48.67088 -9.48635,30.37255 23.16364,18.60875 41.91395,20.74464 0.0557,-11.52031 0.009,-23.1476 0.0246,-34.70776 z m -21.69235,-16.71612 c -6.70977,-29.16669 7.89142,16.49257 0,0 z m 34.43648,17.77976 c -5.91302,-12.43646 -8.84774,10.81379 0,0 z m 266.02876,-41.19449 c 3.64484,-24.68838 -0.28405,-41.71704 -28.33855,-34.34622 -26.82828,-6.13069 -9.13234,32.76831 -14.53303,48.30845 -9.83814,30.51661 23.91112,17.93506 42.45928,20.38399 1.68865,-9.74219 0.0529,-23.28725 0.4123,-34.34622 z m -30.87702,-12.85011 c 13.34503,-9.69153 0.92666,-18.70078 7.71234,-3.05096 -10.91566,2.49783 14.99198,7.19756 -7.71234,3.05096 z m 18.19698,-4.22755 c -5.28091,-26.12679 8.92398,16.33229 0,0 z M 306.86428,795.5356 c 3.79076,-24.67695 0.38625,-42.15863 -27.95082,-34.70775 -31.44539,-15.12038 -5.02965,94.71173 -6.46626,69.1323 36.39998,4.85568 37.07917,-0.27135 34.41708,-34.42455 z m -28.01031,-11.13843 c 0.74674,-39.69543 30.77375,10.76146 0,0 l 0,0 z m 7.40243,-1.62289 c 1.86517,-13.82115 -13.64657,3.56761 0,0 z m 1.80785,-13.35481 c -4.49187,-5.24471 -2.74429,7.28194 0,0 z m -26.03082,25.39306 c 9.40957,-31.044 -27.04378,-16.22507 -45.38015,-19.52312 -31.83324,6.33339 -100.65997,-21.50789 -87.6663,32.28299 6.94406,15.09144 41.31334,2.75767 59.34328,6.76324 24.56772,0 49.13545,0 73.70317,0 0,-6.5077 0,-13.01541 0,-19.52311 z M 22.694474,1001.6129 c 10.655682,-19.86635 13.820594,17.6051 2.523182,4.3384 l -0.916025,3.6154 -1.607157,-7.9538 0,0 z m 8.67694,-3.61538 c -8.650064,-10.94528 -8.916015,10.93988 0,0 z m 348.885316,-18.3507 c 3.19608,-3.77561 -0.45666,-28.93691 7.57531,-4.53045 1.31394,4.11576 -4.65005,6.76293 -7.57531,4.53045 z m 38.97118,-8.04166 c 27.80194,-20.01488 -1.68116,25.05896 0,0 z m 4.77505,-1.16993 c -4.47082,-7.81777 -2.56977,9.81509 0,0 z m 32.53853,0.8084 c 10.65601,-19.86615 13.82039,17.60503 2.52311,4.33847 l -0.916,3.61539 -1.60711,-7.95386 0,0 z m 8.67694,-3.6154 c -8.65012,-10.94529 -8.91594,10.93982 0,0 z m -25.82445,0.36155 c 24.2634,-1.44081 -6.1198,4.94411 0,0 z m -39.59432,1.49301 c 15.86955,-2.05282 3.32253,2.13735 0,0 z m 19.86483,-10.53149 c 17.20071,-5.38541 17.20068,5.38542 0,0 z m 39.04624,0 c 17.20071,-5.38541 17.20068,5.38542 0,0 z m 97.76539,-101.43516 c -0.27355,-17.4999 15.65744,-5.24958 -4.2038,6.36515 l 4.2038,-6.36515 z m 4.91173,6.86665 c 5.64597,-4.71526 5.79617,2.56703 0,0 z M 352.4214,784.57981 c -24.88831,-38.20649 20.6574,-5.1121 0,0 z m 2.42911,-7.12174 c 0.132,-28.30965 -17.94424,12.13818 0,0 z M 25.358005,774.56864 c 21.345937,-20.58672 1.034322,24.88267 0,0 z m 5.26819,1.08173 c -2.105959,-13.39153 -7.623053,6.17823 0,0 z m 357.717155,-2.52788 c 8.73681,-16.79202 14.07764,14.45439 -1.8077,7.95097 l 1.8077,-7.95097 z m 5.2682,1.08173 c -2.10624,-13.39159 -7.62266,6.17803 0,0 z m 32.56064,-1.08462 c 10.65595,-19.86616 13.82043,17.60503 2.52312,4.33847 l -0.916,3.61539 -1.60712,-7.95386 0,0 z m 8.67695,-3.61539 c -8.65009,-10.94578 -8.91591,10.94025 0,0 z m -28.13585,3.61539 c 0.63196,-10.82235 21.10041,-7.36985 0,0 z m -37.28292,-1.76084 c 15.86932,-2.05289 3.32282,2.1374 0,0 z"
         id="path5913"
         inkscape:connector-curvature="0" />
      <path
         style="fill:#fae596;fill-opacity:1;stroke:#fae596;stroke-opacity:1"
         d="m 815.99881,821.14937 c 12.59619,-41.64336 -19.05182,-42.10982 -50.16792,-33.80558 -22.35964,-4.6801 -91.49309,-3.15686 -32.63025,-5.75732 57.99903,6.91432 21.33371,-77.88818 31.62106,-115.07953 0.0954,-23.10179 0.19074,-46.20358 0.28611,-69.30537 39.69569,12.52068 26.26463,-61.71134 -11.99289,-39.99962 -15.66087,-0.25345 -74.99301,-0.38419 -30.69435,-0.65548 46.52792,-2.11756 89.40135,-2.09547 136.06924,-0.56094 21.60929,0 43.21857,0 64.82786,0 -6.41817,-28.34457 28.94448,-12.67237 45.67369,-16.6308 8.61488,11.89308 -7.027,48.46473 24.66977,37.02921 19.08377,2.53034 47.41227,-4.27749 60.74597,4.06099 -1.2035,22.77762 -3.3587,46.52608 26.4074,37.72534 17.7161,-2.62273 12.9132,-28.86261 43.4141,-18.07696 32.1784,-12.19403 5.222,36.05904 24.671,36.877 28.2996,-1.16472 83.8095,2.6668 21.3012,2.89231 -27.4635,-7.64904 -32.526,7.62229 -29.0061,31.67487 -6.9306,4.94395 -46.7789,9.92539 -48.2465,-3.83636 0.7694,-12.39088 -48.1254,-14.89499 -37.886,6.3708 -2.4863,18.12553 4.9022,46.12592 -3.4908,58.34474 -27.6549,-6.5576 -36.4039,5.79076 -31.2169,32.07502 -6.2829,5.72314 -47.27803,9.28815 -48.88343,-4.23652 0.76931,-12.39084 -48.12538,-14.89496 -37.88597,6.37082 8.64922,36.58013 -45.33715,5.23977 -61.0217,22.34373 -11.31123,15.70605 -8.9794,46.56782 -49.03712,32.76779 l -7.52747,-0.58874 0,6e-4 z m 43.83226,-38.1564 c 4.94457,-26.98549 -1.78657,-42.06602 -31.0781,-34.14241 -21.25444,0.9724 -5.53737,38.61501 -10.76151,55.48706 -8.05302,22.25067 48.49868,6.10739 41.83961,9.91207 0,-10.41891 0,-20.83781 0,-31.25672 z m -21.69235,-16.5911 c -3.23077,-32.90376 7.75883,23.61669 0,0 z m 34.30551,19.3469 c 1.27875,-15.52212 -14.15383,5.43059 0,0 z m -57.12699,-21.8777 c -8.35576,-29.87477 28.27195,-13.72321 45.21232,-17.7154 -3.95803,36.13931 28.10954,39.86222 63.80795,35.4308 13.44705,-6.70677 -3.20656,-43.51419 30.09225,-30.3692 24.38162,11.81522 21.3635,-37.57826 9.77528,-39.10591 -25.45819,4.3012 -39.67175,-2.71211 -33.56824,-30.16785 -19.39108,1.0329 -74.47657,-15.61684 -66.86496,20.2024 19.15574,31.61339 -83.46736,-0.0862 -48.1287,10.15065 2.80353,-22.72675 -0.15215,-39.74106 -27.39682,-32.66405 -0.25629,-26.7539 -0.51257,-53.50779 -0.76885,-80.26169 -31.26256,-9.40237 -17.28122,26.43916 -20.20042,45.38015 0.50124,45.02416 -1.43435,90.20769 1.73539,135.1002 16.38763,-2.56074 55.64428,15.10106 46.3048,-15.9801 z m 78.49855,3.977 c 10.65527,-19.86667 13.82085,17.60501 2.52311,4.3385 l -0.916,3.6153 -1.60711,-7.9538 0,0 z m 8.67693,-3.6154 c -8.65012,-10.94538 -8.91592,10.93983 0,0 z m -6.12635,-9.7147 c 15.86898,-2.05289 3.32341,2.13653 0,0 z m 121.09583,-23.5469 c 3.7908,-24.67697 0.3862,-42.15864 -27.95085,-34.70776 -26.97869,-6.09249 -8.68886,33.08354 -13.98772,48.67088 -9.48635,30.37253 23.16371,18.60866 41.91397,20.74458 0.056,-11.52027 0.01,-23.14756 0.025,-34.7077 z m -28.75149,-10.52976 c -2.46831,-43.66736 32.17899,14.56118 0,0 z m 7.49022,-1.95275 c 0.61479,-15.17451 -14.47051,5.35588 0,0 z m 1.01506,-12.99588 c -5.31878,-5.27084 -1.73423,9.38542 0,0 z m 56.40011,-12.12169 c -2.4858,-23.37204 -3.1759,-44.94834 26.5047,-36.15392 19.1698,9.03468 18.941,-43.89236 2.0692,-37.60006 -28.6926,7.76483 -32.5026,-9.35291 -28.5739,-34.20931 -7.2688,-14.12615 -40.2561,-2.53387 -57.90181,-6.28308 -28.3482,-9.0757 -23.75622,15.55207 -23.80605,35.43083 -16.41354,-4.6143 -52.9029,12.0361 -48.56154,-14.56234 -43.13981,-1.44732 -88.82096,-0.20281 -132.93115,-0.62229 0,26.03082 0,52.06163 0,78.09245 29.19193,8.90074 25.82184,-14.76055 24.58465,-36.28894 13.21215,1.9328 54.09431,-11.90083 48.80063,13.37057 -6.90343,30.39693 34.20109,21.2711 54.93655,23.44349 30.81535,-10.50254 -1.56083,43.18213 28.90556,32.73648 31.39032,11.94031 14.18907,-24.71094 40.99614,-17.35388 21.93822,-3.01355 39.42062,-1.57134 31.71542,25.05852 -5.9192,19.51914 46.7885,17.07173 33.2616,-6.35855 0,-6.23332 0,-12.46665 0,-18.69997 z M 895.03316,660.83536 c 21.34581,-20.5867 1.03436,24.88265 0,0 z m 5.26821,1.08172 c -2.10578,-13.39151 -7.62352,6.17843 0,0 z m -6.48558,-13.37694 c 18.10887,-5.38466 14.52468,5.45973 0,0 z m -33.98472,28.92313 c 3.79076,-24.67696 0.38624,-42.15864 -27.95084,-34.70776 -26.97867,-6.09247 -8.68883,33.08356 -13.9877,48.67088 -9.48635,30.37255 23.16364,18.60875 41.91395,20.74464 0.0557,-11.52031 0.009,-23.1476 0.0246,-34.70776 z m -21.69235,-16.71612 c -6.70977,-29.16669 7.89142,16.49257 0,0 z m 34.43648,17.77976 c -5.91302,-12.43646 -8.84774,10.81379 0,0 z m 266.0288,-41.19449 c 3.6447,-24.68832 -0.2841,-41.71704 -28.3386,-34.34622 -26.8283,-6.13071 -9.1323,32.76828 -14.533,48.30845 -9.8381,30.51661 23.9111,17.93506 42.4593,20.38399 1.6886,-9.74221 0.053,-23.28725 0.4123,-34.34622 z m -30.8771,-12.85011 c 13.3452,-9.69147 0.9266,-18.70082 7.7124,-3.05096 -10.9157,2.49782 14.992,7.19758 -7.7124,3.05096 z m 18.197,-4.22755 c -5.2809,-26.12679 8.9241,16.33223 0,0 z m -157.63105,-42.5763 c 3.79076,-24.67695 0.38625,-42.15863 -27.95082,-34.70775 -31.44539,-15.12038 -5.02965,94.71173 -6.46626,69.1323 36.39998,4.85568 37.07917,-0.27135 34.41708,-34.42455 z m -28.01031,-11.13843 c 0.74674,-39.69543 30.77375,10.76146 0,0 l 0,0 z m 7.40243,-1.62289 c 1.86517,-13.82115 -13.64657,3.56761 0,0 z m 1.80785,-13.35481 c -4.49187,-5.24471 -2.74429,7.28194 0,0 z M 923.462,576.95539 c 9.40957,-31.044 -27.04378,-16.22507 -45.38015,-19.52312 -31.83324,6.33339 -100.65997,-21.50789 -87.6663,32.28299 6.94406,15.09144 41.31334,2.75767 59.34328,6.76324 24.56772,0 49.13545,0 73.70317,0 0,-6.5077 0,-13.01541 0,-19.52311 z M 684.12305,783.75577 c 10.65566,-19.86647 13.82061,17.60511 2.52318,4.3384 l -0.91603,3.6154 -1.60715,-7.9538 0,0 z m 8.67694,-3.6154 c -8.65002,-10.94534 -8.91606,10.93992 0,0 z m 348.88531,-18.3507 c 3.196,-3.77551 -0.4566,-28.93698 7.5753,-4.53045 1.3139,4.11581 -4.6501,6.76288 -7.5753,4.53045 z m 38.9712,-8.0417 c 27.8019,-20.01555 -1.6814,25.05961 0,0 z m 4.775,-1.1699 c -4.4709,-7.81775 -2.5697,9.81502 0,0 z m 32.5386,0.8084 c 10.656,-19.86619 13.8203,17.60503 2.5231,4.3385 l -0.916,3.6154 -1.6071,-7.9539 0,0 z m 8.6769,-3.6154 c -8.6501,-10.94528 -8.916,10.93982 0,0 z m -25.8245,0.3616 c 24.2634,-1.44088 -6.1196,4.9441 0,0 z m -39.5943,1.493 c 15.869,-2.0529 3.3234,2.13653 0,0 z m 19.8649,-10.5315 c 17.2006,-5.38545 17.2008,5.38534 0,0 z m 39.0462,0 c 17.2006,-5.38545 17.2008,5.38534 0,0 z M 1217.9047,639.659 c -0.2735,-17.4999 15.6574,-5.24956 -4.2038,6.36515 l 4.2038,-6.36515 z m 4.9117,6.86665 c 5.646,-4.71531 5.7963,2.56705 0,0 z M 1013.85,566.72267 c -24.88826,-38.20642 20.6573,-5.11221 0,0 z m 2.4291,-7.12174 c 0.1318,-28.30965 -17.94417,12.13819 0,0 z M 686.78658,556.7115 c 21.34592,-20.58672 1.03432,24.88267 0,0 z m 5.26819,1.08173 c -2.22933,-13.44964 -7.46973,6.25175 0,0 z m 357.71713,-2.52788 c 21.3458,-20.58678 1.0344,24.88265 0,0 z m 5.2682,1.08173 c -2.1061,-13.39157 -7.6227,6.178 0,0 z m 32.5607,-1.08462 c 10.6559,-19.86612 13.8204,17.60504 2.5231,4.33847 l -0.916,3.61539 -1.6071,-7.95386 0,0 z m 8.6769,-3.61539 c -8.6501,-10.94589 -8.9159,10.94037 0,0 z m -28.1358,3.61539 c 5.53,-14.18787 13.4438,0.97345 3.2383,-2.76623 l -0.5553,0.72237 -2.683,2.04386 z m -37.283,-1.76084 c 15.8694,-2.0529 3.3228,2.1374 0,0 z"
         id="path5929"
         inkscape:connector-curvature="0" />
      <path
         style="fill:#fae596;fill-opacity:1;stroke:#fae596;stroke-opacity:1"
         d="m 458.85595,1099.7208 c 12.59619,-41.6434 -19.05182,-42.1098 -50.16792,-33.8056 -22.35964,-4.6801 -91.49309,-3.1568 -32.63025,-5.7573 57.99903,6.9143 21.33371,-77.88818 31.62106,-115.07953 0.0954,-23.10179 0.19074,-46.20358 0.28611,-69.30537 39.69569,12.52068 26.26463,-61.71134 -11.99289,-39.99962 -15.66087,-0.25345 -74.99301,-0.38419 -30.69435,-0.65548 46.52792,-2.11756 89.40135,-2.09547 136.06924,-0.56094 21.60929,0 43.21857,0 64.82786,0 -6.41817,-28.34457 28.94448,-12.67237 45.67369,-16.6308 8.61488,11.89308 -7.027,48.46473 24.66977,37.02921 19.08374,2.53035 47.41224,-4.2775 60.74597,4.06099 -1.20342,22.77761 -3.35873,46.52608 26.40739,37.72534 17.71609,-2.62272 12.91319,-28.86261 43.41404,-18.07696 32.17848,-12.19403 5.22215,36.05904 24.67101,36.877 28.29969,-1.16472 83.80965,2.6668 21.30131,2.89231 -27.46363,-7.64901 -32.52593,7.62224 -29.00619,31.67487 -6.93055,4.94394 -46.77893,9.92539 -48.24643,-3.83636 0.76933,-12.39087 -48.12539,-14.89498 -37.88599,6.3708 -2.48631,18.12553 4.90223,46.12592 -3.49078,58.34474 -27.65494,-6.5576 -36.40393,5.7907 -31.21697,32.075 -6.28286,5.7232 -47.27802,9.2882 -48.88342,-4.2365 0.76931,-12.3908 -48.12538,-14.895 -37.88597,6.3708 8.64922,36.5801 -45.33715,5.2398 -61.0217,22.3438 -11.31123,15.706 -8.9794,46.5678 -49.03712,32.7677 l -7.52747,-0.5887 0,6e-4 z m 43.83226,-38.1564 c 4.94457,-26.9855 -1.78657,-42.066 -31.0781,-34.1424 -21.25444,0.9724 -5.53737,38.615 -10.76151,55.4871 -8.05302,22.2506 48.49868,6.1073 41.83961,9.912 0,-10.4189 0,-20.8378 0,-31.2567 z m -21.69235,-16.5911 c -3.23077,-32.9038 7.75883,23.6167 0,0 z m 34.30551,19.3469 c 1.27875,-15.5221 -14.15383,5.4306 0,0 z m -57.12699,-21.8777 c -8.35576,-29.8748 28.27195,-13.7232 45.21232,-17.7154 -3.95803,36.1393 28.10954,39.8622 63.80795,35.4308 13.44705,-6.7068 -3.20656,-43.5142 30.09225,-30.3692 24.38162,11.8152 21.3635,-37.57826 9.77528,-39.10591 -25.45819,4.3012 -39.67175,-2.71211 -33.56824,-30.16785 -19.39108,1.0329 -74.47657,-15.61684 -66.86496,20.2024 19.15574,31.61336 -83.46736,-0.0862 -48.1287,10.15065 2.80353,-22.72675 -0.15215,-39.74106 -27.39682,-32.66405 -0.25629,-26.7539 -0.51257,-53.50779 -0.76885,-80.26169 -31.26256,-9.40237 -17.28122,26.43916 -20.20042,45.38015 0.50124,45.02416 -1.43435,90.2077 1.73539,135.1002 16.38763,-2.5607 55.64428,15.1011 46.3048,-15.9801 z m 78.49855,3.977 c 10.65527,-19.8667 13.82085,17.605 2.52311,4.3385 l -0.916,3.6153 -1.60711,-7.9538 0,0 z m 8.67693,-3.6154 c -8.65012,-10.9454 -8.91592,10.9398 0,0 z m -6.12635,-9.7147 c 15.86898,-2.0529 3.32341,2.1365 0,0 z m 121.09581,-23.5469 c 3.79076,-24.67696 0.38625,-42.15864 -27.95083,-34.70776 -26.97869,-6.09249 -8.68886,33.08356 -13.98772,48.67086 -9.48635,30.3726 23.16371,18.6087 41.91397,20.7446 0.0557,-11.5203 0.009,-23.1476 0.0246,-34.7077 z m -28.75147,-10.52976 c -2.46832,-43.66736 32.17906,14.56116 0,0 z m 7.49022,-1.95275 c 0.61479,-15.17451 -14.47051,5.35591 0,0 z m 1.01506,-12.99588 c -5.31878,-5.27084 -1.73423,9.38542 0,0 z m 56.40011,-12.12169 c -2.48585,-23.37204 -3.17594,-44.94834 26.50467,-36.15392 19.16988,9.03469 18.94104,-43.89235 2.06921,-37.60006 -28.69256,7.76482 -32.50257,-9.3529 -28.57388,-34.20931 -7.2688,-14.12615 -40.25602,-2.53387 -57.90176,-6.28308 -28.34821,-9.07569 -23.7563,15.55203 -23.8061,35.43083 -16.41354,-4.6143 -52.9029,12.0361 -48.56154,-14.56234 -43.13981,-1.44732 -88.82096,-0.20281 -132.93115,-0.62229 0,26.03082 0,52.06163 0,78.09245 29.19193,8.90074 25.82184,-14.76055 24.58465,-36.28894 13.21215,1.9328 54.09431,-11.90083 48.80063,13.37057 -6.90343,30.39693 34.20109,21.2711 54.93655,23.44349 30.81535,-10.50254 -1.56083,43.18213 28.90556,32.73648 31.39032,11.9403 14.18907,-24.71094 40.99614,-17.35388 21.9382,-3.01356 39.42062,-1.57134 31.71541,25.05852 -5.91924,19.51916 46.78847,17.07176 33.26161,-6.35855 0,-6.23332 0,-12.46665 0,-18.69997 z M 537.8903,939.40679 c 21.34581,-20.5867 1.03436,24.88265 0,0 z m 5.26821,1.08172 c -2.10578,-13.39151 -7.62352,6.17843 0,0 z m -6.48558,-13.37694 c 18.10887,-5.38466 14.52468,5.45973 0,0 z m -33.98472,28.92313 c 3.79076,-24.67696 0.38624,-42.15864 -27.95084,-34.70776 -26.97867,-6.09247 -8.68883,33.08356 -13.9877,48.67088 -9.48635,30.37258 23.16364,18.60875 41.91395,20.74464 0.0557,-11.52031 0.009,-23.1476 0.0246,-34.70776 z m -21.69235,-16.71612 c -6.70977,-29.16669 7.89142,16.49257 0,0 z m 34.43648,17.77976 c -5.91302,-12.43646 -8.84774,10.81379 0,0 z M 781.4611,915.90385 c 3.64484,-24.68838 -0.28405,-41.71704 -28.33855,-34.34622 -26.82828,-6.13069 -9.13234,32.76831 -14.53303,48.30845 -9.83814,30.51661 23.91112,17.93506 42.45928,20.38399 1.68865,-9.74219 0.0529,-23.28725 0.4123,-34.34622 z m -30.87702,-12.85011 c 13.34503,-9.69153 0.92666,-18.70078 7.71234,-3.05096 -10.91566,2.49783 14.99198,7.19756 -7.71234,3.05096 z m 18.19698,-4.22755 c -6.70978,-29.16671 7.89139,16.4926 0,0 z m -157.63107,-42.5763 c 3.79076,-24.67695 0.38625,-42.15863 -27.95082,-34.70775 -31.44539,-15.12038 -5.02965,94.71173 -6.46625,69.1323 36.39997,4.85568 37.07916,-0.27135 34.41707,-34.42455 z m -28.01031,-11.13843 c 0.74674,-39.69543 30.77375,10.76146 0,0 l 0,0 z m 7.40243,-1.62289 c 1.86517,-13.82115 -13.64657,3.56761 0,0 z m 1.80785,-13.35481 c -4.49187,-5.24471 -2.74429,7.28194 0,0 z m -26.03082,25.39306 c 9.40957,-31.044 -27.04378,-16.22507 -45.38015,-19.52312 -31.83324,6.33339 -100.65997,-21.50789 -87.6663,32.28299 6.94406,15.09144 41.31334,2.75767 59.34328,6.76324 24.56772,0 49.13545,0 73.70317,0 0,-6.5077 0,-13.01541 0,-19.52311 z M 326.98019,1062.3272 c 10.65566,-19.8665 13.82061,17.6051 2.52318,4.3384 l -0.91603,3.6154 -1.60715,-7.9538 0,0 z m 8.67694,-3.6154 c -8.65002,-10.9453 -8.91606,10.9399 0,0 z m 348.88531,-18.3507 c 3.19608,-3.7755 -0.45666,-28.937 7.57531,-4.5304 1.31394,4.1158 -4.65012,6.7628 -7.57531,4.5304 z m 38.97118,-8.0417 c 27.8018,-20.014 -1.68073,25.0585 0,0 z m 4.77505,-1.1699 c -4.47082,-7.8177 -2.56978,9.815 0,0 z m 32.53853,0.8084 c 10.65604,-19.8662 13.82038,17.605 2.52311,4.3385 l -0.916,3.6154 -1.60711,-7.9539 0,0 z m 8.67694,-3.6154 c -8.65005,-10.9454 -8.91601,10.9399 0,0 z m -25.82445,0.3616 c 24.26338,-1.4407 -6.11979,4.944 0,0 z m -39.59432,1.493 c 15.86895,-2.0529 3.3234,2.1365 0,0 z m 19.86483,-10.5315 c 17.20057,-5.3855 17.20082,5.3853 0,0 z m 39.04624,0 c 17.20057,-5.3855 17.20082,5.3853 0,0 z m 97.76539,-101.43517 c -0.27355,-17.4999 15.65744,-5.24958 -4.2038,6.36515 l 4.2038,-6.36515 z m 4.91173,6.86665 c 5.64597,-4.71526 5.79617,2.56703 0,0 z M 656.70711,845.2941 c -27.27223,-38.91436 21.87057,-7.5307 0,0 z m 2.42911,-7.12174 c 0.132,-28.30965 -17.94424,12.13818 0,0 z m -329.4925,-2.88943 c 21.34592,-20.58672 1.03432,24.88267 0,0 z m 5.26819,1.08173 c -2.22933,-13.44964 -7.46973,6.25175 0,0 z m 357.71715,-2.52788 c 21.3458,-20.58668 1.03433,24.88265 0,0 z m 5.2682,1.08173 c -2.10624,-13.39159 -7.62266,6.17803 0,0 z m 32.56064,-1.08462 c 10.65595,-19.86616 13.82043,17.60503 2.52312,4.33847 l -0.916,3.61539 -1.60712,-7.95386 0,0 z m 8.67695,-3.61539 c -8.65009,-10.94578 -8.91591,10.94025 0,0 z m -28.13585,3.61539 c 0.63196,-10.82235 21.10041,-7.36985 0,0 z m -37.28292,-1.76084 c 15.86932,-2.05289 3.32282,2.1374 0,0 z"
         id="path5927"
         inkscape:connector-curvature="0" />
      <path
         style="fill:#fae596;fill-opacity:1;stroke:#fae596;stroke-opacity:1"
         d="m 116.7131,800.43507 c 12.59619,-41.64336 -19.051818,-42.10982 -50.167924,-33.80558 -22.35964,-4.68011 -91.493091,-3.15686 -32.630253,-5.75728 57.999039,6.91433 21.333707,-77.88819 31.62106,-115.07956 0.09537,-23.10179 0.190743,-46.20358 0.286114,-69.30537 39.695693,12.52068 26.264635,-61.71134 -11.99289,-39.99962 -15.660869,-0.25345 -74.993014,-0.38419 -30.694358,-0.65548 46.527924,-2.11756 89.401361,-2.09547 136.069251,-0.56094 21.60929,0 43.21857,0 64.82786,0 -6.41817,-28.34457 28.94448,-12.67237 45.67369,-16.6308 8.61488,11.89308 -7.027,48.46473 24.66977,37.02921 19.08374,2.53035 47.41224,-4.2775 60.74597,4.06099 -1.20342,22.77761 -3.35873,46.52608 26.40739,37.72534 17.71609,-2.62272 12.91319,-28.86261 43.41404,-18.07696 32.17848,-12.19403 5.22215,36.05904 24.67101,36.877 28.29969,-1.16472 83.80965,2.6668 21.30131,2.89231 -27.46363,-7.64901 -32.52593,7.62224 -29.00619,31.67487 -6.93055,4.94394 -46.77893,9.92539 -48.24643,-3.83636 0.76933,-12.39087 -48.12539,-14.89498 -37.88599,6.3708 -2.48631,18.12552 4.90224,46.1259 -3.49078,58.34471 -27.65497,-6.55762 -36.40393,5.79077 -31.21697,32.07507 -6.28293,5.72312 -47.27804,9.28819 -48.88342,-4.23656 0.76934,-12.39087 -48.12538,-14.89498 -37.88597,6.3708 8.64924,36.58014 -45.33714,5.23978 -61.0217,22.34374 -11.31123,15.70605 -8.9794,46.56782 -49.03712,32.76779 l -7.52747,-0.58874 0,6.2e-4 z m 43.83226,-38.1564 c 4.94457,-26.98552 -1.78657,-42.066 -31.0781,-34.14235 -21.25444,0.97238 -5.53737,38.61496 -10.76151,55.487 -8.05302,22.25067 48.49868,6.10739 41.83961,9.91207 0,-10.41891 0,-20.83781 0,-31.25672 z M 138.85301,745.6876 c -3.23077,-32.90386 7.75883,23.61671 0,0 z m 34.30551,19.34687 c 1.27874,-15.52208 -14.15382,5.43058 0,0 z m -57.12699,-21.87764 c -8.35576,-29.87478 28.27194,-13.72322 45.21232,-17.71541 -3.95803,36.13928 28.10958,39.86221 63.80795,35.43079 13.44706,-6.70677 -3.20657,-43.51423 30.09225,-30.36924 24.38161,11.81522 21.36352,-37.57826 9.77528,-39.1059 -25.45819,4.3012 -39.67175,-2.71211 -33.56824,-30.16785 -19.39108,1.0329 -74.47657,-15.61684 -66.86496,20.2024 19.15574,31.61339 -83.467363,-0.0862 -48.1287,10.15065 2.80353,-22.72676 -0.15215,-39.74106 -27.396823,-32.66405 -0.256289,-26.7539 -0.512572,-53.50779 -0.76885,-80.26169 -31.262563,-9.40237 -17.281219,26.43916 -20.20042,45.38015 0.50124,45.02415 -1.43435,90.20767 1.73539,135.10018 16.387591,-2.56067 55.644293,15.1011 46.304803,-15.98003 z m 78.49855,3.97694 c 10.65529,-19.86645 13.82082,17.60501 2.52311,4.33847 l -0.916,3.61539 -1.60711,-7.95386 0,0 z m 8.67693,-3.6154 c -8.65009,-10.94531 -8.91595,10.93982 0,0 z m -6.12635,-9.7147 c 15.86957,-2.05282 3.32253,2.13735 0,0 z m 121.09581,-23.5469 c 3.79076,-24.67696 0.38624,-42.15863 -27.95083,-34.70775 -26.97869,-6.09249 -8.68886,33.08354 -13.98772,48.67087 -9.48635,30.37256 23.16366,18.60875 41.91397,20.74464 0.0557,-11.52033 0.009,-23.14759 0.0246,-34.70776 z M 289.425,699.72702 c -2.46831,-43.66736 32.17906,14.56121 0,0 z m 7.49022,-1.95275 c 0.61479,-15.17451 -14.47051,5.35588 0,0 z m 1.01506,-12.99588 c -5.31878,-5.27084 -1.73423,9.38542 0,0 z m 56.40011,-12.12169 c -2.48585,-23.37204 -3.17594,-44.94834 26.50467,-36.15392 19.16988,9.03469 18.94104,-43.89235 2.06921,-37.60006 -28.69256,7.76482 -32.50257,-9.3529 -28.57388,-34.20931 -7.2688,-14.12615 -40.25602,-2.53387 -57.90176,-6.28308 -28.34821,-9.07569 -23.7563,15.55203 -23.8061,35.43083 -16.41354,-4.6143 -52.9029,12.0361 -48.56154,-14.56234 -43.13981,-1.44732 -88.82097,-0.20281 -132.931153,-0.62229 0,26.03082 0,52.06163 0,78.09245 29.191933,8.90074 25.821843,-14.76055 24.584653,-36.28894 13.21215,1.9328 54.09431,-11.90083 48.80063,13.37057 -6.90343,30.39693 34.20109,21.2711 54.93655,23.44349 30.81535,-10.50254 -1.56083,43.18213 28.90556,32.73648 31.39032,11.94031 14.18907,-24.71094 40.99614,-17.35388 21.9382,-3.01356 39.42062,-1.57134 31.71541,25.05852 -5.91928,19.51918 46.78846,17.07179 33.26161,-6.35851 0,-6.23333 0,-12.46667 0,-18.70001 z M 195.74745,640.12107 c 21.34581,-20.5867 1.03436,24.88265 0,0 z m 5.26821,1.08172 c -2.22915,-13.44957 -7.47021,6.25195 0,0 z m -6.48558,-13.37694 c 18.10887,-5.38466 14.52468,5.45973 0,0 z m -33.98472,28.92313 c 3.79076,-24.67696 0.38624,-42.15864 -27.95084,-34.70776 -26.97867,-6.09247 -8.68883,33.08356 -13.9877,48.67088 -9.48635,30.37255 23.16364,18.60875 41.91395,20.74464 0.0557,-11.52031 0.009,-23.1476 0.0246,-34.70776 z m -21.69235,-16.71612 c -6.70977,-29.16669 7.89142,16.49257 0,0 z m 34.43648,17.77976 c -5.91302,-12.43646 -8.84774,10.81379 0,0 z m 266.02876,-41.19449 c 3.64484,-24.68838 -0.28405,-41.71704 -28.33855,-34.34622 -26.82828,-6.13069 -9.13234,32.76831 -14.53303,48.30845 -9.83814,30.51661 23.91112,17.93506 42.45928,20.38399 1.68865,-9.74219 0.0529,-23.28725 0.4123,-34.34622 z m -30.87702,-12.85011 c 13.34503,-9.69153 0.92666,-18.70078 7.71234,-3.05096 -10.91566,2.49783 14.99198,7.19756 -7.71234,3.05096 z m 18.19698,-4.22755 c -5.28091,-26.12679 8.92398,16.33229 0,0 z m -157.63107,-42.5763 c 3.79076,-24.67695 0.38625,-42.15863 -27.95082,-34.70775 -31.44539,-15.12038 -5.02965,94.71173 -6.46626,69.1323 36.39998,4.85568 37.07917,-0.27135 34.41708,-34.42455 z m -28.01031,-11.13843 c 0.74674,-39.69543 30.77375,10.76146 0,0 l 0,0 z m 7.40243,-1.62289 c 1.86517,-13.82115 -13.64657,3.56761 0,0 z m 1.80785,-13.35481 c -4.49187,-5.24471 -2.74429,7.28194 0,0 z m -26.03082,25.39306 c 9.40957,-31.044 -27.04378,-16.22507 -45.38015,-19.52312 -31.83324,6.33339 -100.659977,-21.50789 -87.666303,32.28299 6.944065,15.09144 41.313343,2.75767 59.343283,6.76324 24.56772,0 49.13545,0 73.70317,0 0,-6.5077 0,-13.01541 0,-19.52311 z M -15.162669,763.04147 c 10.6556822,-19.86635 13.820594,17.60509 2.523182,4.3384 l -0.916025,3.6154 -1.607157,-7.9538 0,0 z m 8.6769401,-3.61538 c -8.6500641,-10.94528 -8.9160151,10.93984 0,0 z M 342.39959,741.07539 c 3.19608,-3.77561 -0.45666,-28.93691 7.57531,-4.53045 1.31394,4.11576 -4.65005,6.76293 -7.57531,4.53045 z m 38.97118,-8.04166 c 27.80194,-20.01488 -1.68116,25.05896 0,0 z m 4.77505,-1.16993 c -4.47082,-7.81777 -2.56977,9.81509 0,0 z m 32.53853,0.8084 c 10.65601,-19.86615 13.82039,17.60503 2.52311,4.33847 l -0.916,3.61539 -1.60711,-7.95386 0,0 z m 8.67694,-3.6154 c -8.65012,-10.94529 -8.91594,10.93982 0,0 z m -25.82445,0.36155 c 24.2634,-1.44081 -6.1198,4.94411 0,0 z m -39.59432,1.49301 c 15.86955,-2.05282 3.32253,2.13735 0,0 z m 19.86483,-10.53149 c 17.20071,-5.38541 17.20068,5.38542 0,0 z m 39.04624,0 c 17.20071,-5.38541 17.20068,5.38542 0,0 z m 97.76539,-101.43516 c -0.27355,-17.4999 15.65744,-5.24958 -4.2038,6.36515 l 4.2038,-6.36515 z m 4.91173,6.86665 c 5.64597,-4.71526 5.79617,2.56703 0,0 z M 314.56426,546.00838 c -24.88831,-38.20649 20.6574,-5.1121 0,0 z m 2.42911,-7.12174 c 0.132,-28.30965 -17.94424,12.13818 0,0 z m -329.492508,-2.88943 c 21.3459377,-20.58672 1.034322,24.88267 0,0 z m 5.2681901,1.08173 c -2.1059594,-13.39153 -7.6230531,6.17823 0,0 z M 350.48621,534.55106 c 8.73681,-16.79202 14.07764,14.45439 -1.8077,7.95097 l 1.8077,-7.95097 z m 5.2682,1.08173 c -2.10624,-13.39159 -7.62266,6.17803 0,0 z m 32.56064,-1.08462 c 10.65595,-19.86616 13.82043,17.60503 2.52312,4.33847 l -0.916,3.61539 -1.60712,-7.95386 0,0 z m 8.67695,-3.61539 c -8.65009,-10.94578 -8.91591,10.94025 0,0 z m -28.13585,3.61539 c 0.63196,-10.82235 21.10041,-7.36985 0,0 z m -37.28292,-1.76084 c 15.86932,-2.05289 3.32282,2.1374 0,0 z"
         id="path5943"
         inkscape:connector-curvature="0" />
      <path
         style="fill:#fae596;fill-opacity:1;stroke:#fae596;stroke-opacity:1"
         d="m 875.28452,1066.1494 c 12.59619,-41.6434 -19.05182,-42.1098 -50.16792,-33.8056 -22.35964,-4.6801 -91.49309,-3.1568 -32.63025,-5.7573 57.99903,6.9143 21.3337,-77.8882 31.62106,-115.07956 0.0954,-23.10179 0.19074,-46.20358 0.28611,-69.30537 39.69569,12.52068 26.26463,-61.71134 -11.99289,-39.99962 -15.66087,-0.25345 -74.99301,-0.38419 -30.69435,-0.65548 46.52792,-2.11756 89.40135,-2.09547 136.06924,-0.56094 21.60929,0 43.21857,0 64.82786,0 -6.41817,-28.34458 28.94452,-12.67236 45.67372,-16.6308 8.6148,11.89302 -7.027,48.46475 24.6698,37.02921 19.0837,2.53034 47.4122,-4.27749 60.7459,4.06099 -1.2033,22.77754 -3.3587,46.52607 26.4074,37.72534 17.7161,-2.62273 12.9132,-28.86261 43.4141,-18.07696 32.1785,-12.19403 5.2221,36.05903 24.671,36.877 28.2997,-1.16472 83.8096,2.6668 21.3012,2.89231 -27.4636,-7.64904 -32.5258,7.62229 -29.0061,31.67487 -6.9306,4.94395 -46.7789,9.92539 -48.2465,-3.83636 0.7694,-12.39087 -48.1253,-14.89497 -37.8859,6.3708 -2.4863,18.12553 4.9022,46.12592 -3.4908,58.34474 -27.6549,-6.5576 -36.404,5.7907 -31.217,32.07503 -6.2828,5.7232 -47.278,9.2882 -48.8834,-4.2365 0.7694,-12.39089 -48.12541,-14.895 -37.88599,6.3708 8.64929,36.5802 -45.33713,5.2398 -61.0217,22.3437 -11.31123,15.7061 -8.9794,46.5679 -49.03712,32.7678 l -7.52747,-0.5887 0,6e-4 z m 43.83226,-38.1564 c 4.94456,-26.9855 -1.78655,-42.06606 -31.0781,-34.14244 -21.25444,0.9724 -5.53736,38.61504 -10.76151,55.48714 -8.05302,22.2506 48.49868,6.1073 41.83961,9.912 0,-10.4189 0,-20.8378 0,-31.2567 z m -21.69235,-16.5911 c -3.23077,-32.90376 7.75883,23.6167 0,0 z m 34.30551,19.3469 c 1.27875,-15.5221 -14.15383,5.4306 0,0 z m -57.12699,-21.8777 c -8.35577,-29.87479 28.27192,-13.72325 45.21232,-17.71543 -3.95804,36.13933 28.10952,39.86223 63.80795,35.43083 13.44705,-6.7068 -3.20656,-43.51422 30.09228,-30.36923 24.3816,11.81523 21.3635,-37.57825 9.7753,-39.10591 -25.45823,4.3012 -39.67181,-2.71209 -33.56829,-30.16785 -19.39108,1.0329 -74.47657,-15.61684 -66.86496,20.2024 19.15574,31.61339 -83.46736,-0.0862 -48.1287,10.15065 2.80353,-22.72675 -0.15215,-39.74106 -27.39682,-32.66405 -0.25629,-26.7539 -0.51257,-53.50779 -0.76885,-80.26169 -31.26256,-9.40237 -17.28122,26.43916 -20.20042,45.38015 0.50124,45.02417 -1.43435,90.20771 1.73539,135.10023 16.38763,-2.5607 55.64428,15.1011 46.3048,-15.9801 z m 78.49855,3.977 c 10.65527,-19.86667 13.82085,17.605 2.52311,4.3385 l -0.916,3.6153 -1.60711,-7.9538 0,0 z m 8.67693,-3.6154 c -8.65012,-10.94538 -8.91592,10.9398 0,0 z m -6.12635,-9.71473 c 15.86898,-2.05299 3.3234,2.13663 0,0 z m 121.09582,-23.5469 c 3.7908,-24.67698 0.3862,-42.15864 -27.9509,-34.70776 -26.9787,-6.0925 -8.6888,33.08353 -13.9877,48.67088 -9.4864,30.37251 23.1637,18.60871 41.914,20.74461 0.056,-11.52026 0.01,-23.14758 0.025,-34.70773 z m -28.7515,-10.52976 c -2.4683,-43.66735 32.179,14.56115 0,0 z m 7.4902,-1.95275 c 0.6148,-15.17448 -14.4704,5.35583 0,0 z m 1.0151,-12.99588 c -5.3187,-5.27084 -1.7343,9.38543 0,0 z m 56.4001,-12.12169 c -2.4858,-23.37204 -3.1759,-44.94834 26.5047,-36.15392 19.1698,9.03468 18.941,-43.89236 2.0692,-37.60006 -28.6926,7.76483 -32.5026,-9.35291 -28.5739,-34.20931 -7.2688,-14.12615 -40.256,-2.53387 -57.9017,-6.28308 -28.3482,-9.07569 -23.7565,15.55201 -23.8061,35.43083 -16.4136,-4.6143 -52.90294,12.03611 -48.56159,-14.56234 -43.13981,-1.44732 -88.82096,-0.20281 -132.93115,-0.62229 0,26.03082 0,52.06163 0,78.09245 29.19193,8.90074 25.82184,-14.76055 24.58465,-36.28894 13.21215,1.9328 54.09431,-11.90083 48.80063,13.37057 -6.90343,30.39693 34.20109,21.2711 54.93655,23.44349 30.81531,-10.50254 -1.56083,43.18213 28.90561,32.73648 31.3903,11.94029 14.1891,-24.71092 40.9961,-17.35388 21.9382,-3.01356 39.4206,-1.57132 31.7154,25.05852 -5.9192,19.51914 46.7885,17.07173 33.2616,-6.35855 0,-6.23332 0,-12.46665 0,-18.69997 z M 954.31887,905.83536 c 21.34581,-20.5867 1.03436,24.88265 0,0 z m 5.26821,1.08172 c -2.10578,-13.39151 -7.62352,6.17843 0,0 z m -6.48558,-13.37694 c 18.10887,-5.38466 14.52468,5.45973 0,0 z m -33.98472,28.92313 c 3.79076,-24.67696 0.38624,-42.15864 -27.95084,-34.70776 -26.97867,-6.09247 -8.68883,33.08356 -13.9877,48.67088 -9.48635,30.37255 23.16364,18.60875 41.91395,20.74464 0.0557,-11.52031 0.009,-23.1476 0.0246,-34.70776 z m -21.69235,-16.71612 c -6.70977,-29.16669 7.89142,16.49257 0,0 z m 34.43648,17.77976 c -5.91302,-12.43646 -8.84774,10.81379 0,0 z m 266.02879,-41.19449 c 3.6449,-24.68839 -0.2841,-41.71704 -28.3386,-34.34622 -26.8283,-6.13071 -9.1323,32.76828 -14.533,48.30845 -9.8381,30.51661 23.9111,17.93506 42.4593,20.38399 1.6886,-9.74221 0.053,-23.28725 0.4123,-34.34622 z m -30.877,-12.85011 c 13.345,-9.69156 0.9265,-18.70077 7.7123,-3.05096 -10.9156,2.49784 14.992,7.19754 -7.7123,3.05096 z m 18.1969,-4.22755 c -5.2809,-26.12679 8.9241,16.33223 0,0 z m -157.631,-42.5763 c 3.7908,-24.67698 0.3862,-42.15863 -27.95086,-34.70775 -31.44539,-15.12038 -5.02965,94.71173 -6.46626,69.1323 36.39992,4.85566 37.07922,-0.27132 34.41712,-34.42455 z m -28.01035,-11.13843 c 0.74675,-39.69543 30.77375,10.76145 0,0 l 0,0 z m 7.40245,-1.62289 c 1.8651,-13.82114 -13.64657,3.56762 0,0 z m 1.8078,-13.35481 c -4.4919,-5.24476 -2.7443,7.28199 0,0 z m -26.03079,25.39306 c 9.40957,-31.044 -27.04378,-16.22507 -45.38015,-19.52312 -31.83324,6.33339 -100.65997,-21.50789 -87.6663,32.28299 6.94406,15.09144 41.31334,2.75767 59.34328,6.76324 24.56772,0 49.13545,0 73.70317,0 0,-6.5077 0,-13.01541 0,-19.52311 z M 743.40876,1028.7558 c 10.65566,-19.8665 13.82061,17.6051 2.52318,4.3384 l -0.91603,3.6154 -1.60715,-7.9538 0,0 z m 8.67694,-3.6154 c -8.65002,-10.9453 -8.91606,10.9399 0,0 z m 348.8853,-18.3507 c 3.1961,-3.7755 -0.4567,-28.93702 7.5753,-4.5305 1.314,4.1159 -4.6501,6.7629 -7.5753,4.5305 z m 38.9712,-8.04173 c 27.802,-20.01572 -1.6814,25.05973 0,0 z m 4.775,-1.1699 c -4.4709,-7.81777 -2.5697,9.81513 0,0 z m 32.5386,0.8084 c 10.6561,-19.86615 13.8203,17.60503 2.5231,4.33853 l -0.916,3.6154 -1.6071,-7.95393 0,0 z m 8.6769,-3.6154 c -8.65,-10.94546 -8.916,10.94003 0,0 z m -25.8244,0.3616 c 24.2634,-1.44077 -6.12,4.94403 0,0 z m -39.5944,1.493 c 15.869,-2.0529 3.3234,2.13653 0,0 z m 19.8649,-10.5315 c 17.2006,-5.38545 17.2008,5.38534 0,0 z m 39.0462,0 c 17.2006,-5.38545 17.2008,5.38534 0,0 z M 1277.1904,884.659 c -0.2735,-17.49987 15.6574,-5.24962 -4.2038,6.36515 l 4.2038,-6.36515 z m 4.9117,6.86665 c 5.6461,-4.71521 5.7961,2.56701 0,0 z m -208.9664,-79.80298 c -27.2722,-38.91433 21.8705,-7.53073 0,0 z m 2.4291,-7.12174 c 0.132,-28.30966 -17.9442,12.13816 0,0 z M 746.07229,801.7115 c 21.34592,-20.58672 1.03432,24.88267 0,0 z m 5.26819,1.08173 c -2.22933,-13.44964 -7.46973,6.25175 0,0 z m 357.71712,-2.52788 c 21.3459,-20.58657 1.0343,24.88267 0,0 z m 5.2682,1.08173 c -2.1061,-13.39157 -7.6227,6.178 0,0 z m 32.5607,-1.08462 c 10.656,-19.86619 13.8204,17.60503 2.5231,4.33847 l -0.916,3.61539 -1.6071,-7.95386 0,0 z m 8.6769,-3.61539 c -8.6501,-10.94584 -8.9159,10.94032 0,0 z m -28.1358,3.61539 c 5.5301,-14.18787 13.4438,0.97345 3.2383,-2.76623 l -0.5553,0.72237 -2.683,2.04386 z m -37.2829,-1.76084 c 15.8692,-2.05289 3.3228,2.1374 0,0 z"
         id="path5945"
         inkscape:connector-curvature="0" />
      <path
         style="fill:#fae596;fill-opacity:1;stroke:#fae596;stroke-opacity:1"
         d="m -227.26742,1039.0065 c 12.59619,-41.64336 -19.05182,-42.10982 -50.16792,-33.8056 -22.35964,-4.6801 -91.4931,-3.1568 -32.63026,-5.75726 57.99905,6.91436 21.33371,-77.88819 31.62107,-115.07956 0.0954,-23.10179 0.19074,-46.20358 0.28611,-69.30537 39.69569,12.52068 26.26463,-61.71134 -11.99289,-39.99962 -15.66087,-0.25345 -74.99302,-0.38419 -30.69436,-0.65548 46.52792,-2.11756 89.40136,-2.09547 136.06925,-0.56094 21.60929,0 43.21857,0 64.82786,0 -6.41817,-28.34457 28.944476,-12.67237 45.673685,-16.6308 8.614881,11.89308 -7.026996,48.46473 24.669773,37.02921 19.083745,2.53035 47.4122429,-4.2775 60.745974,4.06099 -1.2034223,22.77761 -3.3587312,46.52608 26.407388,37.72534 17.716089,-2.62272 12.913189,-28.86261 43.41404,-18.07696 32.17848,-12.19403 5.22215,36.05904 24.67101,36.877 28.29969,-1.16472 83.80965,2.6668 21.30131,2.89231 -27.463626,-7.64901 -32.525937,7.62224 -29.006194,31.67487 -6.930551,4.94394 -46.778931,9.92539 -48.246428,-3.83636 0.769331,-12.39087 -48.1253937,-14.89498 -37.88599,6.3708 -2.4863114,18.12552 4.902239,46.1259 -3.4907811,58.34471 -27.6549719,-6.55762 -36.4039269,5.79077 -31.2169689,32.07507 -6.282929,5.72312 -47.278044,9.28819 -48.88342,-4.23656 0.769337,-12.39087 -48.125378,-14.89498 -37.885968,6.3708 8.64925,36.58021 -45.33713,5.23981 -61.0217,22.34371 -11.31123,15.7061 -8.9794,46.5679 -49.03712,32.7678 l -7.52747,-0.5887 0,6e-4 z m 43.83226,-38.1564 c 4.94457,-26.98552 -1.78657,-42.066 -31.0781,-34.14235 -21.25444,0.97238 -5.53737,38.61495 -10.76151,55.48705 -8.05302,22.2506 48.49868,6.1073 41.83961,9.912 0,-10.4189 0,-20.8378 0,-31.2567 z m -21.69235,-16.59107 c -3.23077,-32.90386 7.75883,23.61667 0,0 z m 34.30551,19.34687 c 1.27874,-15.52208 -14.15382,5.4306 0,0 z m -57.12699,-21.87764 c -8.35576,-29.87478 28.27194,-13.72322 45.21232,-17.71541 -3.95803,36.13925 28.10958,39.86225 63.80795,35.43079 13.44706,-6.70677 -3.20657,-43.51423 30.092249,-30.36924 24.381608,11.81522 21.363516,-37.57826 9.775275,-39.1059 -25.458184,4.3012 -39.671744,-2.71211 -33.568234,-30.16785 -19.39108,1.0329 -74.47657,-15.61684 -66.86496,20.2024 19.15574,31.61339 -83.46736,-0.0862 -48.1287,10.15065 2.80353,-22.72675 -0.15215,-39.74106 -27.39682,-32.66405 -0.25629,-26.7539 -0.51257,-53.50779 -0.76885,-80.26169 -31.26256,-9.40237 -17.28122,26.43916 -20.20042,45.38015 0.50124,45.02415 -1.43435,90.20767 1.73539,135.10018 16.38759,-2.56067 55.64429,15.10111 46.3048,-15.98003 z m 78.49855,3.97694 c 10.65529,-19.86645 13.82082,17.605 2.52311,4.33847 l -0.916,3.61539 -1.60711,-7.95386 0,0 z m 8.67693,-3.6154 c -8.65009,-10.94531 -8.91595,10.93982 0,0 z m -6.12635,-9.7147 c 15.86957,-2.05282 3.32253,2.13735 0,0 z m 121.095808,-23.5469 c 3.790764,-24.67696 0.386241,-42.15863 -27.950832,-34.70775 -26.978684,-6.09249 -8.688859,33.08354 -13.987718,48.67087 -9.486354,30.37256 23.163658,18.60875 41.913967,20.74464 0.05572,-11.52033 0.0094,-23.14759 0.02458,-34.70776 z m -28.75147,-10.52975 c -2.468315,-43.66736 32.179058,14.56121 0,0 z m 7.49022,-1.95275 c 0.614792,-15.17451 -14.470515,5.35588 0,0 z m 1.01506,-12.99588 c -5.31878,-5.27084 -1.734227,9.38542 0,0 z m 56.40011,-12.12169 C 7.8640224,887.85609 7.1739245,866.27979 36.85454,875.07421 c 19.169874,9.03469 18.941041,-43.89235 2.069205,-37.60006 -28.692552,7.76482 -32.5025637,-9.3529 -28.573877,-34.20931 -7.2687993,-14.12615 -40.256022,-2.53387 -57.901756,-6.28308 -28.348213,-9.07569 -23.756299,15.55203 -23.806104,35.43083 -16.413538,-4.6143 -52.902898,12.0361 -48.561538,-14.56234 -43.13981,-1.44732 -88.82096,-0.20281 -132.93115,-0.62229 0,26.03082 0,52.06163 0,78.09245 29.19193,8.90074 25.82184,-14.76055 24.58465,-36.28894 13.21215,1.9328 54.09431,-11.90083 48.80063,13.37057 -6.90343,30.39693 34.20109,21.2711 54.93655,23.44349 30.815351,-10.50254 -1.56083,43.18213 28.905564,32.73648 31.390311,11.94031 14.189067,-24.71094 40.99613,-17.35388 21.938202,-3.01356 39.420628,-1.57134 31.715414,25.05852 -5.919282,19.51918 46.788464,17.07179 33.26161,-6.35851 0,-6.23333 0,-12.46667 0,-18.70001 z M -148.23307,878.6925 c 21.34581,-20.5867 1.03436,24.88265 0,0 z m 5.26821,1.08172 c -2.22915,-13.44957 -7.47021,6.25195 0,0 z m -6.48558,-13.37694 c 18.10887,-5.38466 14.52468,5.45973 0,0 z m -33.98472,28.92313 c 3.79076,-24.67696 0.38624,-42.15864 -27.95084,-34.70776 -26.97867,-6.09247 -8.68883,33.08356 -13.9877,48.67088 -9.48635,30.37255 23.16364,18.60875 41.91395,20.74464 0.0557,-11.52031 0.009,-23.1476 0.0246,-34.70776 z m -21.69235,-16.71612 c -6.70977,-29.16669 7.89142,16.49257 0,0 z m 34.43648,17.77976 c -5.91302,-12.43646 -8.84774,10.81379 0,0 z M 95.337728,855.18956 c 3.644845,-24.68838 -0.284051,-41.71704 -28.338552,-34.34622 -26.82828,-6.13069 -9.132338,32.76831 -14.533028,48.30845 -9.83814,30.51661 23.911118,17.93506 42.459277,20.38399 1.688651,-9.74219 0.05289,-23.28725 0.412303,-34.34622 z m -30.87702,-12.85011 c 13.345026,-9.69153 0.926662,-18.70078 7.71234,-3.05096 -10.915663,2.49783 14.991978,7.19756 -7.71234,3.05096 z m 18.19698,-4.22755 c -6.70978,-29.16671 7.891387,16.4926 0,0 z m -157.63107,-42.5763 c 3.79076,-24.67695 0.386248,-42.15863 -27.950818,-34.70775 -31.44539,-15.12038 -5.02965,94.71173 -6.46626,69.1323 36.399978,4.85568 37.079164,-0.27135 34.417078,-34.42455 z m -28.010308,-11.13843 c 0.74674,-39.69543 30.773748,10.76145 0,0 l 0,0 z m 7.402428,-1.62289 c 2.22055,-13.05086 -13.697778,3.63016 0,0 z m 1.80785,-13.35481 c -4.491875,-5.24471 -2.744288,7.28194 0,0 z m -26.030818,25.39306 c 9.40957,-31.044 -27.04378,-16.22507 -45.38015,-19.52312 -31.83324,6.33339 -100.65997,-21.50789 -87.6663,32.28299 6.94406,15.09144 41.31334,2.75767 59.34328,6.76324 24.56772,0 49.13545,0 73.70317,0 0,-6.5077 0,-13.01541 0,-19.52311 z m -239.33896,206.80037 c 10.65567,-19.86635 13.82061,17.6051 2.52318,4.3384 l -0.91602,3.6154 -1.60716,-7.9538 0,0 z m 8.67694,-3.61538 c -8.65006,-10.94528 -8.91601,10.93988 0,0 z m 348.8853179,-18.3507 c 3.1960842,-3.77561 -0.4566591,-28.93691 7.57531,-4.53045 1.3139391,4.11576 -4.6500474,6.76293 -7.57531,4.53045 z m 38.9711801,-8.04166 c 27.801943,-20.01488 -1.681159,25.05896 0,0 z m 4.77505,-1.16993 c -4.470823,-7.81777 -2.569773,9.81509 0,0 z m 32.53853,0.8084 c 10.656006,-19.86615 13.820387,17.60503 2.52311,4.33847 l -0.916,3.61539 -1.60711,-7.95386 0,0 z m 8.67694,-3.6154 c -8.650115,-10.94529 -8.915945,10.93982 0,0 z m -25.82445,0.36155 c 24.263398,-1.44081 -6.119798,4.94411 0,0 z m -39.59432,1.49301 c 15.869546,-2.05282 3.322528,2.13735 0,0 z m 19.86483,-10.53149 c 17.200706,-5.38541 17.20068,5.38542 0,0 z m 39.04624,0 c 17.200706,-5.38541 17.20068,5.38542 0,0 z M 174.63846,857.51614 c -0.27355,-17.4999 15.65744,-5.24958 -4.2038,6.36515 l 4.2038,-6.36515 0,0 z m 4.91173,6.86665 c 5.64597,-4.71526 5.79617,2.56703 0,0 z M -29.416262,784.57981 c -24.888313,-38.20649 20.6574006,-5.1121 0,0 z m 2.42911,-7.12174 c -2.328351,-33.99263 -19.420973,15.60321 0,0 z m -329.492508,-2.88943 c 21.34592,-20.58672 1.03434,24.88267 0,0 z m 5.26819,1.08173 c -2.10596,-13.39153 -7.62304,6.17822 0,0 z M 6.5056879,773.12249 c 21.3458051,-20.58668 1.0343298,24.88265 0,0 z m 5.2682001,1.08173 c -2.2295847,-13.44975 -7.4693181,6.25157 0,0 z m 32.56064,-1.08462 c 10.655949,-19.86616 13.820432,17.60503 2.52312,4.33847 l -0.916,3.61539 -1.60712,-7.95386 0,0 z m 8.67695,-3.61539 c -8.650087,-10.94578 -8.915909,10.94025 0,0 z m -28.13585,3.61539 c 5.530078,-14.18789 13.443814,0.97345 3.238394,-2.76623 l -0.555344,0.72237 -2.68305,2.04386 z m -37.28292,-1.76084 c 15.8693191,-2.05289 3.3228232,2.1374 0,0 z"
         id="path5947"
         inkscape:connector-curvature="0" />
    </g>
    <rect
       y="346.57089"
       x="730.21417"
       height="120"
       width="80"
       id="rect5230"
       style="fill:#c0c4b0;fill-opacity:1;stroke:none;stroke-opacity:1" />
    <text
       inkscape:transform-center-y="-42.035325"
       inkscape:transform-center-x="3.1925246"
       xml:space="preserve"
       style="font-style:normal;font-weight:normal;font-size:65.18255615px;line-height:125%;font-family:sans-serif;letter-spacing:0px;word-spacing:0px;opacity:1;fill:#3fb0ac;fill-opacity:1;stroke:none;stroke-width:1px;stroke-linecap:butt;stroke-linejoin:miter;stroke-opacity:1"
       x="739.95087"
       y="415.18561"
       id="text5234"
       sodipodi:linespacing="125%"><tspan
         sodipodi:role="line"
         id="tspan5236"
         x="739.95087"
         y="415.18561"
         style="font-style:normal;font-variant:normal;font-weight:normal;font-stretch:normal;font-family:FontAwesome;-inkscape-font-specification:FontAwesome;fill:#3fb0ac;fill-opacity:1"></tspan></text>
    <path
       inkscape:connector-curvature="0"
       id="path5268"
       d="m 731.9731,359.77889 8.9901,7.75138 -8.9901,7.75137"
       style="fill:none;fill-opacity:1;fill-rule:evenodd;stroke:#3fb0ac;stroke-width:3.72863197;stroke-linecap:round;stroke-linejoin:bevel;stroke-miterlimit:4;stroke-dasharray:none;stroke-opacity:1" />
    <g
       id="g5549"
       transform="translate(7.6564002,0)">
      <rect
         y="364.48248"
         x="522.85443"
         height="169.05107"
         width="107.42606"
         id="rect6302"
         style="fill:#3fb0ac;fill-opacity:1;stroke:none;stroke-opacity:1" />
      <text
         inkscape:transform-center-y="-56.678087"
         inkscape:transform-center-x="4.3046664"
         xml:space="preserve"
         style="font-style:normal;font-weight:normal;font-size:87.88854218px;line-height:125%;font-family:sans-serif;letter-spacing:0px;word-spacing:0px;opacity:1;fill:#ffffff;fill-opacity:1;stroke:none;stroke-width:1px;stroke-linecap:butt;stroke-linejoin:miter;stroke-opacity:1"
         x="537.56641"
         y="477.76083"
         id="text5224"
         sodipodi:linespacing="125%"><tspan
           sodipodi:role="line"
           id="tspan5226"
           x="537.56641"
           y="477.76083"
           style="font-style:normal;font-variant:normal;font-weight:normal;font-stretch:normal;font-family:FontAwesome;-inkscape-font-specification:FontAwesome;fill:#ffffff;fill-opacity:1"></tspan></text>
      <path
         inkscape:connector-curvature="0"
         id="path5264"
         d="m 524.94432,373.838 10.68158,9.20978 -10.68158,9.20978"
         style="fill:none;fill-opacity:1;fill-rule:evenodd;stroke:#ffffff;stroke-width:4.43016815;stroke-linecap:round;stroke-linejoin:bevel;stroke-miterlimit:4;stroke-dasharray:none;stroke-opacity:1" />
      <text
         xml:space="preserve"
         style="font-style:normal;font-variant:normal;font-weight:300;font-stretch:normal;font-size:29.53445435px;line-height:125%;font-family:'Open Sans';-inkscape-font-specification:'Open Sans Light';text-align:center;letter-spacing:0px;word-spacing:0px;text-anchor:middle;fill:#ffffff;fill-opacity:1;stroke:none;stroke-width:1px;stroke-linecap:butt;stroke-linejoin:miter;stroke-opacity:1"
         x="576.12238"
         y="521.46429"
         id="text6017"
         sodipodi:linespacing="125%"><tspan
           sodipodi:role="line"
           id="tspan6019"
           x="576.12238"
           y="521.46429"
           style="font-style:normal;font-variant:normal;font-weight:normal;font-stretch:normal;font-family:'Open Sans';-inkscape-font-specification:'Open Sans';text-align:center;text-anchor:middle;fill:#ffffff">share</tspan></text>
    </g>
    <g
       id="g5533"
       transform="translate(10.650929,0)">
      <rect
         y="351.99112"
         x="153.61513"
         height="120"
         width="80"
         id="rect6282"
         style="fill:#3fb0ac;fill-opacity:1;stroke:none;stroke-opacity:1" />
      <path
         style="fill:none;fill-opacity:1;fill-rule:evenodd;stroke:#ffffff;stroke-width:3.13439703;stroke-linecap:round;stroke-linejoin:bevel;stroke-miterlimit:4;stroke-dasharray:none;stroke-opacity:1"
         d="m 154.96574,363.39583 7.55734,6.51604 -7.55734,6.51602"
         id="path6284"
         inkscape:connector-curvature="0" />
      <text
         inkscape:transform-center-y="-35.336133"
         inkscape:transform-center-x="2.6837591"
         xml:space="preserve"
         style="font-style:normal;font-weight:normal;font-size:54.7943573px;line-height:125%;font-family:sans-serif;letter-spacing:0px;word-spacing:0px;opacity:1;fill:#ffffff;fill-opacity:1;stroke:none;stroke-width:1px;stroke-linecap:butt;stroke-linejoin:miter;stroke-opacity:1"
         x="166.21794"
         y="414.01328"
         id="text5216"
         sodipodi:linespacing="125%"><tspan
           sodipodi:role="line"
           id="tspan5218"
           x="166.21794"
           y="414.01328"
           style="font-style:normal;font-variant:normal;font-weight:normal;font-stretch:normal;font-family:FontAwesome;-inkscape-font-specification:FontAwesome;fill:#ffffff;fill-opacity:1"></tspan></text>
      <text
         sodipodi:linespacing="125%"
         id="text6025"
         y="453.62973"
         x="193.57118"
         style="font-style:normal;font-variant:normal;font-weight:300;font-stretch:normal;font-size:20.89597893px;line-height:125%;font-family:'Open Sans';-inkscape-font-specification:'Open Sans Light';letter-spacing:0px;word-spacing:0px;fill:#000000;fill-opacity:1;stroke:none;stroke-width:1px;stroke-linecap:butt;stroke-linejoin:miter;stroke-opacity:1"
         xml:space="preserve"><tspan
           style="font-style:normal;font-variant:normal;font-weight:normal;font-stretch:normal;font-size:20px;font-family:'Open Sans';-inkscape-font-specification:'Open Sans';text-align:center;text-anchor:middle;fill:#ffffff"
           y="453.62973"
           x="193.57118"
           id="tspan6027"
           sodipodi:role="line">engage</tspan></text>
    </g>
    <g
       id="g5541"
       transform="translate(9.7077602,0)">
      <rect
         style="fill:#c0c4b0;fill-opacity:1;stroke:none;stroke-opacity:1"
         id="rect6292"
         width="79.813835"
         height="120"
         x="344.64844"
         y="331.62338" />
      <path
         style="opacity:1;fill:none;fill-opacity:1;fill-rule:evenodd;stroke:#ffffff;stroke-width:3.47822809;stroke-linecap:round;stroke-linejoin:bevel;stroke-miterlimit:4;stroke-dasharray:none;stroke-opacity:1"
         d="m 346.17833,340.66952 8.16273,7.42891 -8.16273,7.42889"
         id="path6284-9"
         inkscape:connector-curvature="0" />
      <text
         transform="scale(0.97333547,1.027395)"
         sodipodi:linespacing="125%"
         id="text5220"
         y="391.84027"
         x="362.51611"
         style="font-style:normal;font-weight:normal;font-size:60.80508423px;line-height:125%;font-family:sans-serif;letter-spacing:0px;word-spacing:0px;opacity:1;fill:#ffffff;fill-opacity:1;stroke:none;stroke-width:1px;stroke-linecap:butt;stroke-linejoin:miter;stroke-opacity:1"
         xml:space="preserve"
         inkscape:transform-center-x="5.1373628"
         inkscape:transform-center-y="-67.641949"><tspan
           style="font-style:normal;font-variant:normal;font-weight:normal;font-stretch:normal;font-family:FontAwesome;-inkscape-font-specification:FontAwesome;fill:#ffffff;fill-opacity:1"
           y="391.84027"
           x="362.51611"
           id="tspan5222"
           sodipodi:role="line"></tspan></text>
      <text
         xml:space="preserve"
         style="font-style:normal;font-variant:normal;font-weight:300;font-stretch:normal;font-size:20.89597893px;line-height:125%;font-family:'Open Sans';-inkscape-font-specification:'Open Sans Light';letter-spacing:0px;word-spacing:0px;fill:#000000;fill-opacity:1;stroke:none;stroke-width:1px;stroke-linecap:butt;stroke-linejoin:miter;stroke-opacity:1"
         x="384.51141"
         y="437.36627"
         id="text5491"
         sodipodi:linespacing="125%"><tspan
           sodipodi:role="line"
           id="tspan5493"
           x="384.51141"
           y="437.36627"
           style="font-style:normal;font-variant:normal;font-weight:normal;font-stretch:normal;font-size:20px;font-family:'Open Sans';-inkscape-font-specification:'Open Sans';text-align:center;text-anchor:middle;fill:#ffffff">create</tspan></text>
    </g>
    <text
       sodipodi:linespacing="125%"
       id="text6029"
       y="527.54376"
       x="160.78003"
       style="font-style:normal;font-variant:normal;font-weight:300;font-stretch:normal;font-size:18.58573532px;line-height:125%;font-family:'Open Sans';-inkscape-font-specification:'Open Sans Light';letter-spacing:0px;word-spacing:0px;fill:#a6ab8e;fill-opacity:1;stroke:none;stroke-width:1px;stroke-linecap:butt;stroke-linejoin:miter;stroke-opacity:1"
       xml:space="preserve"><tspan
         style="font-style:normal;font-variant:normal;font-weight:600;font-stretch:normal;font-family:'Open Sans';-inkscape-font-specification:'Open Sans Semi-Bold';text-align:center;text-anchor:middle;fill:#a6ab8e;fill-opacity:1"
         y="527.54376"
         x="160.78003"
         id="tspan6031"
         sodipodi:role="line" /></text>
    <rect
       style="opacity:0.778;fill:#173e43;fill-opacity:1;stroke:none;stroke-width:1.58133245;stroke-miterlimit:4;stroke-dasharray:none;stroke-opacity:1"
       id="rect6089"
       width="1470.2008"
       height="257.00754"
       x="-140.12054"
       y="55.823532" />
    <rect
       style="opacity:1;fill:#f2f2f2;fill-opacity:1;stroke:#999999;stroke-width:1.66524863;stroke-linecap:square;stroke-linejoin:bevel;stroke-miterlimit:4;stroke-dasharray:none;stroke-opacity:1"
       id="rect6049"
       width="421.32971"
       height="42.751003"
       x="263.99258"
       y="227.15488" />
    <text
       xml:space="preserve"
       style="font-style:normal;font-variant:normal;font-weight:normal;font-stretch:normal;font-size:23.46001625px;line-height:125%;font-family:'Open Sans';-inkscape-font-specification:'Open Sans';letter-spacing:0px;word-spacing:0px;fill:#000000;fill-opacity:1;stroke:none;stroke-width:1px;stroke-linecap:butt;stroke-linejoin:miter;stroke-opacity:1"
       x="274.11145"
       y="256.82474"
       id="text6051"
       sodipodi:linespacing="125%"><tspan
         sodipodi:role="line"
         id="tspan6053"
         x="274.11145"
         y="256.82474"
         style="font-style:italic;font-variant:normal;font-weight:normal;font-stretch:normal;font-family:'Open Sans';-inkscape-font-specification:'Open Sans Italic';fill:#808080">What IP is missing in your project?</tspan></text>
    <flowRoot
       xml:space="preserve"
       id="flowRoot6055"
       style="fill:black;stroke:none;stroke-opacity:1;stroke-width:1px;stroke-linejoin:miter;stroke-linecap:butt;fill-opacity:1;font-family:sans-serif;font-style:normal;font-weight:normal;font-size:40px;line-height:125%;letter-spacing:0px;word-spacing:0px"><flowRegion
         id="flowRegion6057"><rect
           id="rect6059"
           width="408.10162"
           height="78.791901"
           x="734.38092"
           y="509.09137" /></flowRegion><flowPara
         id="flowPara6061" /></flowRoot>    <rect
       style="opacity:1;fill:#e62739;fill-opacity:1;stroke:#b71625;stroke-width:1.2731508;stroke-linecap:square;stroke-linejoin:bevel;stroke-miterlimit:4;stroke-dasharray:none;stroke-opacity:1"
       id="rect6063"
       width="142.97031"
       height="39.102493"
       x="727.4566"
       y="230.99945" />
    <text
       xml:space="preserve"
       style="font-style:normal;font-variant:normal;font-weight:normal;font-stretch:normal;font-size:22.84975433px;line-height:125%;font-family:'Open Sans';-inkscape-font-specification:'Open Sans';letter-spacing:0px;word-spacing:0px;fill:#ffffff;fill-opacity:1;stroke:none;stroke-width:1px;stroke-linecap:butt;stroke-linejoin:miter;stroke-opacity:1"
       x="762.87653"
       y="257.76373"
       id="text6065"
       sodipodi:linespacing="125%"><tspan
         sodipodi:role="line"
         id="tspan6067"
         x="762.87653"
         y="257.76373">Find IP</tspan></text>
    <text
       xml:space="preserve"
       style="font-style:normal;font-weight:normal;font-size:29.86857796px;line-height:125%;font-family:sans-serif;letter-spacing:0px;word-spacing:0px;opacity:1;fill:#3fb0ac;fill-opacity:1;stroke:none;stroke-width:1px;stroke-linecap:butt;stroke-linejoin:miter;stroke-opacity:1"
       x="159.31102"
       y="160.40439"
       id="text6310"
       sodipodi:linespacing="125%"><tspan
         sodipodi:role="line"
         id="tspan6312"
         x="159.31102"
         y="160.40439"
         style="font-style:normal;font-variant:normal;font-weight:normal;font-stretch:normal;font-size:51.33662033px;font-family:'Open Sans';-inkscape-font-specification:'Open Sans';fill:#3fb0ac;fill-opacity:1">LibreCores</tspan></text>
    <text
       xml:space="preserve"
       style="font-style:normal;font-weight:normal;font-size:29.86857796px;line-height:125%;font-family:sans-serif;letter-spacing:0px;word-spacing:0px;fill:#c0c4b0;fill-opacity:1;stroke:none;stroke-width:1px;stroke-linecap:butt;stroke-linejoin:miter;stroke-opacity:1"
       x="463.95547"
       y="158.8958"
       id="text5274"
       sodipodi:linespacing="125%"><tspan
         sodipodi:role="line"
         id="tspan5276"
         x="463.95547"
         y="158.8958"
         style="font-style:normal;font-variant:normal;font-weight:normal;font-stretch:normal;font-family:'Open Sans';-inkscape-font-specification:'Open Sans';fill:#c0c4b0;fill-opacity:1">We drive Free and Open Digital Hardware</tspan></text>
    <flowRoot
       transform="translate(-27.14214,55.373078)"
       style="font-style:normal;font-weight:normal;font-size:40px;line-height:125%;font-family:sans-serif;letter-spacing:0px;word-spacing:0px;fill:#173e43;fill-opacity:1;stroke:none;stroke-width:1px;stroke-linecap:butt;stroke-linejoin:miter;stroke-opacity:1"
       id="flowRoot5249"
       xml:space="preserve"><flowRegion
         id="flowRegion5251"><rect
           style="fill:#173e43;fill-opacity:1"
           y="502.52539"
           x="157.07872"
           height="280.31738"
           width="144.45181"
           id="rect5253" /></flowRegion><flowPara
         id="flowPara5259"
         style="font-style:normal;font-variant:normal;font-weight:normal;font-stretch:normal;font-size:15px;font-family:'Open Sans';-inkscape-font-specification:'Open Sans';fill:#173e43;fill-opacity:1">You're not alone. Meet other developers, engage and tackle your challenges together.</flowPara><flowPara
         style="font-style:normal;font-variant:normal;font-weight:normal;font-stretch:normal;font-size:15px;font-family:'Open Sans';-inkscape-font-specification:'Open Sans';fill:#173e43;fill-opacity:1"
         id="flowPara5261" /><flowPara
         style="font-style:normal;font-variant:normal;font-weight:normal;font-stretch:normal;font-size:15px;font-family:'Open Sans';-inkscape-font-specification:'Open Sans';fill:#173e43;fill-opacity:1"
         id="flowPara5263">Join our discussion mailing list today!</flowPara></flowRoot>    <flowRoot
       xml:space="preserve"
       id="flowRoot5269"
       style="font-style:normal;font-weight:normal;font-size:40px;line-height:125%;font-family:sans-serif;letter-spacing:0px;word-spacing:0px;fill:#173e43;fill-opacity:1;stroke:none;stroke-width:1px;stroke-linecap:butt;stroke-linejoin:miter;stroke-opacity:1"
       transform="translate(349.74578,46.180689)"><flowRegion
         id="flowRegion5271"><rect
           id="rect5273"
           width="147.28026"
           height="286.6813"
           x="157.07872"
           y="502.52539"
           style="fill:#173e43;fill-opacity:1" /></flowRegion><flowPara
         style="font-style:normal;font-variant:normal;font-weight:normal;font-stretch:normal;font-size:15px;font-family:'Open Sans';-inkscape-font-specification:'Open Sans';fill:#173e43;fill-opacity:1"
         id="flowPara5432">LibreCores centers on sharing. Share your IP cores. Share your knowledge. Tell others where you failed, and how to succeed.</flowPara></flowRoot>    <flowRoot
       transform="translate(541.37172,5.8756031)"
       style="font-style:normal;font-weight:normal;font-size:40px;line-height:125%;font-family:sans-serif;letter-spacing:0px;word-spacing:0px;fill:#173e43;fill-opacity:1;stroke:none;stroke-width:1px;stroke-linecap:butt;stroke-linejoin:miter;stroke-opacity:1"
       id="flowRoot5292"
       xml:space="preserve"><flowRegion
         id="flowRegion5294"><rect
           style="fill:#173e43;fill-opacity:1"
           y="502.52539"
           x="157.07872"
           height="286.6813"
           width="147.28026"
           id="rect5296" /></flowRegion><flowPara
         id="flowPara5298"
         style="font-style:normal;font-variant:normal;font-weight:normal;font-stretch:normal;font-size:15px;font-family:'Open Sans';-inkscape-font-specification:'Open Sans';fill:#173e43;fill-opacity:1">Implement your ideas faster: build on a great stack of existing work!</flowPara><flowPara
         style="font-style:normal;font-variant:normal;font-weight:normal;font-stretch:normal;font-size:15px;font-family:'Open Sans';-inkscape-font-specification:'Open Sans';fill:#173e43;fill-opacity:1"
         id="flowPara5436" /><flowPara
         style="font-style:normal;font-variant:normal;font-weight:normal;font-stretch:normal;font-size:15px;font-family:'Open Sans';-inkscape-font-specification:'Open Sans';fill:#173e43;fill-opacity:1"
         id="flowPara5438">The LibreCores Project Repository lists IP cores and related projects. </flowPara></flowRoot>    <flowRoot
       transform="translate(166.60512,18.603525)"
       style="font-style:normal;font-weight:normal;font-size:40px;line-height:125%;font-family:sans-serif;letter-spacing:0px;word-spacing:0px;fill:#173e43;fill-opacity:1;stroke:none;stroke-width:1px;stroke-linecap:butt;stroke-linejoin:miter;stroke-opacity:1"
       id="flowRoot5310"
       xml:space="preserve"><flowRegion
         id="flowRegion5312"><rect
           style="fill:#173e43;fill-opacity:1"
           y="502.52539"
           x="157.07872"
           height="286.6813"
           width="147.28026"
           id="rect5314" /></flowRegion><flowPara
         id="flowPara5316"
         style="font-style:normal;font-variant:normal;font-weight:normal;font-stretch:normal;font-size:15px;font-family:'Open Sans';-inkscape-font-specification:'Open Sans';fill:#173e43;fill-opacity:1"><flowSpan
   id="flowSpan5318"
   style="font-size:20px">LibreCores is all about sharing. </flowSpan>Share your digital hardware designs. Share your knowledge.  </flowPara></flowRoot>    <path
       style="opacity:1;fill:none;fill-rule:evenodd;stroke:#c0c4b0;stroke-width:6;stroke-linecap:round;stroke-linejoin:bevel;stroke-miterlimit:4;stroke-dasharray:none;stroke-opacity:1"
       d="m -124.21097,405.96192 0,134.02122 29.999999,0"
       id="path5890"
       inkscape:connector-curvature="0"
       sodipodi:nodetypes="ccc" />
    <flowRoot
       xml:space="preserve"
       id="flowRoot5194"
       style="font-style:normal;font-weight:normal;font-size:40px;line-height:125%;font-family:sans-serif;letter-spacing:0px;word-spacing:0px;fill:#173e43;fill-opacity:1;stroke:none;stroke-width:1px;stroke-linecap:butt;stroke-linejoin:miter;stroke-opacity:1"
       transform="translate(736.85794,-51.517787)"><flowRegion
         id="flowRegion5196"><rect
           id="rect5198"
           width="144.45181"
           height="280.31738"
           x="157.07872"
           y="502.52539"
           style="fill:#173e43;fill-opacity:1" /></flowRegion><flowPara
         style="font-style:normal;font-variant:normal;font-weight:normal;font-stretch:normal;font-size:15px;font-family:'Open Sans';-inkscape-font-specification:'Open Sans';fill:#173e43;fill-opacity:1"
         id="flowPara5214"><flowSpan
           style="font-size:17.5px"
           id="flowSpan5308"></flowSpan></flowPara><flowPara
         style="font-style:normal;font-variant:normal;font-weight:normal;font-stretch:normal;font-size:15px;font-family:'Open Sans';-inkscape-font-specification:'Open Sans';fill:#173e43;fill-opacity:1"
         id="flowPara5513"><flowSpan
           style="font-size:17.5px"
           id="flowSpan5515"></flowSpan></flowPara><flowPara
         style="font-style:normal;font-variant:normal;font-weight:normal;font-stretch:normal;font-size:15px;font-family:'Open Sans';-inkscape-font-specification:'Open Sans';fill:#173e43;fill-opacity:1"
         id="flowPara5517"><flowSpan
   style="font-size:17.5px"
   id="flowSpan5519">Welcome to the sometimes wicked world of digital hardware design!</flowSpan> Learn about the tools and processes to get started and go deeper.</flowPara></flowRoot>    <flowRoot
       xml:space="preserve"
       id="flowRoot5440"
       style="fill:black;stroke:none;stroke-opacity:1;stroke-width:1px;stroke-linejoin:miter;stroke-linecap:butt;fill-opacity:1;font-family:sans-serif;font-style:normal;font-weight:normal;font-size:40px;line-height:125%;letter-spacing:0px;word-spacing:0px"><flowRegion
         id="flowRegion5442"><rect
           id="rect5444"
           width="26.870058"
           height="62.932503"
           x="767.91797"
           y="623.03656" /></flowRegion><flowPara
         id="flowPara5446"></flowPara></flowRoot>    <text
       sodipodi:linespacing="125%"
       id="text5504"
       y="452.88708"
       x="769.87238"
       style="font-style:normal;font-variant:normal;font-weight:300;font-stretch:normal;font-size:20.89597893px;line-height:125%;font-family:'Open Sans';-inkscape-font-specification:'Open Sans Light';letter-spacing:0px;word-spacing:0px;fill:#000000;fill-opacity:1;stroke:none;stroke-width:1px;stroke-linecap:butt;stroke-linejoin:miter;stroke-opacity:1"
       xml:space="preserve"><tspan
         style="font-style:normal;font-variant:normal;font-weight:normal;font-stretch:normal;font-size:20px;font-family:'Open Sans';-inkscape-font-specification:'Open Sans';text-align:center;text-anchor:middle;fill:#ffffff"
         y="452.88708"
         x="769.87238"
         id="tspan5506"
         sodipodi:role="line">reuse</tspan></text>
    <g
       id="g5525"
       transform="translate(-3.847168,0)">
      <rect
         style="fill:#3fb0ac;fill-opacity:1;stroke:none;stroke-width:6;stroke-miterlimit:4;stroke-dasharray:none;stroke-opacity:1"
         id="rect6254"
         width="80"
         height="120"
         x="927.99658"
         y="365.29883" />
      <text
         sodipodi:linespacing="125%"
         id="text4136"
         y="430.3273"
         x="941.30359"
         style="font-style:normal;font-weight:normal;font-size:57.49773026px;line-height:125%;font-family:sans-serif;letter-spacing:0px;word-spacing:0px;opacity:1;fill:#ffffff;fill-opacity:1;stroke:none;stroke-width:1px;stroke-linecap:butt;stroke-linejoin:miter;stroke-opacity:1"
         xml:space="preserve"><tspan
           style="font-style:normal;font-variant:normal;font-weight:normal;font-stretch:normal;font-family:FontAwesome;-inkscape-font-specification:FontAwesome;fill:#ffffff;fill-opacity:1"
           y="430.3273"
           x="941.30359"
           id="tspan4138"
           sodipodi:role="line"></tspan></text>
      <path
         inkscape:connector-curvature="0"
         id="path5260"
         d="m 930.82015,459.57015 6.7218,5.79563 -6.7218,5.79562"
         style="opacity:1;fill:none;fill-opacity:1;fill-rule:evenodd;stroke:#a6ab8e;stroke-width:2.78786016;stroke-linecap:round;stroke-linejoin:bevel;stroke-miterlimit:4;stroke-dasharray:none;stroke-opacity:1" />
      <text
         sodipodi:linespacing="125%"
         id="text5521"
         y="470.32211"
         x="967.93799"
         style="font-style:normal;font-variant:normal;font-weight:300;font-stretch:normal;font-size:20.89597893px;line-height:125%;font-family:'Open Sans';-inkscape-font-specification:'Open Sans Light';letter-spacing:0px;word-spacing:0px;fill:#000000;fill-opacity:1;stroke:none;stroke-width:1px;stroke-linecap:butt;stroke-linejoin:miter;stroke-opacity:1"
         xml:space="preserve"><tspan
           style="font-style:normal;font-variant:normal;font-weight:normal;font-stretch:normal;font-size:20px;font-family:'Open Sans';-inkscape-font-specification:'Open Sans';text-align:center;text-anchor:middle;fill:#ffffff"
           y="470.32211"
           x="967.93799"
           id="tspan5523"
           sodipodi:role="line">learn</tspan></text>
    </g>
    <path
       style="fill:none;fill-rule:evenodd;stroke:#c0c4b0;stroke-width:3;stroke-linecap:butt;stroke-linejoin:miter;stroke-opacity:1;stroke-miterlimit:4;stroke-dasharray:none"
       d="m 509.82399,346.55781 154.85638,0 19.44544,19.44543 45.60839,0"
       id="path5569"
       inkscape:connector-curvature="0" />
    <path
       style="fill:none;fill-rule:evenodd;stroke:#c0c4b0;stroke-width:3;stroke-linecap:butt;stroke-linejoin:miter;stroke-opacity:1;stroke-miterlimit:4;stroke-dasharray:none"
       d="m 665.38748,345.8507 19.44544,-19.44543 192.6866,0 18.208,18.20799 0,104.47503 27.93978,16.13104"
       id="path5571"
       inkscape:connector-curvature="0" />
    <path
       style="fill:none;fill-rule:evenodd;stroke:#c0c4b0;stroke-width:3;stroke-linecap:butt;stroke-linejoin:miter;stroke-miterlimit:4;stroke-dasharray:none;stroke-opacity:1"
       d="m 130.81475,333.82989 196.57569,0 13.78858,13.78858 12.37437,0"
       id="path5577"
       inkscape:connector-curvature="0" />
    <path
       style="fill:none;fill-rule:evenodd;stroke:#c0c4b0;stroke-width:3;stroke-linecap:butt;stroke-linejoin:miter;stroke-miterlimit:4;stroke-dasharray:none;stroke-opacity:1"
       d="m 327.39044,332.41567 13.43503,-13.43503 135.05739,0 26.87006,26.87006"
       id="path5579"
       inkscape:connector-curvature="0" />
    <path
       style="fill:none;fill-rule:evenodd;stroke:#c0c4b0;stroke-width:3;stroke-linecap:butt;stroke-linejoin:miter;stroke-miterlimit:4;stroke-dasharray:none;stroke-opacity:1"
       d="m 503.46003,346.55781 0,21.2132 13.43503,13.43503 14.14213,0"
       id="path5583"
       inkscape:connector-curvature="0" />
    <path
       style="fill:none;fill-rule:evenodd;stroke:#c0c4b0;stroke-width:3;stroke-linecap:butt;stroke-linejoin:miter;stroke-miterlimit:4;stroke-dasharray:none;stroke-opacity:1"
       d="m 637.81032,442.72433 59.39697,0 19.09188,-19.09188 14.14214,0"
       id="path5585"
       inkscape:connector-curvature="0" />
    <path
       style="fill:none;fill-rule:evenodd;stroke:#c0c4b0;stroke-width:3;stroke-linecap:butt;stroke-linejoin:miter;stroke-miterlimit:4;stroke-dasharray:none;stroke-opacity:1"
       d="m 1004.7987,422.21823 32.5269,0"
       id="path5591"
       inkscape:connector-curvature="0"
       sodipodi:nodetypes="cc" />
    <path
       style="fill:none;fill-rule:evenodd;stroke:#c0c4b0;stroke-width:3;stroke-linecap:butt;stroke-linejoin:miter;stroke-miterlimit:4;stroke-dasharray:none;stroke-opacity:1"
       d="m 243.95184,416.56138 18.38478,0 23.68807,-23.68808 67.5287,0 0,1.06066"
       id="path5593"
       inkscape:connector-curvature="0" />
    <path
       style="fill:none;fill-rule:evenodd;stroke:#c0c4b0;stroke-width:3;stroke-linecap:butt;stroke-linejoin:miter;stroke-miterlimit:4;stroke-dasharray:none;stroke-opacity:1"
       d="m 434.87067,391.81264 30.40559,30.40559 0,41.0122 14.49569,14.49569 49.14392,0"
       id="path5601"
       inkscape:connector-curvature="0" />
    <path
       style="fill:none;fill-rule:evenodd;stroke:#c0c4b0;stroke-width:3;stroke-linecap:butt;stroke-linejoin:miter;stroke-miterlimit:4;stroke-dasharray:none;stroke-opacity:1"
       d="m 810.34437,408.78321 115.25841,0 0,0.7071"
       id="path5603"
       inkscape:connector-curvature="0" />
    <path
       style="fill:none;fill-rule:evenodd;stroke:#c0c4b0;stroke-width:3;stroke-linecap:butt;stroke-linejoin:miter;stroke-opacity:1;stroke-miterlimit:4;stroke-dasharray:none"
       d="m 164,369.49998 -14.5,0 -12.75,-12.75 0,-22"
       id="path5623"
       inkscape:connector-curvature="0" />
  </g>
</svg>
