<?xml version="1.0" encoding="UTF-8" standalone="no"?>
<!-- Created with Inkscape (http://www.inkscape.org/) -->

<svg
   xmlns:dc="http://purl.org/dc/elements/1.1/"
   xmlns:cc="http://creativecommons.org/ns#"
   xmlns:rdf="http://www.w3.org/1999/02/22-rdf-syntax-ns#"
   xmlns:svg="http://www.w3.org/2000/svg"
   xmlns="http://www.w3.org/2000/svg"
   xmlns:sodipodi="http://sodipodi.sourceforge.net/DTD/sodipodi-0.dtd"
   xmlns:inkscape="http://www.inkscape.org/namespaces/inkscape"
   width="195.00037"
   height="150"
   viewBox="0 0 195.00038 150"
   id="svg5889"
   version="1.1"
   inkscape:version="0.91 r13725"
   sodipodi:docname="home-cat-1.svg">
  <defs
     id="defs5891" />
  <sodipodi:namedview
     id="base"
     pagecolor="#ffffff"
     bordercolor="#666666"
     borderopacity="1.0"
     inkscape:pageopacity="0.0"
     inkscape:pageshadow="2"
     inkscape:zoom="5.6"
     inkscape:cx="101.49828"
     inkscape:cy="71.292425"
     inkscape:document-units="px"
     inkscape:current-layer="layer1"
     showgrid="true"
     units="px"
     fit-margin-top="0"
     fit-margin-left="0"
     fit-margin-right="0"
     fit-margin-bottom="0"
     inkscape:window-width="2560"
     inkscape:window-height="1358"
     inkscape:window-x="0"
     inkscape:window-y="0"
     inkscape:window-maximized="1"
     inkscape:snap-bbox="true"
     inkscape:bbox-paths="true"
     inkscape:object-nodes="true">
    <inkscape:grid
       type="xygrid"
       id="grid9234" />
  </sodipodi:namedview>
  <metadata
     id="metadata5894">
    <rdf:RDF>
      <cc:Work
         rdf:about="">
        <dc:format>image/svg+xml</dc:format>
        <dc:type
           rdf:resource="http://purl.org/dc/dcmitype/StillImage" />
        <dc:title />
      </cc:Work>
    </rdf:RDF>
  </metadata>
  <g
     inkscape:label="Ebene 1"
     inkscape:groupmode="layer"
     id="layer1"
     transform="translate(-176.78554,-361.64796)">
    <rect
       y="361.64798"
       x="176.78554"
       height="150.00002"
       width="195"
       id="rect4218"
       style="opacity:1;fill:#dddfd4;fill-opacity:1;stroke:none;stroke-width:0;stroke-miterlimit:4;stroke-dasharray:none;stroke-opacity:1" />
    <rect
       style="fill:#3fb0ac;fill-opacity:1;stroke:none;stroke-opacity:1"
       id="rect6282-7"
       width="80"
       height="100.30202"
       x="235.61476"
       y="400.1055" />
    <path
       inkscape:connector-curvature="0"
       id="path6284-96"
       d="m 236.96538,411.51021 7.55734,6.51604 -7.55734,6.51602"
       style="fill:none;fill-opacity:1;fill-rule:evenodd;stroke:#ffffff;stroke-width:3.13439703;stroke-linecap:round;stroke-linejoin:bevel;stroke-miterlimit:4;stroke-dasharray:none;stroke-opacity:1" />
    <g
       inkscape:transform-center-x="2.6837591"
       inkscape:transform-center-y="-35.336133"
       style="font-style:normal;font-weight:normal;font-size:54.7943573px;line-height:125%;font-family:sans-serif;letter-spacing:0px;word-spacing:0px;opacity:1;fill:#ffffff;fill-opacity:1;stroke:none;stroke-width:1px;stroke-linecap:butt;stroke-linejoin:miter;stroke-opacity:1"
       id="text5216-0">
      <path
         d="m 275.61475,430.94333 c 12.72012,0 23.4833,7.15507 23.4833,15.65553 0,8.50046 -10.76318,15.65553 -23.4833,15.65553 -1.31482,0 -2.66021,-0.0917 -3.97503,-0.24462 l -1.7429,-0.18346 -1.31482,1.16193 c -2.50734,2.20156 -5.32044,3.94446 -8.40874,5.22871 0.79501,-1.40655 1.55944,-3.0883 2.14041,-5.25928 l 0.82558,-2.93541 -2.66021,-1.52887 c -5.28986,-2.99656 -8.34758,-7.33853 -8.34758,-11.89453 0,-8.50046 10.76318,-15.65553 23.48329,-15.65553 z m 27.39718,15.65553 c 0,-10.82433 -12.26146,-19.56941 -27.39718,-19.56941 -15.13571,0 -27.39717,8.74508 -27.39717,19.56941 0,6.20717 4.03619,11.74165 10.33509,15.31918 -1.43713,5.1064 -3.63869,6.94103 -5.56505,9.11201 -0.45866,0.55039 -0.97847,1.00905 -0.82559,1.77348 0,0 0,0 0,0.0306 0.15289,0.67269 0.70328,1.16193 1.31482,1.16193 0.0306,0 0.0917,0 0.15289,0 1.19251,-0.15289 2.38502,-0.36693 3.4858,-0.6727 5.28986,-1.3454 10.0599,-3.85273 14.06552,-7.39968 1.43713,0.15288 2.93541,0.24461 4.43369,0.24461 15.13572,0 27.39718,-8.74508 27.39718,-19.56941 z"
         style="font-style:normal;font-variant:normal;font-weight:normal;font-stretch:normal;font-family:FontAwesome;-inkscape-font-specification:FontAwesome;fill:#ffffff;fill-opacity:1"
         id="path4223" />
    </g>
    <path
       inkscape:connector-curvature="0"
       style="fill:none;fill-rule:evenodd;stroke:#c0c4b0;stroke-width:3;stroke-linecap:butt;stroke-linejoin:miter;stroke-miterlimit:4;stroke-dasharray:none;stroke-opacity:1"
       d="m 202.16354,381.94427 169.62238,0"
       id="path5577" />
    <path
       inkscape:connector-curvature="0"
       style="fill:none;fill-rule:evenodd;stroke:#c0c4b0;stroke-width:3;stroke-linecap:butt;stroke-linejoin:miter;stroke-miterlimit:4;stroke-dasharray:none;stroke-opacity:1"
       d="m 315.30058,464.67576 18.38478,0 23.68807,-23.68808 14.41198,0"
       id="path5593" />
    <path
       style="fill:none;fill-rule:evenodd;stroke:#c0c4b0;stroke-width:3;stroke-linecap:butt;stroke-linejoin:miter;stroke-miterlimit:4;stroke-dasharray:none;stroke-opacity:1"
       d="m 235.34866,417.61437 -14.5,0 -12.75,-12.75 0,-22"
       id="path5623"
       inkscape:connector-curvature="0" />
    <circle
       style="fill:#dddfd4;fill-opacity:1;stroke:#c0c4b0;stroke-width:3.3280139;stroke-miterlimit:4;stroke-dasharray:none;stroke-opacity:1"
       id="circle4280"
       inkscape:export-filename="/home/philipp/workspace/librecores/web/img/logo_small.png"
       inkscape:export-xdpi="28.965515"
       inkscape:export-ydpi="28.965515"
       cx="207.04683"
       cy="382.07846"
       r="18.991579" />
    <rect
       transform="matrix(0.99999659,-0.00261225,-0.33984645,0.94048094,0,0)"
       y="411.43387"
       x="334.38525"
       height="6.0051012"
       width="5.6530757"
       id="rect4282"
       style="fill:#c0c4b0;fill-opacity:1;stroke:none" />
    <rect
       transform="matrix(0.999932,-0.01166134,-0.33224608,0.94319274,0,0)"
       style="fill:#c0c4b0;fill-opacity:1;stroke:none"
       id="rect4284"
       width="5.671772"
       height="5.9874463"
       x="339.00592"
       y="413.54269" />
    <rect
       transform="matrix(0.99982397,-0.01876248,-0.32619872,0.94530122,0,0)"
       y="407.54361"
       x="330.06506"
       height="5.973434"
       width="5.6865282"
       id="rect4286"
       style="fill:#c0c4b0;fill-opacity:1;stroke:none" />
    <rect
       transform="matrix(0.99996514,-0.00834998,-0.33504093,0.94220357,0,0)"
       style="fill:#c0c4b0;fill-opacity:1;stroke:none"
       id="rect4288"
       width="5.664916"
       height="5.9939322"
       x="332.94669"
       y="397.73666" />
    <rect
       transform="matrix(1,0,-0.34201883,0.9396931,0,0)"
       style="fill:#c0c4b0;fill-opacity:1;stroke:none"
       id="rect4290"
       width="5.6477027"
       height="6.0101566"
       x="349.62576"
       y="395.74722" />
    <rect
       transform="matrix(1,0,-0.34201883,0.9396931,0,0)"
       style="fill:#c0c4b0;fill-opacity:1;stroke:none"
       id="rect4292"
       width="5.6477027"
       height="6.0101566"
       x="349.62579"
       y="403.25995" />
    <rect
       transform="matrix(1,0,-0.34201883,0.9396931,0,0)"
       y="410.77267"
       x="349.62576"
       height="6.0101566"
       width="5.6477027"
       id="rect4294"
       style="fill:#c0c4b0;fill-opacity:1;stroke:none" />
    <rect
       transform="matrix(1,0,-0.34201883,0.9396931,0,0)"
       style="fill:#c0c4b0;fill-opacity:1;stroke:none"
       id="rect4296"
       width="5.6477027"
       height="6.0101566"
       x="356.68542"
       y="410.77267" />
    <rect
       y="395.74722"
       x="356.56412"
       height="6.0101566"
       width="5.6477027"
       id="rect4298"
       style="fill:#c0c4b0;fill-opacity:1;stroke:none"
       transform="matrix(1,0,-0.34201883,0.9396931,0,0)" />
  </g>
</svg>
