<?xml version="1.0" encoding="UTF-8" standalone="no"?>
<!-- Generator: Adobe Illustrator 16.0.0, SVG Export Plug-In . SVG Version: 6.00 Build 0)  -->

<svg
   xmlns:dc="http://purl.org/dc/elements/1.1/"
   xmlns:cc="http://creativecommons.org/ns#"
   xmlns:rdf="http://www.w3.org/1999/02/22-rdf-syntax-ns#"
   xmlns:svg="http://www.w3.org/2000/svg"
   xmlns="http://www.w3.org/2000/svg"
   xmlns:sodipodi="http://sodipodi.sourceforge.net/DTD/sodipodi-0.dtd"
   xmlns:inkscape="http://www.inkscape.org/namespaces/inkscape"
   version="1.1"
   id="Capa_1"
   x="0px"
   y="0px"
   width="128px"
   height="128px"
   viewBox="0 0 190.669 190.669"
   style="enable-background:new 0 0 190.669 190.669;"
   xml:space="preserve"
   inkscape:version="0.91 r13725"
   sodipodi:docname="certificate-of-education-hand-drawn.svg"
   inkscape:export-filename="/opt/librecores/site/web/img/freepik/certificate-of-education-hand-drawn.png"
   inkscape:export-xdpi="150"
   inkscape:export-ydpi="150"><metadata
     id="metadata59"><rdf:RDF><cc:Work
         rdf:about=""><dc:format>image/svg+xml</dc:format><dc:type
           rdf:resource="http://purl.org/dc/dcmitype/StillImage" /></cc:Work></rdf:RDF></metadata><defs
     id="defs57" /><sodipodi:namedview
     pagecolor="#ffffff"
     bordercolor="#666666"
     borderopacity="1"
     objecttolerance="10"
     gridtolerance="10"
     guidetolerance="10"
     inkscape:pageopacity="0"
     inkscape:pageshadow="2"
     inkscape:window-width="1920"
     inkscape:window-height="1031"
     id="namedview55"
     showgrid="false"
     inkscape:zoom="1.84375"
     inkscape:cx="1.3559322"
     inkscape:cy="64"
     inkscape:window-x="0"
     inkscape:window-y="25"
     inkscape:window-maximized="1"
     inkscape:current-layer="Capa_1" /><g
     id="g3"><g
       id="g5"><path
         d="M166.436,103.479c-1.327-33.239-1.86-66.583-1.86-99.847c0-1.724-1.365-2.861-2.988-2.988    c-19.972-1.556-39.967,0.223-59.962,0.033c-17.837-0.169-35.66-0.644-53.504-0.633c-0.607,0-1.107,0.161-1.524,0.411    c-1.168-0.058-2.405,0.484-2.947,1.84c-4.5,11.268-5.873,23.456-10.291,34.751c-3.555,9.089-8.123,17.739-9.755,27.355    c-0.519,0.327-1.014,0.682-1.538,1.003c-2.62,1.606-1.039,5.31,1.389,5.353c-0.149,22.05-0.718,44.101-0.556,66.151    c0.081,11.002-1.063,21.949-0.677,32.959c0.151,4.314,0.067,14.758,4.892,17.19c4.984,2.512,12.725,1.341,18.091,1.766    c13.551,1.073,26.995,1.878,40.595,1.845c26.079-0.062,52.107-2.151,78.189-2.215c1.271-0.003,2.501-0.884,2.812-2.141    C173.553,159.063,167.536,131.02,166.436,103.479z M39.863,36.166c3.601-9.385,4.823-19.485,7.972-29.025    c8.24,4.933,16.284,10.111,24.213,15.526C59.004,36.026,45.79,49.043,30.561,59.773C32.935,51.685,36.848,44.023,39.863,36.166z     M161.629,182.648c-21.896,0.188-43.751,1.589-65.635,2.176c-21.197,0.569-42.137-2.245-63.247-2.144    c-9.474,0.045-3.813-47.083-3.736-54.626c0.202-19.661,0.597-39.323,0.535-58.985c-0.002-0.589-0.175-1.056-0.411-1.465    C47.565,55.5,63.046,40.116,78.295,24.202c1.297-1.354,0.925-3.339-0.561-4.35c-7.356-5.01-14.711-9.982-22.685-13.82    c14.502,0.023,29.006,0.112,43.5,0.623c20.037,0.706,40.039-1.411,60.066-0.199c0.096,30.501,1.684,60.939,1.819,91.432    C160.562,126.064,167.787,154.724,161.629,182.648z"
         fill="#5a6a80"
         id="path7" /><path
         d="M152.098,163.809c-4.187-4.002-9.195-6.811-14.123-9.771c5.603-4.375,10.269-9.217,11.881-16.391    c1.718-7.641-1.713-16.261-6.5-22.072c-9.822-11.925-28.606-6.475-35.218,5.759c-4.894,9.058-0.8,20.014,5.673,27.273    c-3.204,6.742-3.566,14.121-5.792,21.221c-0.901,2.878,3.344,4.603,4.812,2.029c1.887-3.304,3.541-1.117,5.078,1.189    c1.404,2.107,4.854,1.383,4.863-1.318c0.022-5.633,0.118-11.332-0.437-16.95c1.923,0.79,3.978,1.324,5.958,1.479    c0.011,0.088,0,0.169,0.028,0.262c1.975,6.339,6.114,11.464,9.349,17.157c1.248,2.195,5.215,1.368,4.97-1.347    c-0.133-1.479,0.248-2.92,0.628-4.367c2.067,0.099,4.137,0.085,6.19,0.379C151.933,168.693,154.261,165.876,152.098,163.809z     M120.454,146.745c-5.136-4.268-8.439-10.848-8.33-17.529c0.181-11.083,14.124-17.062,23.128-12.543    c5.904,2.964,8.343,10.273,8.89,16.399c0.563,6.304-3.725,11.184-8.293,14.923c-0.1,0.033-0.201,0.058-0.3,0.111    C129.825,151.255,125.743,151.142,120.454,146.745z"
         fill="#5a6a80"
         id="path9" /><path
         d="M142.437,22.846c-7.72-1.821-16.638-0.414-24.516-0.176c-10.639,0.322-21.379,0.367-31.978,1.373    c-3.086,0.293-3.1,4.531,0,4.805c9.623,0.852,19.399,0.375,29.042,0.082c8.83-0.268,18.853,0.811,27.451-1.287    C144.806,27.066,144.829,23.41,142.437,22.846z"
         fill="#5a6a80"
         id="path11" /><path
         d="M144.325,41.454c0.544-7.696-57.686-1.748-64.942-0.222c-2.412,0.507-1.716,4.009,0.558,4.12    c11.106,0.543,22.517-0.416,33.62-0.845c6.521-0.252,13.043-0.435,19.567-0.514c2.096-0.025,4.193-0.014,6.287,0.084    c1.025,0.048,3.943,0.615,1.684-0.166C142.763,44.488,144.215,43.003,144.325,41.454z"
         fill="#5a6a80"
         id="path13" /><path
         d="M116.157,58.009c-11.679,0.1-27.829-1.206-38.765,3.753c-1.879,0.852-0.793,3.551,0.981,3.624    c10.108,0.417,20.485-0.852,30.603-1.12c6.225-0.164,12.45-0.15,18.672,0.093c3.165,0.124,8.352-0.08,11.009,1.561    c1.571,0.971,4.123-0.261,3.927-2.254C141.788,55.547,121.215,57.965,116.157,58.009z"
         fill="#5a6a80"
         id="path15" /><path
         d="M146,84.011c-1.688-7.931-26.172-6.045-31.83-6.281c-21.91-0.916-43.578,3.755-65.448,1.874    c-2.372-0.204-2.766,3.485-0.551,4.072c19.867,5.267,40.298-1.448,60.383-0.034c11.677,0.823,22.946,0.77,34.356,3.46    C144.839,87.557,146.403,85.907,146,84.011z"
         fill="#5a6a80"
         id="path17" /><path
         d="M147.141,97.835c-1.397-3.6-5.505-3.529-8.836-3.818c-7.944-0.69-16.051-0.289-24.009-0.045    c-22.144,0.68-44.07,1.511-66.175,3.322c-2.299,0.189-2.319,3.43,0,3.587c20.18,1.36,40.924-0.163,61.138-0.714    c11.506-0.312,23.488-1.386,34.866,0.685C145.762,101.148,147.882,99.743,147.141,97.835z"
         fill="#5a6a80"
         id="path19" /><path
         d="M96.806,110.416c-0.916-5.393-16.116-3.358-19.494-3.347c-8.9,0.032-20.94-1.114-29.314,2.504    c-0.579,0.25-1.053,1.107-0.991,1.728c0.034,0.34,0.076,0.587,0.222,0.898c0.017,0.037,0.034,0.073,0.051,0.11    c0.293,0.628,1.071,0.981,1.727,0.991c8.273,0.109,16.571-0.444,24.854-0.39c4.69,0.031,9.379,0.091,14.065,0.319    c1.399,0.068,2.795,0.181,4.187,0.332c0.642,0.07,3.925,0.417,1.557-0.011C95.686,113.916,97.145,112.413,96.806,110.416z"
         fill="#5a6a80"
         id="path21" /><path
         d="M92.621,126.658c-2.536-0.927-6.459,0.037-9.158-0.038c-5.804-0.161-11.614-0.651-17.407-1.038    c-4.863-0.323-14.299-2.375-17.929,1.727c-0.731,0.826,0.355,1.863,1.19,1.189c-0.837,0.676,4.35,0.951,5.574,1.076    c5.54,0.564,11.062,1.355,16.597,1.979c4.884,0.551,19.305,4.133,22.65-1.169C95.07,128.906,94.1,127.199,92.621,126.658z"
         fill="#5a6a80"
         id="path23" /></g></g><g
     id="g25" /><g
     id="g27" /><g
     id="g29" /><g
     id="g31" /><g
     id="g33" /><g
     id="g35" /><g
     id="g37" /><g
     id="g39" /><g
     id="g41" /><g
     id="g43" /><g
     id="g45" /><g
     id="g47" /><g
     id="g49" /><g
     id="g51" /><g
     id="g53" /></svg>