<?xml version="1.0" encoding="UTF-8" standalone="no"?>
<!-- Generator: Adobe Illustrator 16.0.0, SVG Export Plug-In . SVG Version: 6.00 Build 0)  -->

<svg
   xmlns:dc="http://purl.org/dc/elements/1.1/"
   xmlns:cc="http://creativecommons.org/ns#"
   xmlns:rdf="http://www.w3.org/1999/02/22-rdf-syntax-ns#"
   xmlns:svg="http://www.w3.org/2000/svg"
   xmlns="http://www.w3.org/2000/svg"
   xmlns:sodipodi="http://sodipodi.sourceforge.net/DTD/sodipodi-0.dtd"
   xmlns:inkscape="http://www.inkscape.org/namespaces/inkscape"
   version="1.1"
   id="Capa_1"
   x="0px"
   y="0px"
   width="128px"
   height="128px"
   viewBox="0 0 190.287 190.287"
   style="enable-background:new 0 0 190.287 190.287;"
   xml:space="preserve"
   inkscape:version="0.91 r13725"
   sodipodi:docname="clipboard-sketch.svg"
   inkscape:export-filename="/opt/librecores/site/web/img/freepik/clipboard-sketch.png"
   inkscape:export-xdpi="150"
   inkscape:export-ydpi="150"><metadata
     id="metadata69"><rdf:RDF><cc:Work
         rdf:about=""><dc:format>image/svg+xml</dc:format><dc:type
           rdf:resource="http://purl.org/dc/dcmitype/StillImage" /></cc:Work></rdf:RDF></metadata><defs
     id="defs67" /><sodipodi:namedview
     pagecolor="#ffffff"
     bordercolor="#666666"
     borderopacity="1"
     objecttolerance="10"
     gridtolerance="10"
     guidetolerance="10"
     inkscape:pageopacity="0"
     inkscape:pageshadow="2"
     inkscape:window-width="1920"
     inkscape:window-height="1031"
     id="namedview65"
     showgrid="false"
     inkscape:zoom="1.84375"
     inkscape:cx="1.3559322"
     inkscape:cy="64"
     inkscape:window-x="0"
     inkscape:window-y="25"
     inkscape:window-maximized="1"
     inkscape:current-layer="Capa_1" /><g
     id="g3"><g
       id="g5"><g
         id="g7"><path
           d="M28.171,127.031C28.251,126.922,28.046,126.932,28.171,127.031L28.171,127.031z"
           fill="#5a6a80"
           id="path9" /><path
           d="M163.447,6.704c1.328-0.708,1.115-2.897-0.71-3.031c-19.68-1.445-39.498,1.077-59.331-0.26     c-2.13-2.05-4.948-3.089-7.887-3.361c-3.238-0.299-5.975,0.701-7.922,2.44c-0.275-0.223-0.604-0.396-1.041-0.424     C76.768,1.441,66.993,2.56,57.203,2.716c-9.377,0.149-18.371-2.642-27.661-0.283c-0.191,0.048-0.35,0.134-0.488,0.238     c0.004-0.053,0.007-0.121,0.011-0.172c0.108-1.385-2.06-1.634-2.389-0.323c-6.546,26.074-2.389,54.113-2.1,80.697     c0.382,35.171-1.298,70.361-1.402,105.534c-0.003,1.025,0.857,1.88,1.88,1.88h0.699c0.769,0,1.266-0.395,1.547-0.91     c19.524,0.326,39.055-0.233,58.583,0.02c24.438,0.317,49.163-3.91,73.477-0.745c0.577,0.547,1.234,0.955,1.98,0.892     c0.55-0.049,1.223-0.484,1.135-1.136c-0.007-0.053-0.039-0.096-0.05-0.147c0.073-0.068,0.172-0.106,0.235-0.184     c1.177,0.059,2.383-0.849,1.876-2.262c-4.188-11.652-0.589-25.807,0.853-37.77c1.843-15.279,0.614-31.208,0.364-46.562     C165.256,70.835,170.765,36.702,163.447,6.704z M162.188,118.94c-1.22-1.021-2.716-1.77-4.045-2.616     c-2.595-1.648-5.175-3.32-7.738-5.016c-0.066-2.97-0.142-5.959-0.19-8.896c-0.07-4.195,0.019-8.435,0.179-12.696     c0.755,2.18,3.453,4.224,5,5.702c1.712,1.634,4.176,4.814,6.644,5.092c0.004,0,0.007-0.002,0.011-0.002     c0.021,2.866,0.036,5.732,0.083,8.6c0.024,1.465,0.02,2.93,0.025,4.395c-0.113-0.011-0.21-0.06-0.346-0.003     c0.345-0.142-1.005-0.947-1.303-1.159c-1.025-0.734-1.951-1.588-2.87-2.448c-1.973-1.846-3.765-3.856-5.678-5.758     c-0.452-0.45-1.286,0.148-0.903,0.696c1.978,2.825,4.479,5.372,6.921,7.794c0.781,0.777,2.715,3.139,4.188,2.562     C162.169,116.436,162.182,117.688,162.188,118.94z M151.116,156.577c1.02,1.202,2.102,2.352,3.175,3.508     c1.14,1.229,2.997,4.123,4.952,4.038c0.191-0.008,0.353-0.088,0.49-0.192c-0.173,1.55-0.37,3.097-0.485,4.651     c-1.071-1.305-2.695-2.335-3.899-3.362c-1.527-1.305-3.101-2.509-4.689-3.678c0.104-1.781,0.102-3.585,0.169-5.375     C150.932,156.303,151.012,156.456,151.116,156.577z M150.877,154.566c0.082-2.568,0.077-5.15,0.102-7.728     c1.905,3.56,4.614,6.894,7.145,9.94c0.563,0.678,1.312,1.665,2.183,2.309c-0.149,1.206-0.3,2.384-0.442,3.599     c-0.062-0.066-0.086-0.149-0.178-0.198c-0.065-0.035-1.162-1.322-1.545-1.658c-1.202-1.058-2.372-2.154-3.549-3.242     c-1.021-0.945-2.038-1.925-3.21-2.682C151.266,154.831,151.078,154.698,150.877,154.566z M153.877,166.689     c1.524,1.511,3.073,3.656,5.128,4.405c0.019,0.007,0.036-0.004,0.056,0.001c-0.092,2.181-0.093,4.354,0.075,6.507     c-1.152-0.966-2.231-2.036-3.303-3.085c-1.661-1.629-3.396-3.215-5.226-4.674c0.584-0.73,0.503-1.906-0.349-2.396     c0.123-1.43,0.196-2.87,0.29-4.307C151.599,164.355,152.707,165.529,153.877,166.689z M154.087,59.234     c1.531,1.768,3.064,3.534,4.71,5.197c0.938,0.946,2.02,2.018,3.336,2.384c-0.006,1.298-0.008,2.596-0.015,3.894     c-0.553-0.505-1.133-0.987-1.632-1.484c-1.604-1.599-3.194-3.208-4.854-4.75c-0.471-0.438-2.351-2.206-3.734-2.564     c0.072-1.598,0.134-3.196,0.186-4.792C152.733,57.897,153.577,58.646,154.087,59.234z M152.132,55.271     c0.049-1.852,0.036-3.696,0.044-5.542c0.414,0.563,0.795,1.027,0.962,1.241c1.408,1.801,3.006,3.456,4.611,5.078     c1.293,1.306,2.679,2.978,4.402,3.693c-0.005,1.45-0.002,2.899-0.008,4.349c-0.276-0.186-0.567-0.35-0.826-0.565     c-1.302-1.072-2.478-2.305-3.655-3.508C156.669,59.001,154.029,55.527,152.132,55.271z M156.188,68.021     c1.604,1.793,3.594,5.041,5.914,6.013c-0.008,1.196-0.013,2.391-0.019,3.587c-0.486-0.352-0.964-0.848-1.385-1.182     c-1.087-0.863-2.111-1.808-3.142-2.738c-1.949-1.762-3.855-3.641-6.002-5.171c0.095-1.66,0.18-3.321,0.263-4.98     C153.102,64.918,155.885,67.684,156.188,68.021z M156.877,75.986c1.216,1.239,3.131,3.836,5.161,3.578     c0.013-0.001,0.023-0.015,0.036-0.017c-0.008,1.718-0.021,3.434-0.025,5.152c-1.462-1.051-2.833-2.23-4.178-3.425     c-2.314-2.056-4.434-4.307-6.452-6.652c-0.065-0.076-0.143-0.061-0.214-0.103c0.08-1.333,0.157-2.668,0.235-4.002     C153.27,72.323,155.075,74.15,156.877,75.986z M156.522,82.622c1.448,1.466,3.434,3.846,5.517,4.851     c-0.003,1.852-0.021,3.702-0.019,5.555c-1.692-1.365-3.64-2.433-5.303-3.886c-2.229-1.947-4.239-4.215-5.949-6.627     c-0.008-0.01-0.02-0.007-0.026-0.016c0.104-1.956,0.224-3.918,0.341-5.88C152.827,78.681,154.623,80.7,156.522,82.622z      M155.479,90.382c1.688,1.722,4.012,4.247,6.544,4.494c0.003,1.092-0.002,2.183,0.004,3.275     c-0.433-0.443-0.931-0.836-1.443-1.249c-1.229-0.991-2.435-2.012-3.627-3.048c-1.146-0.997-2.251-2.039-3.356-3.082     c-0.773-0.729-1.457-1.687-2.409-2.182c-0.276-0.143-0.562-0.081-0.758,0.088c0.054-1.329,0.134-2.667,0.2-4     C152.11,86.691,153.724,88.594,155.479,90.382z M162.158,56.482c-0.053-0.043-0.101-0.094-0.152-0.137     c-0.28-0.232-0.565-0.257-0.828-0.202c-0.353-0.304-0.706-0.608-1.054-0.918c-1.139-1.015-2.241-2.072-3.324-3.146     c-0.312-0.309-3.429-3.628-4.602-5.153c-0.027-2.736-0.135-5.46-0.294-8.175c1.778,3.211,4.369,6.138,6.663,8.922     c0.92,1.116,2.032,2.807,3.495,3.221c0.032,0.009,0.055-0.006,0.087,0.001C162.151,52.758,162.161,54.62,162.158,56.482z      M162.146,48.462c-0.413-0.275-0.821-0.538-1.206-0.869c-1.231-1.059-2.376-2.217-3.476-3.41c-1.963-2.133-4.15-4.39-5.617-6.909     c-0.015-0.026-0.039-0.024-0.057-0.044c-0.075-1.079-0.229-2.143-0.329-3.218c3.041,3.762,7.92,9.462,10.627,9.634     C162.098,45.251,162.141,46.856,162.146,48.462z M162.062,41.319c-0.427-0.325-1.526-1.008-1.896-1.305     c-1.207-0.97-2.316-2.066-3.418-3.151c-1.887-1.855-3.697-3.79-5.573-5.657c-0.153-1.351-0.352-2.693-0.545-4.037     c0.322,0.441,0.752,0.857,1.104,1.243c1.462,1.603,3.029,3.128,4.586,4.639c1.223,1.188,3.527,4.133,5.689,5.075     C162.021,39.19,162.052,40.254,162.062,41.319z M161.962,35.189c-1.745-1.421-3.6-3.322-5.102-4.68     c-1.349-1.219-2.69-2.455-4.068-3.641c-0.687-0.591-1.445-0.853-2.09-1.341c-0.101-0.076-0.206-0.086-0.303-0.058     c-0.312-1.954-0.682-3.899-1.14-5.828c-0.01-0.043-0.052-0.053-0.065-0.092c2.441,2.029,4.894,4.05,7.414,5.979     c1.458,1.116,3.303,2.836,5.229,3.574C161.877,31.131,161.937,33.16,161.962,35.189z M161.073,7.08     c0.19,3.243,0.331,6.486,0.445,9.729c-4.222-2.085-7.991-4.988-10.812-8.767C154.254,7.728,157.751,7.404,161.073,7.08z      M143.567,8.641c1.396,2.895,3.724,5.194,6.173,7.302c1.789,1.54,3.707,2.933,5.595,4.347c1.521,1.137,3.134,3.074,5.043,3.43     c0.662,0.123,1.509-0.448,1.215-1.215c-1.102-2.875-5.766-4.804-8.203-6.483c-3.022-2.084-6.345-4.418-8.551-7.479     c1.5-0.117,2.965-0.251,4.448-0.379c2.842,4.998,7.507,8.242,12.082,11.556c0.079,0.057,0.157,0.065,0.236,0.1     c0.056,1.899,0.118,3.798,0.163,5.697c-0.52-0.337-1.04-0.667-1.535-1.011c-2.95-2.058-5.847-4.192-8.708-6.37     c-0.891-0.678-8.973-6.336-11.915-9.185C140.945,8.869,142.241,8.74,143.567,8.641z M132.424,9.207     c1.877-0.048,3.755-0.084,5.628-0.184c1.264,3.048,7.429,7.454,8.595,8.468c0.558,0.485,1.162,0.917,1.728,1.394     c-0.112-0.023-0.211-0.084-0.326-0.083c-0.001,0-0.001-0.001-0.001-0.001c-1.212-0.921-3.244-0.172-4.588-0.024     c-0.357,0.039-0.719,0.049-1.078,0.082c0.135-0.209,0.28-0.393,0.371-0.714c0.285-1.007-0.971-1.671-1.7-0.99     c0.236-0.22,0.214-0.09-0.274-0.253c-0.486-0.161-0.979-0.599-1.373-0.912c-1.21-0.963-2.292-2.094-3.349-3.218     c-0.919-0.978-1.787-2.002-2.703-2.983c-0.283-0.303-0.695-0.588-1.125-0.481C132.457,9.25,132.478,9.237,132.424,9.207z      M131.622,9.233c-0.083,0.111-0.136,0.241-0.085,0.378c0.08,0.211,0.124,0.226,0.152,0.207c-0.008,0.017-0.011,0.01-0.021,0.046     c-0.164,0.596,0.413,1.249,0.729,1.69c1.139,1.594,2.374,3.119,3.679,4.579c0.578,0.647,2.02,2.134,3.438,2.944     c-1.532,0.09-3.066,0.147-4.6,0.205c0.008-0.222-0.041-0.447-0.222-0.619c-0.186-0.176-0.681-0.944-1.091-1.287     c-0.897-0.75-1.685-1.676-2.468-2.54c-1.502-1.657-3.148-3.532-4.188-5.603C128.501,9.247,130.057,9.266,131.622,9.233z      M125.329,9.233c0.701,2.455,2.485,4.774,3.984,6.7c0.605,0.778,1.592,2.392,2.732,3.386c-0.952-0.039-2.067-0.101-3.22-0.148     c-0.009-0.246-0.079-0.481-0.289-0.644c-1.697-1.316-3.247-2.834-4.681-4.437c-0.635-0.709-1.324-1.487-1.999-2.293     c-0.14-0.485-0.458-0.885-0.896-1.123c-0.422-0.552-0.804-1.114-1.149-1.685C121.637,9.111,123.477,9.196,125.329,9.233z      M125.452,19.201c-1.444,0.084-2.822,0.267-3.857,0.766c0.188-1.656,0.278-3.367,0.32-4.766c0.062,0.08,0.124,0.164,0.186,0.243     C123,16.617,124.123,18.154,125.452,19.201z M119.758,25.86c0.659-0.55,1.105-1.809,1.429-3.317     c3.203,1.951,10.472,0.558,13.561,0.469c2.132-0.062,8.975,0.524,12.221-1.029c4.084,48.064-3.91,96.978,0.27,145.209     c-19.106-0.364-38.277,0.3-57.385,0.396c-15.529,0.076-32.516-1.886-47.901,0.974c-5.488-47.451,1.206-96.423-0.557-144.281     c0.148,0.046,0.288,0.101,0.467,0.11c4.507,0.254,9.075-0.272,13.57-0.557c3.805-0.242,9.565,0.565,13.163-1.041     c-0.12,0.78-0.232,1.559-0.35,2.344c-0.132,0.875,0.359,1.519,0.983,1.816c0.013,0.557,0.293,1.114,0.907,1.279     c2.922,0.787,5.703,1.046,8.738,1.263c1.002,0.072,1.833-0.89,1.836-1.836c0.021-6.752,6.072-4.955,11.44-5.159     c5.026-0.19,14.057-2.089,14.964,4.26c0.12,0.843,1.055,1.34,1.812,1.38c3.107,0.162,5.988,0.324,9.086-0.015     C119.28,27.987,119.854,26.848,119.758,25.86z M118.38,8.865c0.12,0.535,0.26,1.064,0.476,1.57     c-2.113,0.004-4.235,0.012-6.354,0.089c-0.583-0.497-1.23-0.911-1.817-1.43c-0.472-0.416-0.8-0.913-1.095-1.427     C112.458,8.2,115.379,8.625,118.38,8.865z M107.995,7.349c0.369,1.238,1.062,2.413,1.929,3.379     c-1.222,0.084-2.447,0.128-3.66,0.289c0.207-1.307-0.078-2.787-0.579-4.129C106.436,7.078,107.229,7.186,107.995,7.349z      M86.943,14.059c0.51-0.169,0.912-0.654,0.779-1.399c-0.957-5.348,1.757-9.024,7.297-8.9c2.116,0.047,4.267,0.84,5.825,2.276     c2.232,2.056,0.793,4.318,1.742,6.645c0.434,1.06,1.593,1.462,2.501,0.66c0.063-0.056,0.094-0.132,0.152-0.191     c0.146,0.161,0.307,0.313,0.552,0.348c4.078,0.587,8.236,0.624,12.361,0.632c-0.063,1.973-0.132,3.945-0.319,5.912     c-0.117,1.221-0.252,3.391-0.322,4.408c-3.904,0.422-6.817,1.025-7.476-3.581c-0.126-0.885-1.055-1.284-1.812-1.38     c-9.795-1.245-19.539-0.695-29.354,0.023c-1.007,0.074-1.86,0.789-1.856,1.856c0.016,4.996-1.554,4.92-5.634,4.387     c0.714-2.797,1.326-5.59,1.55-8.458c4.198-0.943,8.472-1.156,12.722-1.833C86.441,15.339,86.849,14.738,86.943,14.059z      M85.318,5.729c-0.728,1.811-0.933,3.896-0.334,6.12l-0.02,0.002c-0.032-0.072-0.043-0.145-0.095-0.216     c-1.602-2.184-3.737-3.978-5.744-5.846C81.188,5.723,83.252,5.689,85.318,5.729z M76.73,5.891     c1.557,2.221,3.468,4.24,5.254,6.294c-1.156,0.125-2.314,0.241-3.467,0.388c-0.046-0.19-0.126-0.38-0.282-0.562     C76.881,10.44,75.3,9.039,73.86,7.544c-0.464-0.482-0.92-0.97-1.378-1.457C73.897,6.012,75.314,5.953,76.73,5.891z M70.207,6.201     c0.108,0.157,0.215,0.303,0.296,0.417c1.563,2.178,3.339,4.502,5.286,6.419c-1.172,0.189-2.352,0.334-3.511,0.597     c-0.271-0.238-0.545-0.47-0.804-0.725c-1.068-1.053-2.007-2.24-2.954-3.4c-0.829-1.014-1.628-2.078-2.463-3.109     C67.44,6.344,68.824,6.273,70.207,6.201z M57.203,6.475c2.218,0.083,4.436,0.065,6.654,0.006c1.773,2.397,3.42,4.899,5.226,7.263     c0.217,0.284,0.438,0.586,0.667,0.886c-0.255,0.323-0.415,0.719-0.423,1.147c-0.029,1.461-0.178,2.895-0.359,4.327     c-0.52-0.255-1.095-0.427-1.698-0.552c-0.02-0.043-0.005-0.094-0.033-0.135c-1.541-2.261-3.712-4.123-5.438-6.265     c-1.716-2.13-3.246-4.396-4.738-6.686C57.109,6.468,57.156,6.473,57.203,6.475z M55.101,6.342     c1.151,2.97,2.979,5.704,4.791,8.281c1.066,1.515,2.256,3.342,3.705,4.734c-0.905,0.045-1.817,0.119-2.715,0.224     c0.11-0.041,0.222-0.067,0.326-0.136c0.877-0.581,0.483-1.782-0.51-1.881c0.699,0.07,0.357,0.085-0.07-0.438     c-0.417-0.511-1.021-0.944-1.482-1.425c-1.348-1.408-2.613-2.891-3.849-4.398c-1.244-1.517-2.448-3.066-3.668-4.602     c-0.16-0.201-0.321-0.402-0.475-0.608C52.464,6.195,53.783,6.265,55.101,6.342z M49.279,5.959     c0.746,1.805,1.725,3.439,2.886,5.115c0.994,1.434,5.02,8.158,7.884,8.605c-1.128,0.139-2.208,0.277-3.159,0.337     c-0.483,0.031-0.967,0.067-1.45,0.098c0.049-0.405-0.111-0.84-0.5-1.054c-2.27-1.247-4.171-3.906-5.828-5.82     c-2.14-2.473-4.018-5.113-5.895-7.768C45.236,5.618,47.255,5.794,49.279,5.959z M40.993,5.317     c1.86,3.612,4.451,7.059,6.919,10.218c0.965,1.235,2.495,3.62,4.27,4.8c-1.734,0.114-3.468,0.218-5.201,0.35     c0-0.006,0.006-0.009,0.006-0.015c-0.113-2.131-3.448-4.437-4.793-5.969c-2.657-3.027-5.136-6.204-7.391-9.541     C36.875,5.127,38.935,5.201,40.993,5.317z M28.828,8.231c1.652,2.575,3.315,5.146,5.081,7.641     c1.302,1.84,3.827,6.158,6.521,5.816c0.715-0.091,1.333-0.809,0.878-1.531c-0.62-0.986-1.7-1.575-2.554-2.346     c-1.319-1.19-2.454-2.596-3.574-3.969c-2.207-2.706-4.155-5.604-6.266-8.381c0.005-0.119,0.009-0.263,0.013-0.377     c0.246,0.238,0.588,0.375,1.018,0.331c1.211-0.124,2.416-0.198,3.617-0.24c-0.03,0.132-0.037,0.275,0.043,0.433     c1.75,3.455,4.077,6.618,6.39,9.713c1.038,1.389,2.606,4.249,4.376,5.589c-0.837,0.078-1.678,0.122-2.513,0.216     c-0.967,0.11-1.48,0.811-1.549,1.535c-0.887-0.305-1.985,0.133-2.171,1.258c-0.35-0.461-0.785-0.852-1.235-1.258     c-1.026-0.928-1.961-1.965-2.905-2.974c-1.753-1.873-3.46-3.798-5.295-5.592C28.741,11.875,28.782,9.93,28.828,8.231z      M28.558,25.515l0.004,0.006c1.234,1.584,2.465,3.164,3.752,4.706c0.626,0.75,5.079,5.915,5.521,2.324     c0.054-0.438-0.237-0.69-0.59-0.794c-0.023-0.027-0.055-0.059-0.151-0.156c-0.149-0.152-0.32-0.29-0.485-0.424     c-0.473-0.382-0.914-0.8-1.35-1.223c-1.24-1.203-2.397-2.493-3.559-3.769c-0.907-0.997-1.983-2.34-3.117-3.137     c0.024-2.26,0.051-4.365,0.079-6.332c1.268,1.501,2.537,3.001,3.809,4.497c1.108,1.304,3.189,4.716,5.163,4.623     c0.155-0.007,0.302-0.048,0.433-0.116c-0.097,5.171-0.102,10.342-0.047,15.511c-0.337-0.264-0.692-0.521-1.023-0.812     c-1.419-1.241-2.706-2.64-3.979-4.027c-1.528-1.665-2.986-3.391-4.512-5.039C28.522,29.322,28.539,27.393,28.558,25.515z      M28.484,34.078c0.823,1.134,1.714,2.228,2.587,3.322c1.185,1.486,4.508,6.515,6.98,6.532c0.022,1.647,0.03,3.294,0.057,4.94     c-0.189-0.091-0.495-0.187-0.621-0.253c-0.557-0.294-1.047-0.736-1.52-1.144c-1.368-1.178-2.608-2.512-3.816-3.849     c-1.085-1.201-2.117-2.447-3.185-3.663c-0.16-0.182-0.326-0.395-0.52-0.566C28.458,37.575,28.47,35.808,28.484,34.078z      M28.427,42.334c0.414,0.571,0.814,1.154,1.25,1.702c1.153,1.445,5.655,7.842,8.469,7.158c0.045,2.472,0.074,4.943,0.123,7.415     c-0.266-0.216-0.545-0.421-0.787-0.656c-1.542-1.496-2.969-3.113-4.399-4.714c-0.648-0.726-3.026-4.009-4.694-4.375     C28.401,46.632,28.414,44.467,28.427,42.334z M28.38,50.564c0.429,0.654,1.113,1.473,1.324,1.746     c1.143,1.481,2.334,2.929,3.523,4.374c1.07,1.301,3.049,4.295,5.103,5.219c0.048,2.514,0.099,5.027,0.136,7.541     c-1.772-2.042-3.549-4.1-5.306-6.158c-1.558-1.825-3.072-3.68-4.816-5.25C28.354,55.497,28.367,53.011,28.38,50.564z      M28.292,68.494c0.678,1.052,1.359,2.102,2.021,2.993c1.239,1.669,2.49,3.33,3.763,4.972c0.691,0.89,1.533,2.537,2.86,2.396     c0.526-0.055,0.809-0.362,0.877-0.877c0.152-1.147-1.08-2.025-1.752-2.799c-1.407-1.621-2.762-3.287-4.121-4.949     c-1.148-1.405-2.391-2.84-3.637-4.207c0.009-1.944,0.018-3.863,0.028-5.768c1.354,1.769,2.701,3.545,4.047,5.321     c1.494,1.97,3.588,6.076,6.118,6.999c0.052,4.696,0.082,9.393,0.02,14.091c-0.065-0.049-0.168-0.138-0.346-0.344     c-0.322-0.372-0.738-0.679-1.098-1.012c-1.161-1.074-2.221-2.274-3.299-3.431c-1.823-1.955-3.627-3.937-5.516-5.832     C28.268,73.507,28.28,70.992,28.292,68.494z M28.216,84.329c0.008-0.045,0.007-0.083,0.001-0.129     c0.01-1.962,0.019-3.914,0.028-5.86c1.751,2.095,3.458,4.229,5.195,6.331c0.784,0.949,3.188,4.65,5.027,4.123     c-0.043,2.347-0.088,4.694-0.176,7.042c-0.05-0.069-0.062-0.155-0.127-0.216c-1.381-1.267-2.535-2.856-3.723-4.298     c-1.321-1.605-2.639-3.212-3.944-4.83c-0.481-0.596-0.983-1.177-1.469-1.769c-0.358-0.435-0.716-0.599-0.812-0.375V84.329z      M28.159,95.017c0.876,1.273,1.751,2.552,2.713,3.781c1.057,1.351,2.136,2.686,3.261,3.98c0.662,0.762,1.641,2.03,2.802,1.886     c0.552-0.067,0.912-0.472,0.796-1.045c-0.206-1.014-1.28-1.785-1.969-2.47c-1.211-1.204-2.355-2.477-3.494-3.749     c-1.329-1.483-2.775-2.92-4.097-4.411c0.012-2.186,0.023-4.372,0.034-6.552c0.829,1.32,2.022,2.698,2.334,3.139     c1.218,1.721,2.473,3.413,3.755,5.086c0.7,0.915,1.85,3.144,3.179,3.144c0.318,0,0.555-0.13,0.74-0.312     c-0.178,4.284-0.406,8.574-0.659,12.869c-0.201-0.281-0.501-0.449-0.816-0.374c-0.055-0.062-0.117-0.13-0.26-0.29     c-0.358-0.402-0.772-0.762-1.143-1.153c-0.892-0.942-1.693-1.978-2.493-2.997c-1.465-1.868-2.748-4.085-4.44-5.757     c-0.083-0.082-0.178-0.08-0.269-0.117C28.142,98.123,28.151,96.569,28.159,95.017z M28.117,102.271     c1.461,2.461,3.166,4.869,4.862,7.104c0.521,0.687,3.479,3.88,4.492,2.403c-0.136,2.28-0.271,4.56-0.402,6.84     c-1.148-1.289-2.6-2.404-3.764-3.654c-1.788-1.919-3.286-4.028-4.919-6.068c-0.094-0.118-0.204-0.133-0.311-0.171     C28.09,106.583,28.104,104.428,28.117,102.271z M27.993,119.556c1.018,1.398,2.01,2.817,3.073,4.181     c0.827,1.062,3.078,4.53,4.887,3.18c0.664-0.494,0.437-1.467-0.417-1.537c0.325,0.026-0.113-0.161-0.303-0.37     c-0.323-0.355-0.722-0.648-1.074-0.975c-0.987-0.917-1.878-1.942-2.773-2.947c-1.116-1.252-2.235-2.516-3.375-3.758     c0.016-1.959,0.03-3.947,0.044-5.934c1.091,1.782,2.515,3.437,3.812,5.004c1.249,1.51,2.838,3.869,4.815,4.432     c0.09,0.026,0.176-0.01,0.265-0.014c-0.244,4.448-0.464,8.896-0.57,13.34c-0.281-0.28-0.662-0.659-0.865-0.817     c-0.996-0.778-1.931-1.645-2.868-2.491c-0.965-0.872-1.907-1.768-2.835-2.676c-0.321-0.314-0.683-0.595-1.042-0.863     c-0.108-0.057-0.219-0.109-0.332-0.154c-0.167-0.052-0.222-0.09-0.264-0.125c-0.026,0.035-0.048,0.07-0.169,0.132     c0.239-0.122,0.125-0.374-0.072-0.469C27.952,124.348,27.974,121.961,27.993,119.556z M27.916,128.109     c0.714,1.206,2.084,2.715,2.245,2.896c1.138,1.269,2.308,2.51,3.519,3.711c0.666,0.659,1.492,1.612,2.556,1.511     c0.047-0.005,0.076-0.04,0.12-0.05c-0.039,2.367-0.112,4.735-0.075,7.099c-0.04,0.055-0.096,0.092-0.124,0.159     c-0.031-0.016-0.027-0.025-0.069-0.043c-0.497-0.212-0.952-0.509-1.399-0.812c-1.227-0.825-2.338-1.833-3.443-2.812     c-0.959-0.852-2.131-2.276-3.424-3.027C27.856,133.928,27.888,131.044,27.916,128.109z M27.795,138.988     c0.263,0.278,0.522,0.562,0.783,0.841c1.341,1.438,2.749,2.832,4.247,4.106c0.931,0.792,2.087,1.812,3.382,1.809     c0.042,0,0.068-0.024,0.109-0.027c0.065,2.238,0.166,4.475,0.324,6.709c-0.769-0.777-1.581-1.489-2.037-2.013     c-2.095-2.401-4.154-4.833-6.306-7.185c-0.161-0.176-0.362-0.184-0.556-0.136C27.76,141.745,27.778,140.372,27.795,138.988z      M27.721,144.573c1.686,2.413,3.405,4.805,5.192,7.145c0.906,1.186,2.433,4.061,4.117,4.614c0.139,1.402,0.24,2.807,0.425,4.205     c-0.763-0.843-1.533-1.663-2.233-2.433c-2.458-2.708-4.964-5.439-7.587-7.998C27.666,148.312,27.694,146.455,27.721,144.573z      M27.907,186.344c0.029-0.045-0.01-0.098-0.057-0.101c-0.615-0.04-1.229-0.08-1.844-0.12c0.28-0.835,0.522-3.124,0.733-6.492     c1.025,1.375,2.124,2.696,3.279,3.957c0.383,0.417,0.811,0.915,1.264,1.425C29.55,185.296,28.315,185.718,27.907,186.344z      M34.732,184.658c-0.872-0.81-1.854-1.55-2.657-2.326c-1.853-1.792-3.645-3.731-5.163-5.827c0.093-1.923,0.178-4.125,0.258-6.51     c1.727,3.474,4.095,6.661,6.48,9.687c1.105,1.4,2.51,3.36,4.139,4.872C36.721,184.571,35.686,184.603,34.732,184.658z      M42.363,184.564c-2.35-2.214-4.796-4.185-6.962-6.633c-2.806-3.171-5.326-6.602-7.55-10.202     c-0.163-0.263-0.378-0.357-0.597-0.373c0.058-1.959,0.112-4.078,0.164-6.269c5.35,6.032,9.464,12.853,14.074,19.451     c0.55,0.787,1.38,2.601,2.383,4.068C43.37,184.594,42.861,184.574,42.363,184.564z M48.635,184.78     c-0.118-0.769-1.082-1.407-1.827-0.913c1.086-0.72-16.799-22.678-19.194-24.58c-0.05-0.04-0.102-0.024-0.154-0.05     c0.046-2.09,0.088-4.298,0.129-6.558c1.617,2.095,3.296,4.146,4.907,6.24c1.897,2.466,3.727,5.532,5.993,7.699     c0.164,0.875,0.261,1.755,0.447,2.628c0.054,0.254,0.176,0.445,0.324,0.608c0.025,0.042,0.072,0.06,0.109,0.093     c0.374,0.329,0.9,0.444,1.4,0.351c0.382,0.078,0.777,0.115,1.161,0.188c0.014,0.029-0.003,0.057,0.017,0.085     c2.376,3.608,4.878,7.138,7.264,10.741c0.557,0.841,1.414,2.399,2.446,3.62C50.668,184.881,49.663,184.828,48.635,184.78z      M55.296,185.144c-0.051-0.09-0.064-0.19-0.154-0.269c-0.251-0.216-0.863-1.425-1.233-1.895     c-1.158-1.467-2.318-2.931-3.504-4.375c-2.127-2.591-4.174-5.338-6.477-7.794c1.855,0.294,3.731,0.522,5.623,0.699     c2.297,5.338,6.049,9.954,10.312,13.906C58.566,185.344,57.022,185.247,55.296,185.144z M63.885,185.561     c-0.052-0.064-0.078-0.133-0.147-0.194c-4.703-4.144-8.955-8.276-12.062-13.714c2.308,0.168,4.651,0.205,6.991,0.251     c1.094,3.013,3.355,5.777,5.25,8.251c0.799,1.044,2.65,3.925,4.589,5.463C66.965,185.598,65.422,185.56,63.885,185.561z      M72.028,185.661c0.004-0.171,0.008-0.346-0.064-0.509c-0.435-0.974-1.561-1.585-2.317-2.285     c-1.553-1.438-2.919-3.091-4.261-4.722c-1.603-1.948-3.494-4.047-5.052-6.182c1.964,0.019,3.935-0.01,5.905-0.041     c2.91,4.974,10.113,16.208,12.636,12.992c0.581-0.739,0.076-1.943-0.968-1.662c0.253-0.068-1.396-1.327-1.734-1.627     c-1.257-1.11-2.361-2.422-3.457-3.688c-1.666-1.926-3.216-3.959-4.706-6.033c1.727-0.037,3.437-0.102,5.159-0.157     c1.932,3.288,4.243,6.449,6.474,9.485c0.891,1.213,2.646,3.922,4.565,4.697C80.146,185.854,76.084,185.743,72.028,185.661z      M85.951,185.969c0.146-0.054,0.293-0.059,0.439-0.146c1.005-0.606,0.352-2.295-0.813-1.927     c-0.375,0.119-2.209-1.837-2.496-2.114c-1.288-1.241-2.446-2.622-3.592-3.991c-1.631-1.948-3.075-4.041-4.568-6.093     c1.945-0.064,3.875-0.125,5.803-0.182c1.028,2.751,3.463,5.177,5.267,7.411c1.443,1.787,2.955,3.521,4.465,5.251     c0.501,0.572,0.999,1.242,1.556,1.834C89.993,186.01,87.973,186.002,85.951,185.969z M95.302,185.981     c-0.441-1.283-1.617-2.171-2.535-3.134c-1.562-1.639-3.084-3.315-4.597-4.999c-1.909-2.122-3.756-4.474-5.9-6.383     c1.302-0.035,2.573-0.043,3.86-0.065c2.346,4.021,5.588,7.681,8.421,11.361c0.514,0.667,1.36,2.008,2.355,3.184     C96.371,185.953,95.837,185.975,95.302,185.981z M101.048,185.855c-0.206,0.008-0.412,0.006-0.618,0.013     c-0.277-0.281-1.701-1.771-1.976-2.044c-1.458-1.459-2.795-3.03-4.111-4.617c-2.114-2.546-4.084-5.487-6.476-7.835     c0.657-0.007,1.332-0.03,1.984-0.032c1.097-0.004,2.198,0.003,3.295,0.002c1.724,2.708,3.823,5.24,5.806,7.728     c1.7,2.132,3.715,5.23,6.262,6.575C103.826,185.717,102.439,185.799,101.048,185.855z M107.035,185.551     c0.229-0.44,0.229-1.046-0.102-1.447c-1.934-2.343-4.312-4.395-6.39-6.628c-1.845-1.985-3.585-4.049-5.305-6.134     c1.83,0,3.662,0.005,5.492,0.009c0.206,0.755,0.688,1.486,1.072,2.142c1.434,2.45,2.98,4.824,4.611,7.146     c1.075,1.531,2.275,3.501,3.812,4.718C109.163,185.422,108.102,185.49,107.035,185.551z M113.265,185.171     c0.023-0.096,0.089-0.147,0.095-0.26c0.049-0.903-1.026-1.138-1.61-0.667c0.759-0.61,1.166,0.238,0.414-0.729     c-0.456-0.586-1.032-1.106-1.517-1.672c-1.425-1.666-2.703-3.459-3.972-5.245c-1.153-1.626-2.309-3.252-3.407-4.917     c-0.07-0.105-0.144-0.217-0.215-0.327c1.14,0.002,2.28,0,3.419,0.002c2.301,3.101,4.369,6.38,6.582,9.541     c0.595,0.848,1.989,3.194,3.484,4.061C115.449,185.03,114.358,185.101,113.265,185.171z M118.636,184.824     c0.401-0.495,0.405-1.407-0.38-1.514c-0.161-0.022-1.292-1.364-1.623-1.721c-1.273-1.377-2.41-2.896-3.534-4.396     c-1.444-1.929-2.825-3.906-4.271-5.835c1.458,0.001,2.917-0.006,4.375-0.007c2.295,2.667,4.601,5.312,6.818,8.048     c0.948,1.169,2.519,3.917,4.197,5.081C122.36,184.589,120.498,184.704,118.636,184.824z M126.451,184.359     c0.012-0.054,0.06-0.089,0.062-0.146c0.043-1.12-0.786-1.718-1.521-2.472c-1.203-1.234-2.366-2.51-3.536-3.775     c-2.056-2.225-4.105-4.496-6.282-6.618c1.577-0.004,3.152-0.043,4.729-0.052c2.163,2.428,4.13,5.022,6.137,7.577     c1.133,1.443,2.909,4.48,4.915,5.292C129.454,184.229,127.953,184.277,126.451,184.359z M139.124,183.931     c-0.047-0.059-0.109-0.137-0.136-0.169c-0.637-0.756-1.269-1.518-1.898-2.279c-1.678-2.03-3.348-4.065-5.065-6.061     c-0.923-1.072-2.551-3.559-4.099-3.731c-0.361-0.041-1.554-0.524-1.45,0.641c0.033,0.39,0.342,0.584,0.646,0.58     c-0.04,0.045-0.004,0.144,0.305,0.526c0.505,0.627,1.04,1.228,1.541,1.86c1.345,1.695,2.673,3.403,3.984,5.126     c0.921,1.209,1.865,2.401,2.811,3.592c-1.069,0.029-2.14,0.04-3.21,0.081c0.203-0.209,0.324-0.486,0.273-0.814     c-0.185-1.167-1.102-1.708-1.917-2.5c-1.146-1.111-2.193-2.332-3.242-3.535c-1.77-2.027-3.539-4.045-5.404-5.979     c3.415-0.029,6.827-0.097,10.239-0.169c0.379,0.6,0.893,1.161,1.227,1.626c1.362,1.894,2.794,3.735,4.259,5.55     c1.022,1.269,2.801,4.016,4.773,5.656C141.547,183.927,140.335,183.915,139.124,183.931z M146.893,184.011     c-0.051-0.264-0.164-0.513-0.428-0.656c-2.717-1.493-5.176-5-7.178-7.301c-1.426-1.641-2.819-3.313-4.194-4.995     c1.179-0.03,2.353-0.109,3.529-0.147c2.575,2.904,4.989,5.948,7.416,8.976c0.997,1.244,2.017,2.808,3.144,4.241     C148.419,184.094,147.655,184.032,146.893,184.011z M152.864,184.312c-1.555-2.102-3.703-4.008-5.346-5.907     c-2.243-2.592-4.516-5.176-6.969-7.575c1.405-0.051,2.809-0.123,4.213-0.176c-0.148,0.321-0.073,0.769,0.34,0.869     c1.027,0.252,2.457,2.653,3.116,3.426c1.771,2.072,3.449,4.23,5.141,6.369c0.877,1.109,1.772,2.201,2.66,3.302     C154.967,184.525,153.914,184.385,152.864,184.312z M160.055,185.015c-0.051-0.054-0.109-0.107-0.158-0.161     c-1.953-2.143-3.809-4.378-5.703-6.573c-1.842-2.132-4.707-6.592-7.838-7.692c0.768-0.033,1.535-0.062,2.304-0.097     c2.149,1.999,4.088,4.16,6.092,6.325c1.3,1.405,2.92,3.259,4.781,4.186c0.224,1.362,0.517,2.715,0.909,4.05     C160.312,185.034,160.185,185.03,160.055,185.015z M161.04,153.12c-0.116,0.968-0.241,1.978-0.364,2.958     c-1.176-1.174-2.263-2.441-3.33-3.713c-2.034-2.425-4.247-4.923-5.86-7.659c-0.126-0.214-0.297-0.316-0.476-0.348     c0.005-1.418-0.021-2.84-0.029-4.259c0.777,1.942,3.946,4.786,4.433,5.236c1.512,1.401,3.115,2.879,4.879,3.961     c0.241,0.147,0.641,0.251,1.053,0.284C161.231,150.761,161.182,151.942,161.04,153.12z M161.544,147.282     c-0.294-0.214-0.593-0.423-0.897-0.62c-1.311-0.85-2.54-1.823-3.745-2.813c-0.64-0.526-4.988-4.834-5.156-4.739     c0.364-0.205,0.116-0.839-0.289-0.687c-0.258,0.097-0.373,0.263-0.483,0.432c-0.015-1.88-0.073-3.758-0.104-5.639     c1.584,1.657,3.153,3.331,4.832,4.918c1.849,1.748,3.824,4.171,6.052,5.651C161.676,144.951,161.641,146.118,161.544,147.282z      M161.951,140.44c-1.422-1.249-3.073-2.375-4.313-3.425c-2.189-1.855-4.597-3.573-6.8-5.415     c-0.022-1.275-0.055-2.531-0.081-3.805c0.642,0.632,1.728,1.745,1.915,1.918c1.422,1.3,2.828,2.615,4.272,3.893     c1.386,1.225,3.172,3.216,5.1,4.17C162.009,138.663,161.995,139.553,161.951,140.44z M162.148,134.739     c-2.162-1.629-4.298-3.31-6.406-5.01c-0.846-0.682-3.333-3.155-5.015-3.342c-0.039-1.817-0.075-3.61-0.116-5.425     c0.247,0.145,0.643,0.031,0.687-0.35c0.066-0.573,2.441,1.457,2.862,1.823c1.394,1.213,2.729,2.487,4.056,3.771     c0.778,0.754,2.393,2.767,3.982,3.817C162.175,131.597,162.192,133.17,162.148,134.739z M162.011,126.559     c-1.901-1.65-3.763-3.344-5.719-4.93c-0.843-0.684-4.892-3.719-5.705-1.793c-0.051-2.234-0.092-4.446-0.142-6.679     c2.026,1.569,4.125,3.058,6.204,4.549c1.716,1.231,3.499,2.913,5.552,3.54c0.003,1.826,0.042,3.654,0.031,5.479     C162.162,126.672,162.073,126.612,162.011,126.559z"
           fill="#5a6a80"
           id="path11" /></g><path
         d="M161.391,104.1c-0.161-0.24-0.403-0.329-0.652-0.355c-0.286-0.305-0.561-0.62-0.835-0.929    c-1.477-1.655-2.897-3.359-4.366-5.021c-0.835-0.945-2.028-2.682-3.406-2.784c-1.294-0.097-0.465,1.538-0.209,2.033    c0.111,0.214,0.354,0.213,0.528,0.108c0.238,0.267,0.482,0.527,0.699,0.795c1.39,1.731,2.75,3.484,4.118,5.232    c0.931,1.189,1.837,2.74,3.275,3.345C162.361,107.288,161.938,104.908,161.391,104.1z"
         fill="#5a6a80"
         id="path13" /><path
         d="M67.98,35.972c-7.962,2.593-10.165,12.578-12.202,20.347c-1.695-2.463-3.365-4.931-5.403-7.156    c-0.931-1.017-2.667,0.315-1.91,1.474c2.295,3.514,4.655,6.994,6.455,10.796c0.724,1.53,2.907,0.949,3.355-0.438    c1.18-3.654,2.062-7.394,3.237-11.05c1.623-5.051,4.477-7.691,7.953-11.422C70.457,37.457,69.497,35.478,67.98,35.972z"
         fill="#5a6a80"
         id="path15" /><path
         d="M96.629,48.531c-1.648,0.223-2.749-1.299-4.252-0.912c-0.786,0.202-1.187,0.568-1.627,0.94    c-1.217-0.853-2.478-1.636-3.632-2.59c-1.093-0.904-2.465-0.518-2.977,0.786c-0.401,1.02-0.933,1.97-1.488,2.907    c-0.779-2.132-1.397-4.296-1.557-6.627c-0.136-1.99-2.856-1.943-3.055,0c-0.388,3.777-1.122,7.26-2.82,10.684    c-0.563,1.135,1.028,2.087,1.706,0.997c1.007-1.62,1.738-3.304,2.348-5.033c0.432,1.429,0.922,2.849,1.459,4.285    c0.494,1.321,2.303,1.755,3.091,0.404c0.891-1.528,1.808-3.009,2.648-4.539c1.027,0.683,2.064,1.35,3.019,2.149    c0.647,0.542,1.392,0.674,2.158,0.278c0.406-0.209,0.757-0.571,1.128-0.869c1.577,0.928,3.066,0.914,5.045-0.031    C99.557,50.531,98.204,48.318,96.629,48.531z"
         fill="#5a6a80"
         id="path17" /><path
         d="M132.834,45.73c-1.13,0.374-2.128,1.205-3.045,2.054c-0.837-0.683-1.657-1.394-2.534-2.028    c-0.513-0.371-1.199-0.245-1.722,0c-0.679,0.319-0.988,0.715-1.235,1.144c-0.247-0.43-0.556-0.827-1.234-1.147    c-0.9-0.423-1.764-0.2-2.337,0.613c-0.396,0.559-0.723,1.153-1.05,1.746c-0.58-0.521-1.13-1.075-1.606-1.737    c-0.757-1.049-2.177-1.12-2.921,0c-0.648,0.976-1.412,1.817-2.146,2.677c-0.492-1.268-0.994-2.533-1.176-3.921    c-0.204-1.555-2.551-2.208-2.963-0.401c-0.564,2.471-1.666,4.686-2.45,7.084c-0.401,1.227,1.561,2.079,2.103,0.886    c0.468-1.03,0.958-2.044,1.44-3.06c0.339,1.037,0.66,2.078,0.793,3.179c0.176,1.462,2.295,2.501,3.104,0.841    c0.707-1.45,1.787-2.605,2.82-3.805c0.695,0.711,1.43,1.385,2.221,2.076c0.878,0.767,2.022,0.591,2.685-0.346    c0.31-0.438,0.562-0.903,0.82-1.367c0.264,0.431,0.521,0.841,0.689,1.012c0.649,0.658,1.766,0.659,2.415,0    c0.481-0.489,0.933-0.841,1.159-1.485c0.299-1.436,0.566-1.235,0.802,0.603c0.508,0.398,1.029,0.781,1.562,1.146    c0.629,0.454,1.544,0.219,2.064-0.266c1.059-0.986,2.186-1.907,3.29-2.837C135.376,47.273,134.444,45.197,132.834,45.73z"
         fill="#5a6a80"
         id="path19" /><path
         d="M68.344,68.326c-3.295,1.502-5.834,5.777-7.847,8.689c-1.802,2.608-3.211,5.456-4.31,8.42    c-2.45-4.577-6.41-9.836-9.011-4.801c-0.096,0.186,0.021,0.421,0.242,0.422c4.428,0.005,6.265,6.47,7.313,9.993    c0.51,1.717,3.074,1.795,3.546,0c1.154-4.391,2.971-8.352,5.44-12.151c1.912-2.942,5.243-5.39,6.633-8.564    C70.953,68.959,69.735,67.692,68.344,68.326z"
         fill="#5a6a80"
         id="path21" /><path
         d="M133.026,80.181c-2.917,0.804-5.883,0.593-8.898-0.634c-0.467-0.539-1.517-0.707-2.104-0.272    c-5.275,3.909-4.728-1.355-5.839-6.649c-0.379-1.8-2.816-1.501-3.343,0c-1.304,3.721-2.139,7.604-3.691,11.24    c0.157-0.369-5.2-6.824-5.997-7.806c-0.908-1.118-2.462-0.306-2.885,0.762c-4.748,4.89-8.219,5.108-10.411,0.653    c-0.72-0.911-2.129-0.481-2.675,0.345c-1.093,1.653-2.176,3.22-3.2,4.833c-1.021-2.271-2.095-4.504-3.112-6.832    c-0.433-0.991-2.171-0.986-2.606,0c-1.531,3.471-2.675,6.453-3.194,10.27c-0.174,1.286,1.725,1.895,2.005,0.553    c0.439-2.364,1.208-4.579,2.267-6.664c1.067,2.54,2.31,5.438,2.789,6.837c0.435,1.269,2.4,1.817,3.088,0.404    c4.553-9.349,4.347-0.707,10.859-0.707c3.275,0,5.068-2.916,6.311-5.771c1.778,2.513,3.356,5.139,5.31,7.547    c0.767,0.947,2.119,0.456,2.716-0.35c2.01-2.713,3.047-5.659,3.98-8.703c0.707,2.005,1.592,3.932,2.812,5.91    c0.596,0.968,1.904,1.134,2.726,0.351c3.819-3.635,9.988,1.392,14.398-3.074C135.306,81.436,134.314,79.894,133.026,80.181z"
         fill="#5a6a80"
         id="path23" /><path
         d="M66.883,97.572c-5.602,4.081-9.859,11.874-11.942,18.92c-1.83-2.32-3.775-4.551-6.021-6.467    c-1.129-0.963-2.514,0.471-1.605,1.606c2.554,3.186,4.903,6.347,6.899,9.912c0.743,1.327,3.056,1.15,3.369-0.44    c0.807-4.112,2.37-7.809,4.461-11.431c2.03-3.517,5.157-6.364,7.018-9.921C69.739,98.455,68.265,96.565,66.883,97.572z"
         fill="#5a6a80"
         id="path25" /><path
         d="M90.731,112.7c-0.012-0.048-0.023-0.097-0.035-0.145c-0.166-0.693-1.017-1.23-1.714-0.974    c-0.633,0.233-2.194-0.875-2.63-1.246c-0.814-0.692-2.073-0.659-2.649,0.341c-0.529,0.919-1.18,1.751-1.83,2.584    c-0.97-1.673-1.976-3.354-2.134-5.228c-0.154-1.815-2.431-2.072-3.082-0.417c-1.078,2.741-1.84,5.618-2.27,8.532    c-0.191,1.292,1.521,1.81,1.976,0.545c0.521-1.447,1.006-2.874,1.544-4.281c0.712,1.465,1.557,2.879,2.156,4.45    c0.494,1.293,2.256,1.728,3.036,0.397c0.709-1.208,1.601-2.283,2.445-3.395c1.531,0.929,3.397,1.509,4.793,0.325    C90.753,113.837,90.851,113.201,90.731,112.7z"
         fill="#5a6a80"
         id="path27" /><path
         d="M137.962,111.524c-5.38-1.765-8.711,3.799-12.765-1.631c-0.739-0.99-1.941-1.227-2.908-0.375    c-2.768-0.801-5.535-1.604-8.302-2.404c-0.818-1.213-2.307-1.115-3.142,0c-1.521,2.029-3.191,3.928-4.787,5.892    c-1.793-2.175-2.611-4.552-3.277-7.496c-0.296-1.312-2.321-1.623-2.931-0.383c-1.455,2.952-3.024,5.719-4.01,8.864    c-0.492,1.57,1.815,2.108,2.402,0.663c0.665-1.638,1.507-3.149,2.393-4.638c0.838,2.591,2.062,4.862,4.234,6.962    c0.903,0.874,2.097,0.544,2.793-0.36c1.497-1.938,3.11-3.774,4.673-5.654c3.185,3.849,6.755,5.146,11.007,2.327    c0.979,1.062,2.015,2.057,3.131,3.051c0.467,0.414,1.187,0.724,1.816,0.479c3.149-1.223,7.149-0.947,10.021-2.642    C139.43,113.518,139.138,111.91,137.962,111.524z"
         fill="#5a6a80"
         id="path29" /><path
         d="M67.056,135.358c-4.303,3.809-7.915,8.306-10.477,13.408c-1.604-3.373-3.814-6.476-7.163-8.213    c-1.262-0.655-2.362,1.066-1.439,1.868c-0.001,0-0.002,0.001-0.002,0.001c3.407,3.399,5.21,7.015,6.746,11.531    c0.607,1.786,2.936,1.729,3.564,0c2.276-6.261,6.472-11.56,11.428-15.936C71.535,136.409,68.865,133.759,67.056,135.358z"
         fill="#5a6a80"
         id="path31" /><path
         d="M137.483,146.408c-1.197-1.88-1.526-2.012-3.523-4.008c-0.753-0.753-1.785-0.614-2.553,0    c-2.33,1.865-2.107,1.865-4.438,0.001c-0.784-0.628-1.773-0.729-2.55,0c-1.387-0.577-2.772-1.154-4.159-1.73    c-0.662-1.025-1.927-1.141-2.827-0.364c-1.782,1.534-3.56,3.012-5.244,4.612c-1.012-1.871-2.109-3.669-3.105-5.648    c-0.628-1.248-2.453-1.099-3.119,0c-3.264,5.382-4.172,8.025-7.351,1.39c-0.596-1.244-2.518-1.13-3.146,0    c-3.436,6.181-2.948,4.559-6.222,0.326c-0.627-0.81-1.924-0.608-2.583,0c-4.142,3.829-3.417,5.691-7.758-0.245    c-0.684-0.935-2.242-1.206-2.867,0c-0.47,0.907-1.825,5.585-1.85,5.596c-0.726,0.316-0.523,1.299,0,1.668    c0.056,0.04,0.112,0.078,0.168,0.117c0.381,0.269,0.997,0.163,1.304-0.168c0.919-0.99,1.492-2.136,2.062-3.302    c1.281,1.533,2.673,2.915,4.076,4.482c0.793,0.886,2.225,0.568,2.809-0.362c3.073-4.904,3.128-4.709,5.966,0.018    c0.573,0.955,2.077,1.273,2.865,0.369c1.29-1.479,2.434-2.722,3.488-4.114c0.9,1.469,1.839,2.902,2.74,4.439    c0.57,0.972,2.059,1.243,2.852,0.367c1.811-2.001,3.369-4.057,4.853-6.221c0.842,1.588,1.647,3.196,2.613,4.718    c0.467,1.152,2.014,1.91,3.006,0.794c3.947-4.439,4.426-5.786,7.938-1.396c0.472,0.59,1.578,0.703,2.185,0.282    c2.606-1.812,2.259-2.316,4.804-0.281c0.836,0.67,1.715,0.67,2.551,0c2.459-1.966,2.756-0.669,4.95,0.729    C136.687,149.285,138.292,147.68,137.483,146.408z"
         fill="#5a6a80"
         id="path33" /></g></g><g
     id="g35" /><g
     id="g37" /><g
     id="g39" /><g
     id="g41" /><g
     id="g43" /><g
     id="g45" /><g
     id="g47" /><g
     id="g49" /><g
     id="g51" /><g
     id="g53" /><g
     id="g55" /><g
     id="g57" /><g
     id="g59" /><g
     id="g61" /><g
     id="g63" /></svg>