<?xml version="1.0" encoding="UTF-8" standalone="no"?>
<!-- Generator: Adobe Illustrator 16.0.0, SVG Export Plug-In . SVG Version: 6.00 Build 0)  -->

<svg
   xmlns:dc="http://purl.org/dc/elements/1.1/"
   xmlns:cc="http://creativecommons.org/ns#"
   xmlns:rdf="http://www.w3.org/1999/02/22-rdf-syntax-ns#"
   xmlns:svg="http://www.w3.org/2000/svg"
   xmlns="http://www.w3.org/2000/svg"
   xmlns:sodipodi="http://sodipodi.sourceforge.net/DTD/sodipodi-0.dtd"
   xmlns:inkscape="http://www.inkscape.org/namespaces/inkscape"
   version="1.1"
   id="Capa_1"
   x="0px"
   y="0px"
   width="128px"
   height="128px"
   viewBox="0 0 194.721 194.721"
   style="enable-background:new 0 0 194.721 194.721;"
   xml:space="preserve"
   inkscape:version="0.91 r13725"
   sodipodi:docname="halloween-october-31-calendar-page-sketch.svg"
   inkscape:export-filename="/opt/librecores/site/web/img/freepik/halloween-october-31-calendar-page-sketch.png"
   inkscape:export-xdpi="150"
   inkscape:export-ydpi="150"><metadata
     id="metadata53"><rdf:RDF><cc:Work
         rdf:about=""><dc:format>image/svg+xml</dc:format><dc:type
           rdf:resource="http://purl.org/dc/dcmitype/StillImage" /></cc:Work></rdf:RDF></metadata><defs
     id="defs51" /><sodipodi:namedview
     pagecolor="#ffffff"
     bordercolor="#666666"
     borderopacity="1"
     objecttolerance="10"
     gridtolerance="10"
     guidetolerance="10"
     inkscape:pageopacity="0"
     inkscape:pageshadow="2"
     inkscape:window-width="1920"
     inkscape:window-height="1031"
     id="namedview49"
     showgrid="false"
     inkscape:zoom="1.84375"
     inkscape:cx="1.3559322"
     inkscape:cy="64"
     inkscape:window-x="0"
     inkscape:window-y="25"
     inkscape:window-maximized="1"
     inkscape:current-layer="Capa_1" /><g
     id="g3"><g
       id="g5"><path
         d="M191.791,113.42c-1.691-28.352,2.937-56.322-0.871-84.683c-0.139-1.037-0.758-1.879-1.896-1.897    c-13.329-0.197-26.65-1.16-39.956-0.937c0.508-0.112,0.974-0.398,1.114-1.001c2.19-9.326-8.063-14.877-15.694-16.099    c-9.298-1.489-21.258,1.758-26.788,9.874c-1.478,2.168-2.368,4.727-2.786,7.474c-4.234-2.81-11.893-1.58-16.34-1.279    c-4.543,0.307-9.064,0.855-13.584,1.396c1.024-7.252-4.703-12.767-11.872-13.786c-9.564-1.359-20.081,3.456-26.123,10.754    c-2.029,2.451-3.108,5.162-3.585,7.951c-3.665-1.285-9.178-0.615-12.709-0.801c-6.23-0.328-12.598-0.527-18.7,0.934    c-0.516-0.235-1.1-0.095-1.413,0.422c-0.719,0.484-0.736,1.39-0.281,2.034c-1.872,50.139,7.044,99.755,0.748,149.915    c-0.131,1.042,0.955,1.853,1.881,1.881c32.881,1.022,65.563-1.335,98.351-3.519c29.03-1.935,58.274,1.771,87.312,2.107    c-0.174,2.188,3.185,3.046,3.673,0.743C197.327,161.119,193.219,137.386,191.791,113.42z M181.364,30.519    c5.113,0.181,7.403,6.722,8.266,15.187c-5.802-4.276-10.47-9.651-15.783-14.53c-0.525-0.483-1.258,0.252-0.78,0.781    c3.03,3.365,6.091,6.705,9.112,10.079c2.025,2.261,4.646,5.915,7.708,6.882c0.456,7.623-0.013,16.262-0.533,23.12    c-1.786-1.327-4.169-1.891-6.7-2.118c-2.631-7.19-10.083-14.218-14.846-19.787c-5.551-6.493-11.223-13.276-18.16-18.284    c-0.452-0.327-1.028,0.421-0.597,0.773c12.306,10.028,20.089,25.123,30.24,37.154c-2.164,0.01-4.312,0.151-6.196,0.205    c0.544-0.225,0.928-0.847,0.55-1.438c-4.604-7.197-11.366-13.715-16.679-20.486c-4.66-5.941-10.064-14.461-17.216-17.636    c-0.506-0.225-1.041,0.359-0.615,0.797c6.247,6.41,11.896,12.846,17.278,20.06c4.474,5.995,9.281,14.815,15.812,18.685    c0.055,0.032,0.11,0.01,0.165,0.03c-0.297,0.005-0.617,0.018-0.896,0.014c-1.698-0.018-3.395,0.006-5.091,0.009    c0.105-0.125,0.225-0.236,0.285-0.412c0.21-0.602,0.107-0.885-0.124-1.49c-0.213-0.559-0.843-0.763-1.307-0.551    c-0.019-0.092-0.229-0.312-0.877-1.025c-0.883-0.971-1.7-2.002-2.524-3.023c-1.992-2.472-3.998-4.9-6.059-7.315    c-6.974-8.174-13.518-16.703-21.172-24.264c0.499-0.867,1.082-1.657,1.614-2.574C151.306,29.353,166.306,29.988,181.364,30.519z     M158.053,68.197c-4.608-4.428-9.156-8.584-13.295-13.504c-3.872-4.601-7.539-9.41-11.659-13.797    c-0.009-2.154,0.125-4.308,0.536-6.424c0.057-0.288,0.156-0.525,0.237-0.783c7.753,8.701,14.304,18.368,22.095,27.015    c1.822,2.022,4.664,7.716,7.794,9.315c-1.996,0.01-3.992,0.002-5.989,0.01C158.382,69.644,158.71,68.827,158.053,68.197z     M111.693,19.752c4.855-5.949,13.462-7.717,20.724-7.372c8.515,0.405,12.737,4.797,14.787,12.522    c0.158,0.595,0.646,0.892,1.172,1.006c-4.216,0.084-8.431,0.312-12.644,0.707c-0.155-0.05-0.296-0.128-0.482-0.116    c-5.088,0.33-5.703,8.581-5.917,12.327c-0.218,3.83-0.787,11.117,2.459,13.888c0.076,0.064,0.157,0.076,0.236,0.114    C115.301,60.425,101.538,32.192,111.693,19.752z M104.4,29.569c0.085,0.017,0.152-0.032,0.236-0.028    c-0.208,16.513,14.758,36.904,30.138,24.899c1.212-0.946-0.298-2.728-1.561-2.102c0.032-0.084,0.083-0.154,0.094-0.253    c0.292-2.579,0.065-5.143-0.103-7.762c3.259,4.055,6.464,8.149,9.692,12.231c3.801,4.802,8.042,10.466,13.505,13.477    c-3.249,0.016-6.499-0.011-9.748,0.016c0.496-0.533,0.621-1.518-0.145-2.089c-4.738-3.533-8.117-7.915-12.185-12.118    c-0.539-0.557-1.551,0.186-1.09,0.841c3.36,4.773,7.112,9.88,11.843,13.378c-2.534,0.02-5.067,0.041-7.602,0.056    c-0.046-0.107-0.027-0.22-0.127-0.319c0.63,0.63,0.005-0.089-0.173-0.377c-0.381-0.618-0.831-1.111-1.336-1.631    c-1.391-1.431-2.85-2.797-4.279-4.191c-1.427-1.393-2.857-2.781-4.282-4.175c-0.364-0.356-0.92-0.971-1.428-1.111    c-0.112-0.031-0.278-0.038-0.437-0.032c-0.125-0.116-0.269-0.257-0.441-0.259c-0.1-0.001-0.183,0.068-0.212,0.161    c-0.125,0.398,0.119,1.333,0.409,1.767c1.062,1.598,2.484,2.999,3.784,4.402c1.5,1.618,2.979,3.271,4.543,4.828    c0.317,0.316,0.636,0.641,0.967,0.95c-2.618,0.008-5.235,0.054-7.853,0.036c0.146-0.012,0.295,0.001,0.441-0.026    c0.928-0.172,1.105-1.624,0.266-2.033c-7.465-3.634-12.733-13.411-17.466-19.794c-4.743-6.399-9.349-14.109-15.268-19.717    C97.849,28.636,101.119,28.902,104.4,29.569z M81.654,29.37c7.46,6.992,13.321,15.251,19.226,23.551    c3.901,5.484,8.111,12.86,14.008,16.38c0.883,0.527,2.165-0.581,1.491-1.491c-5.087-6.857-11.009-13.188-16.15-20.075    c-4.937-6.613-10.086-13.207-16.377-18.592c2.789-0.28,5.578-0.454,8.369-0.514c7.28,8.349,12.889,18.295,19.453,27.192    c2.647,3.588,8.351,13.618,13.936,14.329c-3.391-0.029-6.779-0.051-10.171-0.154c-2.473-0.075-4.932-0.057-7.397-0.094    c0.4-0.508,0.509-1.242-0.074-1.853c-6.336-6.647-12.564-13.384-18.673-20.242c-4.699-5.277-9.742-13.516-15.815-17.49    C76.207,30.011,78.93,29.671,81.654,29.37z M85.729,48.025c6.391,7.508,12.935,14.959,19.995,21.847    c-3.104-0.034-6.215-0.116-9.314-0.118c0.174-0.328,0.304-0.76,0.344-1.395c0.084-1.333-1.817-1.444-2.213-0.3    c0.888-2.566-11.772-16.307-13.394-18.448C76,42.814,70.562,36.386,63.868,31.103c2.668-0.101,5.325-0.343,7.978-0.622    C74.305,36.93,81.334,42.861,85.729,48.025z M54.846,55.412c2.303,3.37,4.898,6.535,7.493,9.683    c0.833,1.011,2.261,3.142,3.845,4.823c-1.658,0.022-3.315,0.042-4.977,0.063c-0.362-1.056-1.174-1.798-1.92-2.632    c-1.449-1.62-2.88-3.256-4.322-4.882c-2.084-2.35-4.175-4.555-6.495-6.598c2.125,0.236,4.201-0.202,5.968-1.414    c0.003,0.001-0.001,0.003,0.001,0.004c0.165,0.091,0.244,0.525,0.406,0.203C54.733,54.891,54.694,55.188,54.846,55.412z     M64.166,63.27c-2.657-2.943-5.119-6.188-8.154-8.756c-0.188-0.159-0.469-0.292-0.721-0.191c0.011-0.005-0.163-0.125-0.341-0.237    c1.026-0.826,1.935-1.932,2.65-3.38c0.708-0.388,1.139-1.214,0.576-2.087c-1.011-1.57-1.389-3.159-1.382-4.771    c3.564,5.077,7.52,9.884,11.225,14.853c2.182,2.924,4.314,5.863,6.564,8.741c0.615,0.787,1.235,1.685,1.997,2.374    c-2.008,0.022-4.014,0.022-6.024,0.047c-0.501-0.62-1.161-1.141-1.727-1.676C67.191,66.636,65.676,64.944,64.166,63.27z     M57.095,41.315c0.211-0.954,0.509-1.916,0.871-2.89c0.267-0.717,0.594-1.334,0.939-1.926c3.8,5.879,8.292,11.461,12.427,17.075    c4.049,5.495,8.256,11.832,13.658,16.195c-1.778,0.013-3.559,0.006-5.336,0.023c0.007-0.257-0.053-0.522-0.262-0.766    C71.693,60.043,64.72,50.403,57.095,41.315z M73.386,51.989c-4.272-5.464-8.33-12.094-13.589-16.793    c0.825-1.084,1.782-2.042,2.782-3.015c9.926,9.144,17.572,20.602,25.449,31.482c0.525,0.726,3.459,4.545,5.784,6.091    c-1.8,0.003-3.602-0.01-5.401-0.001c0.009-0.321-0.09-0.647-0.336-0.918C83.033,63.293,78.017,57.911,73.386,51.989z M42.5,22.901    c4.622-4.375,11.37-6.601,17.622-6.819c7.781-0.271,10.511,4.006,11.114,10.608c-3.575,0.409-7.153,0.78-10.748,0.972    c-1.251-0.26-2.148,1.317-1.845,2.453c-1.803,1.964-3.19,4.724-3.898,6.438c-1.685,4.077-2.848,9.884,0.472,13.45    c-6.196,4.496-11.657,0.919-15.62-5.698C35.116,36.826,36.278,28.792,42.5,22.901z M20.7,34.161    c3.433,0.166,8.744,1.543,12.451,0.614c0.148,5.502,2.528,11.075,6.002,15.537c2.134,2.74,5.001,4.562,7.903,5.275    c-0.012,0.121,0.019,0.251,0.118,0.375c2.101,2.608,3.987,5.558,6.074,8.224c1.23,1.571,2.461,3.141,3.728,4.683    c0.312,0.379,0.615,0.773,0.931,1.152c-1.629,0.019-3.253,0.043-4.886,0.059c-4.553,0.045-9.039-0.094-13.499-0.243    c0.448-0.311,0.662-0.943,0.201-1.472c-5.195-5.945-10.158-11.544-14.55-18.183c-3.778-5.711-7.58-11.516-12.564-16.26    c-0.004-0.004-0.009-0.001-0.013-0.005C15.304,33.933,18.012,34.03,20.7,34.161z M2.82,34.387c2.953-0.35,5.933-0.478,8.915-0.483    c-0.26,0.225-0.374,0.625-0.076,0.968c5.354,6.176,9.409,13.131,13.747,20.018c3.325,5.28,7.253,11.868,12.923,14.916    c-2.918-0.096-5.833-0.205-8.732-0.228c0.224-0.21,0.426-0.487,0.576-0.926c0.341-1.001-1.146-1.934-1.833-1.068    c0.534-0.672-7.37-10.909-8.663-12.646c-4.771-6.406-9.45-13.015-14.308-19.306c-0.16-0.207-0.605-0.264-0.655,0.085    c-0.527,3.738,3.249,7.759,5.275,10.529c3.191,4.363,6.42,8.66,9.418,13.159c0.552,0.829,5.14,8.436,8.254,10.169    c-2.47,0.008-4.937,0.054-7.405,0.214c0.011-0.19,0.007-0.384-0.111-0.559c-4.852-7.17-10.149-14.76-16.01-21.171    c-0.151-0.165-0.33-0.207-0.508-0.192C3.357,43.371,3.086,38.875,2.82,34.387z M3.755,49.998c2.432,3.93,5.134,7.743,7.722,11.56    c1.938,2.857,3.792,6.063,6.377,8.394c-1.562,0.143-3.125,0.32-4.69,0.557c0.011-0.191,0.031-0.383-0.076-0.584    c-2.443-4.585-5.867-8.499-8.015-13.308c-0.199-0.446-0.6-0.501-0.943-0.353C4.004,54.175,3.88,52.088,3.755,49.998z     M4.349,59.939c0.87,2.218,2.171,4.337,3.35,6.307c0.991,1.655,1.997,3.205,3.3,4.592c-1.852,0.34-3.706,0.743-5.568,1.259    c-0.139,0.038-0.239,0.106-0.343,0.17C4.85,68.154,4.596,64.05,4.349,59.939z M189.239,180.426    c-0.077-0.01-0.134-0.045-0.215-0.046c-22.4-0.237-44.755-1.962-67.152-2.42c-28.725-0.587-57.5,3.064-86.205,4.024    c-13.915,0.465-30.914,4.98-29.097-14.022c1.52-15.898,1.169-31.979,0.713-47.917c-0.435-15.213-1.201-30.442-2.071-45.666    c0.246,0.139,0.541,0.214,0.89,0.149c15.732-2.937,31.088-1.258,46.92-0.692c18.05,0.645,36.176-1.101,54.27-0.52    c15.34,0.493,30.569,0.802,45.927,0.603c8.133-0.105,26.506-3.206,34.25,0.843c0.572,0.299,1.188,0.195,1.68-0.104    c-0.311,3.817-0.598,6.864-0.667,8.501C187.142,115.19,194.915,148.793,189.239,180.426z"
         fill="#5a6a80"
         id="path7" /><path
         d="M69.55,112.319c7.25-8.333,13.78-17.034,19.205-26.739c0.675-1.208-0.166-2.863-1.62-2.823    c-11.346,0.312-22.544,2.193-33.884,2.625c-0.459,0.017-0.973,0.243-1.186,0.68l-0.029,0.059c-0.043,0.089-0.017,0.168-0.04,0.256    c-0.043,0.123-0.058,0.241-0.06,0.378c0.002,0.137,0.018,0.256,0.06,0.378c0.023,0.087-0.003,0.167,0.04,0.256l0.029,0.059    c0.213,0.438,0.726,0.663,1.186,0.68c10.207,0.389,20.266-0.971,30.441-1.448c-5.516,9.192-11.936,17.598-19.129,25.618    c-1.162,1.297-0.312,3.093,1.346,3.245c12.406,1.146,26.945,8.488,28.318,22.37c2.095,21.176-33.795,24.355-34.28,1.2    c-0.049-2.35-3.579-2.346-3.643,0c-0.561,21.086,23.033,25.197,36.007,12.411C109.816,134.278,86.651,116.012,69.55,112.319z"
         fill="#5a6a80"
         id="path9" /><path
         d="M124.571,130.013c0.139-14.773,1.539-31.334-1.667-45.877c-0.39-1.765-2.527-1.609-3.424-0.447    c-5.135,6.656-11.338,12.237-15.854,19.347c-0.982,1.547,1.353,2.795,2.396,1.401c4.133-5.514,9.085-10.096,13.758-15.112    c-0.411-4.021-0.428-4.48-0.048-1.377c0.208,1.821,0.292,3.659,0.401,5.487c0.489,8.136,0.559,16.305,0.632,24.453    c0.078,8.615-0.003,17.232-0.248,25.844c-0.072,2.554,0.887,11.011-0.54,13.123c-0.763,1.129,0.695,2.37,1.776,1.776    C127.294,155.592,124.525,134.898,124.571,130.013z"
         fill="#5a6a80"
         id="path11" /><path
         d="M49.259,67.32C40.353,56.724,32.77,44.721,22.658,35.195c-0.825-0.777-1.982,0.398-1.235,1.235    C30.747,46.876,38.071,58.802,47.18,69.4C48.422,70.844,50.467,68.758,49.259,67.32z"
         fill="#5a6a80"
         id="path13" /><path
         d="M188.896,65.484c-9.244-12.131-19.7-23.676-29.986-34.935c-0.36-0.394-0.889,0.106-0.692,0.534    c2.64,5.746,7.274,10.615,11.294,15.418c5.671,6.776,11.452,13.457,16.808,20.49C187.468,68.501,190.063,67.015,188.896,65.484z"
         fill="#5a6a80"
         id="path15" /><path
         d="M189.868,56.545c-0.928-1.844-2.915-3.192-4.321-4.676c-2.576-2.719-4.919-5.668-7.286-8.566    c-3.296-4.036-7.38-11.009-12.429-13.012c-0.479-0.19-0.944,0.459-0.666,0.866c3.563,5.217,8.206,10.004,12.088,15.025    c2.602,3.365,7.035,11.389,11.771,11.835C189.816,58.091,190.169,57.146,189.868,56.545z"
         fill="#5a6a80"
         id="path17" /></g></g><g
     id="g19" /><g
     id="g21" /><g
     id="g23" /><g
     id="g25" /><g
     id="g27" /><g
     id="g29" /><g
     id="g31" /><g
     id="g33" /><g
     id="g35" /><g
     id="g37" /><g
     id="g39" /><g
     id="g41" /><g
     id="g43" /><g
     id="g45" /><g
     id="g47" /></svg>