<?xml version="1.0" encoding="UTF-8" standalone="no"?>
<!-- Generator: Adobe Illustrator 16.0.0, SVG Export Plug-In . SVG Version: 6.00 Build 0)  -->

<svg
   xmlns:dc="http://purl.org/dc/elements/1.1/"
   xmlns:cc="http://creativecommons.org/ns#"
   xmlns:rdf="http://www.w3.org/1999/02/22-rdf-syntax-ns#"
   xmlns:svg="http://www.w3.org/2000/svg"
   xmlns="http://www.w3.org/2000/svg"
   xmlns:sodipodi="http://sodipodi.sourceforge.net/DTD/sodipodi-0.dtd"
   xmlns:inkscape="http://www.inkscape.org/namespaces/inkscape"
   version="1.1"
   id="Capa_1"
   x="0px"
   y="0px"
   width="512px"
   height="512px"
   viewBox="0 0 195.194 195.194"
   style="enable-background:new 0 0 195.194 195.194;"
   xml:space="preserve"
   inkscape:version="0.91 r13725"
   sodipodi:docname="paper.svg"
   inkscape:export-filename="/opt/librecores/site/web/img/freepik/paper.png"
   inkscape:export-xdpi="34.980457"
   inkscape:export-ydpi="34.980457"><metadata
     id="metadata57"><rdf:RDF><cc:Work
         rdf:about=""><dc:format>image/svg+xml</dc:format><dc:type
           rdf:resource="http://purl.org/dc/dcmitype/StillImage" /></cc:Work></rdf:RDF></metadata><defs
     id="defs55" /><sodipodi:namedview
     pagecolor="#ffffff"
     bordercolor="#666666"
     borderopacity="1"
     objecttolerance="10"
     gridtolerance="10"
     guidetolerance="10"
     inkscape:pageopacity="0"
     inkscape:pageshadow="2"
     inkscape:window-width="1920"
     inkscape:window-height="1031"
     id="namedview53"
     showgrid="false"
     inkscape:zoom="0.4609375"
     inkscape:cx="5.4237288"
     inkscape:cy="256"
     inkscape:window-x="0"
     inkscape:window-y="25"
     inkscape:window-maximized="1"
     inkscape:current-layer="Capa_1" /><g
     id="g3"><g
       id="g5"><path
         d="M140.565,12.8c-0.156-1.88-1.48-2.837-2.861-2.93c-0.358-1.107-1.157-2.026-2.428-2.231    c-17.716-2.861-36.386-1.783-54.32-2.237C58.196,4.825,35.34,4.701,12.704,7.386c-1.395,0.166-2.354,0.927-2.957,1.882    c-0.394-0.059-0.81-0.03-1.246,0.216c-13.707,7.719-6.897,44.009-6.175,56.213c2.302,38.902-0.208,77.752-0.217,116.692    c-0.001,3.085,2.699,4.348,5.04,3.915c0.366,0.345,0.829,0.627,1.518,0.723c13.282,1.858,26.877,2.312,40.275,2.509    c8.968,0.131,22.897,1.56,30.043-4.861c1.776-1.598,0.884-4.878-1.427-5.402c-8.814-1.999-19.447,1.184-28.616,1.253    c-12.758,0.097-25.707-1.212-38.416,0.213c0.347-33.632,2.963-67.474,1.312-101.077c-0.637-12.956-1.747-25.87-2.082-38.843    c-0.217-8.421,2.144-17.588,1.983-25.963c0.313,0.065,0.595,0.168,0.965,0.159c20.482-0.482,40.909-0.625,61.395-0.262    c19.767,0.351,40.532,2.926,60.155,0.13c-2.052,24.851-4.266,52.842-0.689,77.396c0.57,3.908,7.29,3.908,7.859,0    C145.1,67.044,142.658,38.153,140.565,12.8z"
         fill="#5a6a80"
         id="path7" /><path
         d="M190.229,112.35c-0.332,0.246-0.651,0.515-0.979,0.765c-2.672-5.764-8.101-10.803-11.63-15.867    c-1.508-2.165-4.046-2.448-6.054-0.781c-17.666,14.669-34.982,29.834-51.8,45.485c-1.53-1.956-3.329-3.749-4.961-5.463    c-3.928-4.126-7.993-8.183-12.35-11.857c-1.137-0.959-2.397-0.781-3.241-0.097c-0.326,0.02-0.655,0.043-1.02,0.186    c-3.514,1.361-6.548,4.153-9.134,6.837c-2.217,2.299-5.353,5.329-6.142,8.54c-0.484,0.12-0.973,0.261-1.474,0.416    c0.041,0.031,0.082,0.062,0.123,0.094c-1.057,0.208-1.975,0.851-2.318,2.101c-0.167,0.608-0.099,1.277,0.125,1.895    c-0.348,0.658-0.431,1.446,0.044,2.205c8.675,13.88,17.713,27.643,27.567,40.717c0.711,0.944,1.644,1.429,2.603,1.578    c1.08,1.084,2.947,1.511,4.508,0.287c15.196-11.912,29.993-24.36,44.563-37.027c12.326-10.716,27.05-21.743,36.073-35.507    C196.476,114.198,192.912,110.365,190.229,112.35z M183.455,117.771c-0.42,0.356-0.822,0.741-1.239,1.104    c-1.208-1.104-2.435-2.188-3.534-3.32c-2.683-2.76-5.036-5.771-6.962-9.07c0.614-0.527,1.228-1.056,1.843-1.582    C176.606,109.366,179.793,113.969,183.455,117.771z M100.81,130.921c0.123-0.085,0.191-0.207,0.299-0.304    c2.35,2.659,4.744,5.277,7.04,7.984c1.739,2.05,3.245,4.409,4.813,6.705c-4.428-4.48-8.649-9.173-12.503-14.138    C100.577,131.087,100.688,131.003,100.81,130.921z M112.6,182.27c-8.954-12.22-17.717-24.697-27.581-36.207    c1.287-0.465,2.414-1.197,3.291-2.496c0.412-0.611,0.4-1.275,0.172-1.869c0.034-0.033,0.064-0.069,0.098-0.103    c3.702,7.771,8.054,15.171,12.769,22.369c3.209,4.9,7.406,12.55,12.838,15.184c0.767,0.373,1.487,0.229,1.989-0.179    C114.985,180.073,113.775,181.153,112.6,182.27z M116.397,178.762c0.448-0.517,0.616-1.293,0.258-2.086    c-2.709-6.004-9.291-11.39-13.297-16.658c-4.768-6.271-9.037-12.929-12.837-19.825c-0.097-0.175-0.214-0.304-0.342-0.398    c0.469-0.566,0.905-1.1,1.299-1.5c0.099-0.101,0.203-0.186,0.302-0.283c0.017,0.036-0.006,0.07,0.017,0.106    c4.554,7.125,10.38,13.298,16.013,19.572c2.91,3.242,5.809,6.491,8.65,9.794c1.798,2.091,3.491,4.554,6.156,5.447    c0.029,0.01,0.063-0.004,0.094,0.004C120.584,174.853,118.496,176.814,116.397,178.762z M124.855,171.025    c-0.908-5.806-8.861-10.929-12.85-14.729c-6.495-6.185-12.809-12.564-18.571-19.443c-0.08-0.095-0.185-0.084-0.278-0.136    c1.745-1.568,3.603-2.939,5.512-4.286c4.878,6.922,10.467,13.276,16.159,19.536c3.985,4.381,9.127,11.573,14.749,14.893    C128.008,168.251,126.42,169.625,124.855,171.025z M133.101,163.754c-3.278-4.459-9.245-8.287-13.391-11.931    c1.985,0.109,3.893-1.512,3.264-3.882c-0.027-0.103-0.074-0.199-0.104-0.301c0.643-0.494,1.26-1.019,1.898-1.517    c1.931,2.021,3.847,4.059,5.848,6.013c2.19,2.139,5.256,6.045,8.479,6.278c0.046,0.005,0.073-0.025,0.116-0.026    C137.172,160.175,135.137,161.965,133.101,163.754z M140.576,157.189c0.093-0.408,0.101-0.842-0.079-1.22    c-0.557-1.18-1.392-1.629-2.453-2.356c-1.741-1.19-3.345-2.592-4.943-3.962c-2.042-1.748-4.018-3.571-5.98-5.409    c2.2-1.738,4.355-3.534,6.527-5.307c2.486,2.66,5.001,5.291,7.676,7.765c1.809,1.672,3.768,3.503,6.036,4.533    C145.098,153.218,142.841,155.206,140.576,157.189z M152.775,146.477c-0.768,0.68-1.544,1.354-2.314,2.033    c-2.682-1.93-5.497-3.631-8.086-5.722c-2.236-1.805-4.37-3.73-6.489-5.674c2.881-2.374,5.698-4.825,8.548-7.236    c2.168,2.432,4.447,4.766,6.896,6.901c2.045,1.783,4.538,3.985,7.348,4.242C156.722,142.868,154.768,144.714,152.775,146.477z     M161.428,138.437c-0.224-0.438-0.573-0.819-1.048-1.008c-4.907-1.944-9.53-5.711-13.357-9.743    c2.688-2.289,5.354-4.595,8.031-6.894c1.307,1.536,2.604,3.085,3.919,4.615c2.068,2.41,4.972,6.701,8.34,7.329    C165.351,134.644,163.392,136.55,161.428,138.437z M169.395,130.722c-0.037-0.123-0.013-0.236-0.082-0.361    c-1.6-2.905-5.452-5.153-7.827-7.467c-1.385-1.35-2.734-2.734-4.089-4.114c1.566-1.347,3.135-2.689,4.702-4.036    c2.375,2.434,4.854,4.773,7.383,7.037c1.354,1.213,3.05,3.074,4.923,4.17C172.729,127.533,171.053,129.116,169.395,130.722z     M164.525,112.661c1.912-1.643,3.827-3.284,5.739-4.927c1.454,2.998,3.231,5.796,5.262,8.502c1.217,1.622,2.525,3.406,3.944,5.084    c-0.505,0.458-1.021,0.897-1.523,1.357C173.464,120.219,168.69,116.33,164.525,112.661z"
         fill="#5a6a80"
         id="path9" /><path
         d="M35.331,32.36c-1.144,0.112-2.286,0.24-3.429,0.364c-5.242,0.567-5.242,7.582,0,8.149    c1.143,0.124,2.285,0.252,3.429,0.364C41.051,41.797,41.051,31.799,35.331,32.36z"
         fill="#5a6a80"
         id="path11" /><path
         d="M116.439,33.039c-1.449-1.935-3.111-2.626-5.51-2.242c-17.367,2.777-38.347-4.252-54.727,3.159    c-1.062,0.48-2.007,2.074-1.859,3.242c0.07,0.556,0.023,1.731,0.563,2.195c4.933,4.234,19.33,1.57,25.493,1.676    c10.992,0.189,22.238,1.082,33.124-0.861c1.51-0.269,3.148-1.891,3.409-3.408C117.166,35.432,117.325,34.223,116.439,33.039z"
         fill="#5a6a80"
         id="path13" /><path
         d="M40.392,58.37c-4.067,1.132-8.33,1.907-12.458,2.838c-2.699,0.609-2.836,5.065,0,5.575c2.008,0.361,3.94,0.3,5.965,0.117    c2.029-0.184,4.471-0.947,6.494-0.478c2.628,0.61,5.285-1.228,5.285-4.026C45.677,59.688,43.01,57.641,40.392,58.37z"
         fill="#5a6a80"
         id="path15" /><path
         d="M113.303,60.929c-5.816,3.382-19.79,0.058-26.078-0.481c-9.908-0.85-20.712-2.795-30.616-1.284    c-3.277,0.5-3.148,5.853,0,6.465c12.626,2.456,25.691,4.277,38.504,5.349c6.83,0.572,20.923,2.98,23.409-6.038    C119.353,61.926,115.999,59.361,113.303,60.929z"
         fill="#5a6a80"
         id="path17" /><path
         d="M39.171,84.123c-1.468-0.162-3.637,0.521-4.834,0.66c-1.222,0.142-1.912-0.016-2.687-0.064    c-1.175-0.913-3.362-0.113-3.455,1.676c-0.027,0.232-0.026,0.325-0.005,0.313c-0.402,1.159-0.347,2.524,0.651,3.394    c1.627,1.418,3.389,1.755,5.495,1.894c1.862,0.122,4.055,0.215,5.869-0.223c1.677-0.405,2.859-2.064,2.859-3.755    C43.065,85.719,41.279,84.354,39.171,84.123z"
         fill="#5a6a80"
         id="path19" /><path
         d="M116.737,85.187c-6.805-3.07-16.904,0.227-24.465-0.006c-11.001-0.339-22.183-1.666-33.172-0.7    c-4.57,0.402-4.469,6.508,0,7.026c12.091,1.401,24.316,2.903,36.48,3.381c6.735,0.265,18.413,1.463,22.324-5.252    C118.725,88.227,118.356,85.918,116.737,85.187z"
         fill="#5a6a80"
         id="path21" /></g></g><g
     id="g23" /><g
     id="g25" /><g
     id="g27" /><g
     id="g29" /><g
     id="g31" /><g
     id="g33" /><g
     id="g35" /><g
     id="g37" /><g
     id="g39" /><g
     id="g41" /><g
     id="g43" /><g
     id="g45" /><g
     id="g47" /><g
     id="g49" /><g
     id="g51" /></svg>