<?xml version="1.0" encoding="UTF-8" standalone="no"?>
<!-- Generator: Adobe Illustrator 16.0.0, SVG Export Plug-In . SVG Version: 6.00 Build 0)  -->

<svg
   xmlns:dc="http://purl.org/dc/elements/1.1/"
   xmlns:cc="http://creativecommons.org/ns#"
   xmlns:rdf="http://www.w3.org/1999/02/22-rdf-syntax-ns#"
   xmlns:svg="http://www.w3.org/2000/svg"
   xmlns="http://www.w3.org/2000/svg"
   xmlns:sodipodi="http://sodipodi.sourceforge.net/DTD/sodipodi-0.dtd"
   xmlns:inkscape="http://www.inkscape.org/namespaces/inkscape"
   version="1.1"
   id="Capa_1"
   x="0px"
   y="0px"
   width="128px"
   height="128px"
   viewBox="0 0 193.479 193.479"
   style="enable-background:new 0 0 193.479 193.479;"
   xml:space="preserve"
   inkscape:version="0.91 r13725"
   sodipodi:docname="right-arrow-on-a-pole-sketch.svg"
   inkscape:export-filename="/opt/librecores/site/web/img/freepik/right-arrow-on-a-pole-sketch.png"
   inkscape:export-xdpi="150"
   inkscape:export-ydpi="150"><metadata
     id="metadata47"><rdf:RDF><cc:Work
         rdf:about=""><dc:format>image/svg+xml</dc:format><dc:type
           rdf:resource="http://purl.org/dc/dcmitype/StillImage" /></cc:Work></rdf:RDF></metadata><defs
     id="defs45" /><sodipodi:namedview
     pagecolor="#ffffff"
     bordercolor="#666666"
     borderopacity="1"
     objecttolerance="10"
     gridtolerance="10"
     guidetolerance="10"
     inkscape:pageopacity="0"
     inkscape:pageshadow="2"
     inkscape:window-width="1920"
     inkscape:window-height="1031"
     id="namedview43"
     showgrid="false"
     inkscape:zoom="1.84375"
     inkscape:cx="1.3559322"
     inkscape:cy="64"
     inkscape:window-x="0"
     inkscape:window-y="25"
     inkscape:window-maximized="1"
     inkscape:current-layer="Capa_1" /><g
     id="g3"><g
       id="g5"><path
         d="M169.999,64.257c-6.393-8.706-15.725-19.171-25.913-23.43c-0.244-0.49-0.617-0.901-1.143-1.134    c-6.117-2.712-13.389-1.105-19.934-0.73c-12.136,0.695-24.261,1.499-36.408,1.983c-10.992,0.439-21.985,0.516-32.975,0.018    c-7.934-0.36-17.876-4.439-25.424-2.398c-0.677,0.183-1.028,1.01-0.658,1.616c2.313,3.791,7.163,6.052,13.047,7.387    c-0.015,0.411,0.127,0.835,0.542,1.138c19.342,14.167,40.521,27.696,61.288,40.218c-1.23-0.067-2.445-0.13-3.613-0.178    c-4.098-0.166-8.245-0.347-12.396-0.523c-2.543-2.378-5.929-4.125-8.674-6.07c-6.409-4.54-12.756-9.165-19.164-13.706    c-6.477-4.591-12.978-9.148-19.548-13.607c-2.352-1.596-4.964-3.683-7.73-5.03c-0.19-1.988-0.563-3.906-1.27-5.659    c-1.132-2.81-4.59-2.811-5.722,0c-2.326,5.775-1.014,13.314-0.912,19.407c0.135,8.098-0.807,18.204,1.824,25.984    c0.479,1.418,1.529,2.092,2.629,2.197c0.053,1.556,1.016,3.047,3.306,3.233c24.134,1.962,48.497,1.234,72.681,2.211    c7.975,0.321,29.975,3.295,37.295-1.79c0.878-0.61,1.458-1.622,1.685-2.69c10.019-6.897,20.15-14.692,27.187-24.564    C170.718,67.133,170.738,65.264,169.999,64.257z M31.445,87.898c0.287-3.266,0.272-6.616,0.186-9.975    c1.79,1.221,3.628,2.375,5.493,3.493c3.491,2.093,7.512,4.965,11.569,5.841C42.9,87.314,37.139,87.503,31.445,87.898z     M50.321,87.258c0.745-0.382,1.134-1.328,0.375-2.071c-2.805-2.747-6.978-4.062-10.443-5.859    c-3.024-1.568-5.899-3.353-8.729-5.218c-0.121-2.971-0.246-5.924-0.3-8.837c4.878,5.603,10.985,10.407,16.664,14.889    c2.209,1.742,5.571,4.798,9.171,7.154C54.812,87.293,52.561,87.246,50.321,87.258z M67.954,87.529    c-0.053-0.035-0.062-0.094-0.121-0.124c-13.555-6.69-26.396-15.486-36.588-26.799c0.073-2.012,0.192-4.114,0.217-6.209    c6.588,5.95,16.411,10.982,22.579,15.634c6.411,4.836,12.819,9.675,19.258,14.474c1.321,0.985,2.72,2.183,4.176,3.374    C74.303,87.756,71.135,87.623,67.954,87.529z M140.487,45.784c5.357,7.914,14.61,13.407,21.312,20.671    c-0.52,0.727-1.069,1.418-1.615,2.112c-4.2-4.438-10.261-7.808-15.131-11.161c-4.915-3.384-10.21-7.696-15.854-10.097    C133.146,47.212,137.047,46.876,140.487,45.784z M136.115,88.343c-0.787,0.07-1.394,0.357-1.873,0.74    c-2.387,0.335-4.892,0.496-7.434,0.594c-2.582-7.073-16.964-13.171-22.204-16.33c-12.935-7.799-25.931-16.4-39.682-22.713    c-1.28-0.587-2.305,1.103-1.111,1.9c10.32,6.89,21.309,12.86,31.835,19.438c8.101,5.06,18.68,10.754,25.896,17.797    c-3.448-0.024-6.929-0.155-10.334-0.34C93.052,72.079,66.931,61.666,45.545,48.444c10.949,1.509,23.739,0.721,30.939,0.583    c0.005,0.38,0.161,0.745,0.565,0.938c11.485,5.478,22.433,11.836,33.025,18.882c8.982,5.975,17.113,13.494,26.045,19.497    C136.118,88.343,136.116,88.343,136.115,88.343z M141.189,87.295c-6.11-8.426-17.971-14.176-26.503-19.491    c-10.927-6.807-22.168-13.661-34-18.852c5.016-0.062,10.032-0.246,15.047-0.474c8.505,7.182,17.612,13.603,26.819,19.848    c5.944,4.032,15.282,12.642,22.863,12.694c1.396,0.01,1.95-1.649,1.084-2.618c-5.114-5.719-15.576-9.185-22.125-13.194    c-8.645-5.291-17.091-10.944-25.312-16.88c4.501-0.225,8.999-0.486,13.494-0.74c-0.023,0.251,0.048,0.504,0.287,0.694    c6.356,5.088,13.011,9.733,19.737,14.316c6.066,4.134,12.207,10.468,19.083,13.004c1.159,0.428,2.462-1.155,1.676-2.18    c-4.099-5.335-11.41-8.307-17.056-11.801c-7.237-4.48-14.373-9.183-21.276-14.168c0.175-0.01,0.351-0.019,0.526-0.029    c3.153-0.177,6.674-0.084,10.25-0.076c-0.094,0.362-0.075,0.754,0.228,1.052c4.041,3.969,9.288,6.919,13.843,10.263    c5.687,4.175,11.168,9.848,17.264,13.551C152.191,77.629,146.571,82.231,141.189,87.295z"
         fill="#5a6a80"
         id="path7" /><path
         d="M102.898,1.386C94.02,1.267,85.205,0.042,76.326,0c-2.033-0.01-3.771,1.714-3.754,3.753    c0.071,8.381-0.093,16.923,1.357,25.205c0.215,1.231,1.407,2.203,2.538,2.538c0.049,0.015,0.08,0.005,0.127,0.018    c-0.055,1.343,0.779,2.743,2.389,2.624c7.629-0.565,14.95-0.757,22.587-0.234c1.988,0.137,3.525-1.733,3.578-3.579    c0.242-8.43,1.321-16.811,1.446-25.244C106.626,3.047,104.89,1.413,102.898,1.386z M99.074,8.66    c-0.149,3.677-0.395,7.35-0.622,11.023c-2.231-1.529-4.58-2.934-6.755-4.453c-3.547-2.476-7.104-4.909-10.863-7.054    c-0.285-0.162-0.558-0.179-0.794-0.105c0.001-0.141,0-0.282,0.001-0.423C86.39,7.907,92.724,8.435,99.074,8.66z M80.577,28.839    c0.258-1.514,0.122-3.294-0.014-4.557c-0.299-2.771-0.443-5.561-0.506-8.356c1.474,1.398,3.019,2.724,4.637,3.967    c3.325,2.554,6.955,5.775,10.935,7.234C90.583,27.453,85.521,27.872,80.577,28.839z M96.853,27.048    c0.349-0.351,0.459-0.968,0.086-1.391c-2.645-2.999-6.745-4.834-10.027-7.093c-2.49-1.715-4.773-3.618-6.887-5.719    c-0.004-0.905,0.005-1.81,0.008-2.715c3.114,2.043,6.157,4.19,9.168,6.383c2.956,2.152,5.896,4.776,9.065,6.76    c-0.062,1.232-0.154,2.462-0.189,3.695C97.67,26.993,97.261,27.022,96.853,27.048z"
         fill="#5a6a80"
         id="path9" /><path
         d="M102.582,107.389c-0.286-2.183-1.472-3.401-3.669-3.67c-7.091-0.864-13.749-1.114-20.745-0.17    c-0.415-0.183-0.839-0.099-1.18,0.133c-1.001,0.159-1.57,0.974-1.718,1.882c-5.115-0.184-5.29,11.454-5.356,15.648    c-0.293,0.456-0.362,1.049-0.042,1.601c-0.713,22.077-2.489,44.992-1.246,66.952c0.114,2.019,1.603,3.716,3.715,3.714    c9.362-0.008,18.594-0.23,27.901-1.308c1.962-0.227,3.814-1.527,3.734-3.735C103.001,161.377,106.112,134.343,102.582,107.389z     M96.508,119.191c-2.307-1.833-4.96-3.424-7.087-5.248c-1.672-1.435-3.291-2.929-4.898-4.438    C93.188,110.299,95.729,113.663,96.508,119.191z M96.961,129.927c-2.844-2.109-5.889-3.991-8.724-6.105    c-3.682-2.746-7.208-5.689-10.8-8.547c0.334-3.724,1.851-4.551-0.385-3.921c1.294-0.364,1.963-1.536,1.948-2.702    c0.077-0.005,0.155-0.006,0.232-0.013c0.114,0.122,0.393,0.241,0.779,0.352c2.374,2.414,4.766,4.808,7.243,7.12    c2.694,2.514,6.011,6.175,9.596,7.806C96.9,125.767,96.907,127.767,96.961,129.927z M75.917,186.015    c-0.11-3.478-0.079-6.949,0.012-10.421c2.151,1.478,4.276,2.992,6.361,4.564c2.201,1.659,4.347,3.663,6.612,5.411    C84.583,185.81,80.26,185.972,75.917,186.015z M93.586,185.255c-2.443-2.613-5.791-4.729-8.602-6.82    c-2.891-2.151-5.877-4.143-8.954-6.005c0.051-1.372,0.128-2.744,0.194-4.116c3.154,3.447,6.656,6.567,10.186,9.695    c2.304,2.041,4.912,4.898,7.708,7.21C93.942,185.23,93.764,185.241,93.586,185.255z M96.39,181.359    c-2.568-1.964-5.343-3.775-7.67-5.659c-4.074-3.299-8.299-6.494-12.384-9.729c0.161-3.11,0.329-6.221,0.484-9.332    c3.515,3.037,6.997,6.119,10.434,9.235c2.241,2.031,5.634,6.321,9.002,6.439c0.077,0.003,0.127-0.059,0.199-0.072    C96.412,175.281,96.36,178.32,96.39,181.359z M96.471,169.94c-0.858-0.546-1.675-1.562-2.445-2.145    c-2.232-1.688-4.424-3.435-6.582-5.218c-3.5-2.89-6.96-5.825-10.492-8.676c0.126-2.812,0.207-5.624,0.251-8.438    c2.296,1.865,4.466,3.904,6.292,5.316c3.113,2.408,8.596,8.615,12.76,8.479c0.172-0.006,0.319-0.079,0.471-0.142    C96.63,162.726,96.536,166.332,96.471,169.94z M96.795,156.427c-1.255-1.33-3.166-2.21-4.631-3.183    c-3.032-2.015-5.994-4.136-8.989-6.203c-1.721-1.188-3.778-2.809-5.962-4.186c0.003-1.107,0.03-2.213,0.011-3.321    c-0.048-2.753-0.088-5.504-0.114-8.255c2.492,2.726,5.047,5.394,7.619,8.038c2.311,2.375,7.565,9.785,11.527,9.296    c0.273-0.034,0.51-0.115,0.705-0.234C96.909,151.062,96.866,153.745,96.795,156.427z M97.014,145.83    c-0.649-0.968-1.62-1.752-2.482-2.474c-2.499-2.096-4.846-4.389-7.199-6.643c-3.488-3.341-6.892-6.787-10.226-10.295    c0-1.416-0.014-2.832,0.003-4.249c0.017-1.053,0.092-2.104,0.137-3.156c2.548,2.188,5.122,4.348,7.682,6.512    c3.57,3.016,7.445,6.736,11.755,8.647c0.111,0.051,0.227,0.056,0.341,0.08C97.077,138.112,97.074,141.972,97.014,145.83z"
         fill="#5a6a80"
         id="path11" /></g></g><g
     id="g13" /><g
     id="g15" /><g
     id="g17" /><g
     id="g19" /><g
     id="g21" /><g
     id="g23" /><g
     id="g25" /><g
     id="g27" /><g
     id="g29" /><g
     id="g31" /><g
     id="g33" /><g
     id="g35" /><g
     id="g37" /><g
     id="g39" /><g
     id="g41" /></svg>