<?xml version="1.0" encoding="UTF-8" standalone="no"?>
<!-- Generator: Adobe Illustrator 16.0.0, SVG Export Plug-In . SVG Version: 6.00 Build 0)  -->

<svg
   xmlns:dc="http://purl.org/dc/elements/1.1/"
   xmlns:cc="http://creativecommons.org/ns#"
   xmlns:rdf="http://www.w3.org/1999/02/22-rdf-syntax-ns#"
   xmlns:svg="http://www.w3.org/2000/svg"
   xmlns="http://www.w3.org/2000/svg"
   xmlns:sodipodi="http://sodipodi.sourceforge.net/DTD/sodipodi-0.dtd"
   xmlns:inkscape="http://www.inkscape.org/namespaces/inkscape"
   version="1.1"
   id="Capa_1"
   x="0px"
   y="0px"
   width="128px"
   height="128px"
   viewBox="0 0 190.923 190.923"
   style="enable-background:new 0 0 190.923 190.923;"
   xml:space="preserve"
   inkscape:version="0.91 r13725"
   sodipodi:docname="share-social-button-sketch.svg"
   inkscape:export-filename="/opt/librecores/site/web/img/freepik/share-social-button-sketch.png"
   inkscape:export-xdpi="150"
   inkscape:export-ydpi="150"><metadata
     id="metadata47"><rdf:RDF><cc:Work
         rdf:about=""><dc:format>image/svg+xml</dc:format><dc:type
           rdf:resource="http://purl.org/dc/dcmitype/StillImage" /></cc:Work></rdf:RDF></metadata><defs
     id="defs45" /><sodipodi:namedview
     pagecolor="#ffffff"
     bordercolor="#666666"
     borderopacity="1"
     objecttolerance="10"
     gridtolerance="10"
     guidetolerance="10"
     inkscape:pageopacity="0"
     inkscape:pageshadow="2"
     inkscape:window-width="1920"
     inkscape:window-height="1031"
     id="namedview43"
     showgrid="false"
     inkscape:zoom="1.84375"
     inkscape:cx="1.3559322"
     inkscape:cy="64"
     inkscape:window-x="0"
     inkscape:window-y="25"
     inkscape:window-maximized="1"
     inkscape:current-layer="Capa_1" /><g
     id="g3"><g
       id="g5"><path
         d="M155.131,144.894c-9.666,0.007-16.176,7.685-17.958,16.786c-28.522-12.575-58.179-22.363-86.614-35.155    c1.893-3.535,3.104-7.296,3.376-10.859c0.479-6.301-1.412-12.885-4.847-18.087c23.065-17.437,44.169-35.877,69.062-50.804    c0.113-0.068,0.124-0.181,0.209-0.264c2.1,2.506,4.761,4.513,8.071,5.733c15.898,5.856,31.402-8.84,32.978-23.876    c1.524-14.56-6.356-30.483-22.488-27.271c-20.662-7.593-31.083,26.157-20.197,43.179c-12.061,2.956-23.474,12.807-32.998,20.302    C71.3,74.356,59.127,84.661,47.598,95.5c-5.632-7.003-14.37-10.52-23.729-5.24c-25.421-3.122-21.541,43.536-1.369,50.669    c10.753,3.802,21.312-3.32,27.057-12.672c28.165,14.338,58.228,24.107,87.182,36.682c-0.115,1.673-0.087,3.366,0.123,5.048    c2.024,16.182,17.304,23.856,32.218,19.92C200.172,181.699,179.79,128.373,155.131,144.894z M117.279,37.711    c0.515,0.803,0.982,1.454,1.184,1.745c1.893,2.745,4.042,5.324,6.24,7.827c0.023,0.027,0.054,0.065,0.078,0.092    C120.972,45.322,118.61,41.799,117.279,37.711z M154.804,17.091c-1.544-1.784-3.221-3.467-4.775-5.238    c-1.859-2.117-3.521-4.37-5.157-6.649C150.069,6.846,153.325,11.472,154.804,17.091z M143.385,4.726    c3.04,5.12,7.027,10.562,11.574,14.233c0.108,0.087,0.218,0.101,0.325,0.114c0.234,1.278,0.401,2.581,0.47,3.902    c-1.652-2.877-4.673-5.476-6.779-7.985c-2.987-3.559-5.96-7.168-9.231-10.477C141.039,4.435,142.252,4.514,143.385,4.726z     M133.932,3.704c0.246,0.884,1.067,1.617,2.227,1.329c0.81-0.201,1.577-0.319,2.334-0.417c3.526,3.824,6.614,8.054,9.766,12.185    c1.603,2.099,4.103,6.952,6.909,7.555c0.253,0.054,0.467-0.036,0.633-0.176c0.024,1.802-0.088,3.607-0.361,5.36    c-0.241,1.543-0.696,3.036-1.247,4.494c-4.907-4.01-8.591-10.823-12.158-15.824c-3.172-4.445-6.213-10.207-10.242-14.121    C132.491,3.943,133.185,3.786,133.932,3.704z M116.53,20.404c0.124-0.618,0.309-1.162,0.462-1.746    c2.714,6.045,6.212,11.668,10.14,17.004c3.278,4.452,7.074,9.725,11.846,12.642c0.672,0.41,1.275-0.491,0.802-1.039    c-8.321-9.635-16.832-18.188-22.461-29.843c0.539-1.735,1.248-3.265,2.058-4.67c4.962,3.499,8.743,11.512,12.006,16.291    c2.441,3.574,4.857,7.166,7.331,10.717c1.264,1.814,2.62,4.565,4.617,5.666c0.509,0.281,1.256-0.186,1.04-0.799    c-0.88-2.489-3.295-4.694-4.845-6.829c-2.895-3.985-5.705-8.031-8.572-12.035c-2.882-4.024-6.612-11.004-11.235-13.636    c0.843-1.35,1.842-2.506,2.939-3.535c3.675,5.855,7.936,11.46,11.937,17.071c3.661,5.134,7.71,11.96,13.128,15.362    c0.557,0.349,1.321-0.362,0.927-0.926c-4.118-5.876-9.521-11.047-13.865-16.822c-3.741-4.974-7.209-10.578-11.543-15.131    c1.155-0.993,2.46-1.792,3.853-2.474c3.682,6.449,7.847,12.598,12.218,18.601c3.238,4.446,7.093,11.207,12.073,13.808    c0.547,0.286,1.25-0.31,0.884-0.884c-3.464-5.434-8.638-10.185-12.567-15.339c-4.106-5.385-8.047-10.94-11.706-16.649    c0.893-0.377,1.831-0.692,2.815-0.943c3.497,6.355,8.214,12.354,12.304,18.303c2.483,3.614,6.064,10.694,10.419,13    c-3.385,7.364-10.406,13.076-18.268,13.88c-6.166-8.429-13.615-15.703-19.324-24.561C116.061,23.322,116.25,21.8,116.53,20.404z     M116.766,31.919c0.286-0.112,0.179-0.513-0.127-0.46c-0.298,0.052-0.463,0.194-0.653,0.317c-0.203-1.965-0.236-3.945-0.137-5.856    c2.696,4.619,5.672,9.05,8.907,13.313c2.673,3.52,5.488,7.401,8.912,10.299c-1.699,0.028-3.422-0.152-5.146-0.621    C124.318,43.944,114.212,32.913,116.766,31.919z M48.844,106.824c-1.701-2.359-3.591-4.614-5.27-6.982    c-1.718-2.422-3.419-4.862-5.221-7.224C43.454,94.942,47.095,100.524,48.844,106.824z M36.847,91.977    c1.871,2.84,3.785,5.653,5.665,8.486c2.005,3.021,3.917,6.557,6.628,9c0.112,0.101,0.243,0.129,0.371,0.144    c0.194,1.058,0.369,2.119,0.454,3.179c-2.532-2.307-4.885-6.218-6.556-8.35c-3.331-4.247-6.44-8.646-9.595-13.02    C34.873,91.463,35.875,91.68,36.847,91.977z M23.341,137.258c-0.066-0.252-0.205-0.489-0.502-0.605    c-0.882-0.344-1.898-1.916-2.486-2.608c-1.569-1.851-2.969-3.855-4.403-5.812c-1.829-2.494-3.71-4.952-5.694-7.323    c-0.584-2.286-0.931-4.652-1.034-7c3.724,4.547,7.507,9.05,11.289,13.55c2.867,3.412,5.805,7.421,9.297,10.338    C27.625,138.044,25.437,137.9,23.341,137.258z M31.772,137.474c-2.88-4.013-6.728-7.584-10.005-11.271    c-4.124-4.644-8.177-9.37-12.565-13.77c0.002-1.654,0.177-3.267,0.437-4.845c6.666,10.762,15.295,20.302,24.198,29.255    C33.151,137.07,32.468,137.318,31.772,137.474z M35.781,136.099c-9.345-9.474-18.178-19.165-25.872-30.045    c0.301-1.339,0.732-2.607,1.239-3.822c6.095,12.303,19.003,20.769,26.755,32.006c0.188,0.274,0.447,0.36,0.709,0.367    C37.693,135.16,36.752,135.672,35.781,136.099z M39.535,134.001c0.055-0.197,0.042-0.421-0.104-0.656    c-7.54-12.096-19.554-20.599-27.813-32.205c0.592-1.209,1.327-2.299,2.15-3.307c4.816,6.633,9.607,13.296,14.55,19.836    c3.499,4.629,7.819,12.111,13.196,14.878C40.875,133.059,40.217,133.549,39.535,134.001z M45.739,128.177    c-3.843-6.737-10.241-13.105-14.947-19.061c-2.778-3.516-5.587-7.009-8.575-10.35c-0.957-1.071-2.339-3.021-3.971-3.091    c-0.19-0.008-0.265,0.27-0.097,0.359c1.759,0.93,3.424,3.768,4.646,5.267c2.996,3.673,5.852,7.464,8.706,11.247    c4.043,5.358,7.894,12.534,12.913,17.21c-0.603,0.656-1.208,1.312-1.881,1.91c-3.646-5.269-8.979-9.878-12.996-14.939    c-5.117-6.447-9.956-13.132-15.223-19.457c2.028-2.236,4.643-3.884,8.03-4.485c3.221,5.469,6.94,10.636,10.89,15.598    c4.271,5.365,8.923,11.794,14.598,15.736c0.133,0.092,0.277,0.107,0.413,0.078C47.569,125.58,46.721,126.915,45.739,128.177z     M48.658,123.23c-3.198-4.676-7.775-8.574-11.546-12.802c-4.637-5.198-8.956-10.65-12.95-16.35    c0.271-0.013,0.558-0.093,0.851-0.264c0.793-0.464,1.558-0.789,2.323-1.117c-0.112,0.15-0.172,0.332-0.039,0.505    c3.606,4.733,7.255,9.432,10.961,14.088c3.575,4.489,6.967,9.556,11.205,13.465C49.249,121.591,49,122.421,48.658,123.23z     M49.83,118.893c-2.917-3.812-6.368-7.3-9.467-10.945c-4.241-4.989-8.254-10.19-12.282-15.351    c-0.073-0.093-0.169-0.118-0.265-0.131c1.72-0.683,3.354-1.002,4.911-1.068c3.079,5.514,6.989,10.684,10.766,15.722    c1.383,1.844,3.884,6.291,6.563,7.793C50.068,116.27,50.015,117.61,49.83,118.893z M180.64,162.926    c-2.576-3.055-5.783-5.723-8.582-8.539c-2.785-2.804-5.459-5.688-8.098-8.612C172.357,145.301,178.891,153.574,180.64,162.926z     M140.974,171.663c0.569,1.067,1.175,2.066,1.644,2.89c1.473,2.59,3.341,5.754,5.506,8.433    C144.769,180.234,142.236,176.36,140.974,171.663z M153.03,185.959c0,0,0-0.002-0.001-0.003c-2.43-3.597-5.59-6.719-8.046-10.343    c-1.431-2.108-4.478-6.052-4.817-9.239c-0.016-0.5,0.051-0.963,0.072-1.448c0.031-0.141,0.021-0.296,0.069-0.431    c0.016-0.042-0.039-0.054-0.044-0.09c0.072-1.028,0.229-2.019,0.455-2.971c0.814,4.01,3.565,7.866,5.716,11.034    c3.188,4.695,7.028,11.248,11.475,14.812C156.22,187.015,154.571,186.616,153.03,185.959z M164.862,187.222    c-0.065,0.001-0.117,0.013-0.181,0.033c-0.169,0.024-0.34,0.073-0.509,0.094c-0.516-3.188-6.636-10.003-8.916-13.085    c-2.03-2.744-4.132-5.429-6.194-8.15c-1.562-2.061-6.465-7.532-5.265-10.412c0.05-0.121-0.151-0.205-0.211-0.09    c-2.707,5.317,7.104,14.727,9.897,18.637c2.296,3.214,4.393,6.569,6.639,9.819c0.573,0.83,1.396,2.279,2.374,3.395    c-1.341,0.064-2.669,0.051-3.961-0.114c0.13-0.087,0.215-0.231,0.152-0.432c-1.433-4.576-6.479-8.96-9.322-12.691    c-3.391-4.447-6.72-9.236-8.021-14.735c0.858-2.325,2.275-4.31,3.99-6.044c6.309,11.412,13.902,24.094,23.67,32.703    C167.617,186.647,166.233,187.005,164.862,187.222z M170.155,185.707c-7.896-11.146-17.077-21.138-24.363-32.77    c0.888-0.833,1.926-1.527,2.979-2.205c1.097,5.454,5.135,10.448,8.345,14.684c4.681,6.177,9.861,12.164,15.177,17.806    c0.613,0.65,1.812-0.236,1.256-0.969c-7.803-10.321-19.878-19.423-23.863-32.161c0.914-0.521,1.955-0.891,2.973-1.29    c3.433,6.11,6.977,12.177,10.939,17.959c3.329,4.857,7.243,10.742,12.573,13.55c0.642,0.338,1.387-0.521,0.801-1.039    c-9.827-8.679-16.943-19.574-23.587-30.785c0.253-0.088,0.461-0.231,0.721-0.312c0.491,0.615,1.301,0.917,2.174,0.327    c0.768-0.52,1.525-0.938,2.277-1.308c0.15-0.021,0.294-0.053,0.444-0.071c0.066-0.009,0.092-0.074,0.15-0.096    c6.664,6.463,13.14,14.086,18.185,21.777c0.549,0.837,2.332,2.845,3.413,3.226C179.715,177.801,176.438,183,170.155,185.707z     M181.05,169.709c-0.281-0.063-0.573,0.062-0.692,0.344c-0.128-0.177-0.253-0.35-0.44-0.608c-0.551-0.763-1.085-1.538-1.62-2.311    c-1.29-1.863-2.774-3.484-4.27-5.19c-4.575-5.222-8.878-10.618-13.92-15.388c0.917-0.337,1.812-0.536,2.696-0.669    c2.315,2.911,4.744,5.744,7.229,8.496c3.264,3.614,6.561,7.779,10.446,10.73c0.153,0.117,0.327,0.146,0.494,0.116    C181.123,166.723,181.163,168.225,181.05,169.709z"
         fill="#5a6a80"
         id="path7" /><path
         d="M155.211,29.159c-2.559-4.041-6.033-7.729-8.975-11.507c-3.421-4.392-6.903-8.733-11.029-12.49    c-0.365-0.333-0.904,0.2-0.544,0.544c4.016,3.831,7.352,8.211,10.594,12.701c2.746,3.802,5.295,8.505,8.891,11.573    C154.706,30.456,155.646,29.845,155.211,29.159z"
         fill="#5a6a80"
         id="path9" /><path
         d="M179.418,174.938c-2.844-4.167-6.871-7.673-10.319-11.332c-3.26-3.46-10.361-9.345-10.487-14.5    c-0.012-0.443-0.636-0.427-0.678,0c-0.421,4.311,4.009,8.621,6.54,11.627c4.37,5.187,9.004,10.26,13.626,15.222    C178.744,176.646,179.959,175.731,179.418,174.938z"
         fill="#5a6a80"
         id="path11" /></g></g><g
     id="g13" /><g
     id="g15" /><g
     id="g17" /><g
     id="g19" /><g
     id="g21" /><g
     id="g23" /><g
     id="g25" /><g
     id="g27" /><g
     id="g29" /><g
     id="g31" /><g
     id="g33" /><g
     id="g35" /><g
     id="g37" /><g
     id="g39" /><g
     id="g41" /></svg>