<?xml version="1.0" encoding="UTF-8" standalone="no"?>
<!-- Generator: Adobe Illustrator 16.0.0, SVG Export Plug-In . SVG Version: 6.00 Build 0)  -->

<svg
   xmlns:dc="http://purl.org/dc/elements/1.1/"
   xmlns:cc="http://creativecommons.org/ns#"
   xmlns:rdf="http://www.w3.org/1999/02/22-rdf-syntax-ns#"
   xmlns:svg="http://www.w3.org/2000/svg"
   xmlns="http://www.w3.org/2000/svg"
   xmlns:sodipodi="http://sodipodi.sourceforge.net/DTD/sodipodi-0.dtd"
   xmlns:inkscape="http://www.inkscape.org/namespaces/inkscape"
   version="1.1"
   id="Capa_1"
   x="0px"
   y="0px"
   width="128px"
   height="128px"
   viewBox="0 0 194.449 194.448"
   style="enable-background:new 0 0 194.449 194.448;"
   xml:space="preserve"
   inkscape:version="0.91 r13725"
   sodipodi:docname="upload-to-internet-cloud-sketch.svg"
   inkscape:export-filename="/opt/librecores/site/web/img/freepik/upload-to-internet-cloud-sketch.png"
   inkscape:export-xdpi="150"
   inkscape:export-ydpi="150"><metadata
     id="metadata43"><rdf:RDF><cc:Work
         rdf:about=""><dc:format>image/svg+xml</dc:format><dc:type
           rdf:resource="http://purl.org/dc/dcmitype/StillImage" /></cc:Work></rdf:RDF></metadata><defs
     id="defs41" /><sodipodi:namedview
     pagecolor="#ffffff"
     bordercolor="#666666"
     borderopacity="1"
     objecttolerance="10"
     gridtolerance="10"
     guidetolerance="10"
     inkscape:pageopacity="0"
     inkscape:pageshadow="2"
     inkscape:window-width="1920"
     inkscape:window-height="1031"
     id="namedview39"
     showgrid="false"
     inkscape:zoom="1.84375"
     inkscape:cx="1.3559322"
     inkscape:cy="64"
     inkscape:window-x="0"
     inkscape:window-y="25"
     inkscape:window-maximized="1"
     inkscape:current-layer="Capa_1" /><g
     id="g3"><g
       id="g5"><path
         d="M153.424,81.841c9.373-14.183,1.669-36.081-15.124-41.588c-18.393-6.031-42.83,3.122-49.303,22.118    c-20.124-23.47-63.566,4.441-52.46,29.803c-19.292-7.489-34.082,11.414-35.594,30.692c-0.012-0.021-0.025-0.038-0.037-0.058    c-0.318-0.538-1.148-0.056-0.838,0.489c0.238,0.418,0.497,0.839,0.74,1.258c-0.048,1.262-0.045,2.522,0.027,3.773    c2.125,37.235,53.237,27.168,76.999,24.288c0.706,0.812,2.276,0.566,2.209-0.725c-0.004-0.066,0.009-0.13,0.006-0.194    c0.231-0.109,0.435-0.269,0.556-0.503c1.065-2.059,0.813-4.63,0.968-6.897c0.253-3.716,0.505-7.453,1.015-11.144    c-0.006-0.001-0.011-0.002-0.017-0.002c0.023-0.163,0.061-0.322,0.083-0.485c0.15-1.122-0.625-1.685-1.499-1.725    c-0.094-0.09-0.12-0.211-0.248-0.281c-4.576-2.513-11.802-2.562-17.41-1.465c6.032-5.103,11.373-10.782,16.571-16.773    c1.686-1.943,18.385-21.618,18.841-20.767c7.02,13.086,14.681,27.135,23.8,39.022c-1.586,0.01-3.26,0.276-4.508,0.287    c-4.332,0.038-8.727-0.039-12.94-1.151c-0.73-0.193-1.29,0.095-1.604,0.561c-0.987-0.429-2.394-0.127-2.637,1.118    c-0.57,2.9-0.923,5.86-1.147,8.806c-0.13,1.71-0.419,4.684,0.481,6.567c0.02,0.302,0.017,0.608,0.043,0.909    c0.08,0.919,0.661,1.432,1.318,1.582c0.13,0.067,0.219,0.176,0.391,0.197c24.563,3.092,71.287,13.008,87.408-12.527    C205.372,111.912,180.237,79.295,153.424,81.841z M184.879,102.455c-6.765-6.726-14.772-12.738-22.964-16.975    C172.479,86.89,180.445,93.728,184.879,102.455z M159.992,85.256c-0.028,0.177,0.006,0.36,0.218,0.478    c10.551,5.852,18.134,14.552,26.959,22.323c0.626,1.992,1.099,4.03,1.376,6.089c-10.431-9.957-21.01-19.644-32.009-28.939    C157.715,85.156,158.866,85.179,159.992,85.256z M153.036,62.007c-7.635-7.406-17.945-11.326-24.478-20.07    C140.059,42.444,150.065,51.506,153.036,62.007z M126.917,41.886c0.346-0.01,0.685,0.026,1.027,0.032    c-0.023,0.046-0.091,0.047-0.086,0.114c0.3,4.203,5.462,7.656,8.414,9.997c5.474,4.341,11.281,8.155,16.589,12.717    c0.268,0.23,0.557,0.294,0.829,0.262c0.153,1.036,0.262,2.076,0.268,3.119c-4.097-4.216-9.802-7.484-14.482-10.909    c-6.329-4.63-12.704-9.257-19.274-13.539c-0.526-0.343-0.968,0.468-0.483,0.825c6.291,4.626,12.536,9.288,18.701,14.081    c4.881,3.795,9.881,8.903,15.487,11.568h0.001c-0.083,0.913-0.224,1.824-0.433,2.727c-10.261-12.458-28.513-18.833-41.528-27.803    c-0.023-0.016-0.041-0.002-0.063-0.012C116.54,43.151,121.603,42.034,126.917,41.886z M111.349,45.312    c-0.062,0.182-0.05,0.397,0.144,0.541c13.562,10.14,28.16,18.403,41.408,28.99c-0.609,1.768-1.419,3.504-2.588,5.153    c-13.745-11.141-30.854-19.559-42.198-33.189C109.159,46.247,110.254,45.78,111.349,45.312z M29.58,94.548    c0.015,0.025,0.004,0.053,0.023,0.077c4.759,5.944,10.138,11.375,15.538,16.733c5.211,5.171,10.022,11.14,15.55,15.94    c-0.533,0.497-1.042,1.015-1.583,1.504c-0.171,0.155-0.245,0.323-0.329,0.489c-11.282-11.763-23.612-22.801-34.898-34.11    C25.708,94.707,27.614,94.48,29.58,94.548z M8.339,139.923c-2.166-3.034-3.523-6.41-4.209-9.91    c4.306,6.766,9.317,13.399,14.946,19.083C15.067,147.157,11.428,144.249,8.339,139.923z M23.301,150.743    C16.665,142.892,9.53,135.7,3.71,127.194c-0.158-1.707-0.113-3.427,0.021-5.144c4.929,5.158,9.309,10.781,13.742,16.373    c3.504,4.419,7.296,9.904,11.959,13.631C27.331,151.773,25.28,151.354,23.301,150.743z M32.765,152.387    c-10.369-9.725-18.063-22.349-28.938-31.406c0.182-1.62,0.525-3.22,0.943-4.797c8.291,13.256,20.018,26.338,32.287,36.301    C35.614,152.484,34.173,152.48,32.765,152.387z M40.036,152.435c-11.481-12.714-25.254-22.977-34.969-37.369    c0.397-1.315,0.898-2.592,1.446-3.844C18.394,124.586,29,140.16,42.209,152.314C41.484,152.354,40.755,152.41,40.036,152.435z     M44.628,152.18c-11.971-14.265-24.565-28.575-37.633-41.812c-0.027-0.027-0.057-0.017-0.086-0.036    c0.61-1.292,1.313-2.526,2.072-3.715c10.658,15.973,23.57,33.742,38.893,45.294C46.791,152.006,45.706,152.103,44.628,152.18z     M50.037,151.716c-0.026-0.155-0.051-0.313-0.18-0.443c-14.448-14.44-27.685-29.481-40.322-45.521    c0.776-1.137,1.625-2.208,2.528-3.214c9.261,10.419,19.277,20.141,28.22,30.845c4.414,5.283,9.039,14.645,15.37,17.794    C53.786,151.354,51.912,151.538,50.037,151.716z M56.55,151.09c0.354-0.262,0.525-0.74,0.117-1.136    c-5.611-5.422-9.953-12.044-14.954-18.004c-8.974-10.697-19.396-20.002-28.925-30.177c0.794-0.821,1.636-1.577,2.511-2.282    c14.328,17.644,29.756,34.697,45.305,51.268C59.258,150.861,57.911,150.964,56.55,151.09z M62.957,150.606    c-0.014-0.019-0.004-0.039-0.018-0.058c-14.853-17.759-30.807-34.945-46.951-51.562c0.952-0.717,1.958-1.334,2.989-1.896    c14.019,19.327,30.436,37.155,47.965,53.357C65.625,150.476,64.298,150.527,62.957,150.606z M78.867,133.457    c-0.218,1.467-0.507,2.937-0.801,4.406c-0.587-0.685-1.266-1.296-1.918-1.911c-1.181-1.115-2.359-2.234-3.567-3.321    C74.682,132.922,76.781,133.363,78.867,133.457z M70.11,132.387c0.454,0.021,0.909,0.078,1.363,0.126    c-0.063,0.156-0.076,0.333,0.075,0.501c1.18,1.329,2.413,2.61,3.634,3.903c0.813,0.861,1.561,1.846,2.572,2.479    c0.006,0.004,0.011,0,0.017,0.003c-0.137,0.701-0.283,1.4-0.404,2.102c-2.048-1.56-4.095-3.107-6.057-4.787    c-1.52-1.3-3.469-2.711-4.789-4.325C67.713,132.354,68.905,132.336,70.11,132.387z M65.567,132.418    c1.013,1.847,2.856,3.371,4.351,4.775c2.235,2.101,4.592,4.331,7.195,6.011c-0.351,2.624-0.448,5.249,0.154,7.875    c-2.417-0.416-4.94-0.594-7.525-0.635c-17.201-17.478-34.439-34.732-49.961-53.749c1.068-0.528,2.184-0.937,3.321-1.281    c16.426,18.72,33.465,38.023,51.679,54.965c0.618,0.574,1.757-0.201,1.217-0.938c-4.275-5.84-9.048-11.391-14.057-16.787    C63.153,132.55,64.359,132.473,65.567,132.418z M61.803,126.242c-3.485-5.573-8.95-10.146-13.669-14.634    c-5.791-5.508-11.525-10.983-16.872-16.92c2.745,0.327,5.592,1.223,8.501,2.832c0.301,0.386,0.562,0.775,0.892,1.158    c0.086,0.101,0.189,0.152,0.288,0.217c0.97,3.647,6.225,7.355,8.563,9.381c5.396,4.674,11.199,8.869,16.429,13.731    C64.554,123.416,63.237,124.878,61.803,126.242z M67.358,120.549c-4.434-4.345-9.606-7.96-14.479-11.779    c-3.912-3.066-7.005-6.542-10.389-9.964c0.605-0.419,0.962-1.195,0.451-1.892c-0.124-0.17-0.215-0.341-0.333-0.511    c0.07-0.572-0.127-1.174-0.765-1.572c-0.139-0.087-0.276-0.154-0.415-0.238c-0.663-1.148-1.165-2.303-1.59-3.458    c8.395,9.486,19.08,16.821,28.718,24.96c0.819,0.691,2.007-0.468,1.188-1.188c-10.209-8.972-21.4-16.551-30.701-26.464    c-0.582-2.656-0.57-5.291-0.105-7.845c4.306,5.823,9.645,10.772,15.054,15.563c5.69,5.04,11.662,11.292,18.232,15.147    c0.577,0.338,1.41-0.375,0.971-0.972c-4.11-5.58-11.033-9.744-16.338-14.137c-6.244-5.169-12.314-10.588-17.702-16.656    c0.301-1.283,0.742-2.535,1.267-3.762c12.057,11.534,25.065,21.956,37.115,33.505C74.224,113.11,70.869,116.896,67.358,120.549z     M78.872,107.737c-4.165-5.945-10.551-10.667-16.066-15.145C55.507,86.667,47.947,81.058,40.9,74.828    c0.631-1.317,1.421-2.571,2.276-3.793c3.527,5.743,9.507,9.911,14.761,13.947c8.165,6.271,16.149,12.519,23.959,19.19    C80.888,105.359,79.887,106.556,78.872,107.737z M83.085,102.77c-4.478-5.407-10.751-9.568-16.353-13.632    c-8.129-5.897-16.05-11.59-23.024-18.829c0.942-1.262,2.025-2.439,3.168-3.567c9.95,13.777,26.209,21.859,38.665,33.052    c0.013,0.012,0.028,0.013,0.041,0.024C84.751,100.803,83.917,101.787,83.085,102.77z M86.987,98.16    C74.5,86.568,58.993,78.817,47.574,66.053c1.118-1.039,2.331-1.988,3.588-2.878c11.826,11.774,25.519,21.418,37.549,32.978    C88.141,96.825,87.555,97.488,86.987,98.16z M90.169,94.454C78.315,82.813,64.24,73.794,52.046,62.537    c1.083-0.717,2.215-1.356,3.369-1.949c10.425,12.109,24.8,21.075,37.108,31.125C91.743,92.63,90.949,93.537,90.169,94.454z     M93.917,90.089C82.586,78.767,68.103,71.054,56.353,60.102c2.272-1.081,4.653-1.889,7.064-2.412    c10.116,10.73,22.017,19.661,33.159,29.303C95.685,88.022,94.801,89.056,93.917,90.089z M103.857,147.252    c0.051-0.104,0.057-0.21,0.009-0.309c0.283-3.85,0.31-7.704,0.551-11.56c1.4,2.959,3.357,5.536,5.527,8.012    c0.995,1.134,2.127,2.485,3.353,3.734C110.145,147.047,106.996,147.041,103.857,147.252z M116.33,147.247    c-1.339-1.218-2.811-2.348-4.056-3.562c-2.977-2.904-5.749-6.136-7.774-9.782c0.031-0.366,0.025-0.732,0.062-1.099    c1.073,0.36,2.165,0.627,3.263,0.853c2.106,3.31,4.835,6.162,7.706,8.824c2.058,1.907,4.884,4.963,7.862,5.162    c0.572,0.037,0.734-0.768,0.28-1.039c-5.374-3.223-10.69-7.722-14.63-12.737c2.364,0.393,4.763,0.576,7.17,0.663    c1.348,2.667,3.331,4.982,5.377,7.148c1.971,2.085,4.366,4.951,7.151,5.932c0.437,0.153,0.883-0.413,0.613-0.798    c-1.554-2.217-4.17-3.786-6.151-5.612c-2.129-1.962-4.212-4.139-5.777-6.612c0.742,0.033,1.624,0.101,2.571,0.158    c0.861,1.943,3.82,4.988,4.088,5.256c2.277,2.282,4.731,4.402,7.227,6.439c0.814,0.666,1.767,1.563,2.799,2.138    C128.178,148.087,122.248,147.526,116.33,147.247z M136.331,148.758c0.132-0.252,0.135-0.568-0.103-0.775    c-2.552-2.223-5.409-4.137-8.007-6.335c-1.721-1.458-3.405-2.967-5.013-4.55c-0.174-0.172-1.29-1.341-2.025-2.289    c1.642,0.044,3.302-0.062,4.479-0.67c2.154,2.759,4.482,5.351,7.072,7.746c2.725,2.521,6.165,5.928,9.719,7.167    c0.625,0.219,0.973-0.6,0.599-1.028c-2.489-2.85-6.274-4.826-9.187-7.269c-2.652-2.225-5.065-4.73-7.317-7.368    c0.177-0.306,0.23-0.668,0.143-1.031c0.115-0.345,0.13-0.724-0.032-1.08c-0.262-0.577-0.556-1.142-0.829-1.714    c8.182,6.028,16.883,11.508,22.949,19.763C144.635,149.322,140.484,149.078,136.331,148.758z M150.783,149.335    c-5.93-9.82-16.632-15.43-25.973-21.885c-2.453-4.88-5.245-9.628-8.174-14.323c11.519,13.911,28.351,25.121,41.661,35.76    C155.796,149.163,153.291,149.287,150.783,149.335z M160.286,148.661c-15.987-19.467-41.696-28.639-52.96-52.627    c-0.229-0.488-1.07-0.136-0.873,0.368c0.301,0.773,0.669,1.518,1.008,2.275c-2.533-4.036-4.988-8.1-7.207-12.251    c-0.379-0.709-1.277-1.011-2.043-0.83C87.526,75.68,75.342,67.527,64.809,57.413c2.379-0.397,4.769-0.451,7.117-0.197    C83.92,71.834,99.32,83.474,112.142,97.43c16.26,17.698,33.643,35.048,52.013,50.578    C162.867,148.268,161.577,148.482,160.286,148.661z M166.146,147.588c-0.033-0.16-0.057-0.323-0.22-0.466    c-16.594-14.589-32.895-30.213-47.836-46.488C104.05,85.342,87.157,72.81,73.434,57.422c5.197,0.909,10.061,3.611,13.839,8.646    c-0.007,0.106,0.022,0.211,0.119,0.294c29.549,25.238,54.64,56.558,87.69,77.449c0.14,0.088,0.26,0.047,0.392,0.062    C172.792,145.462,169.699,146.736,166.146,147.588z M176.405,143.275c0.135-0.394,0.102-0.854-0.336-1.154    c-31.802-21.709-55.896-52.07-86.519-75.122c0.935-0.258,1.671-1.125,1.28-2.126c0.398-0.873,0.905-1.651,1.357-2.478    c26.702,28.762,59.287,51.124,87.343,78.495C178.558,141.734,177.536,142.544,176.405,143.275z M181.07,139.459    c-27.211-28.439-60.583-50.133-88.346-78.044c0.526-0.9,1.144-1.714,1.731-2.557c15.375,15.212,31.539,29.599,48.087,43.519    c13.434,11.299,28.97,20.56,41.38,32.927c0.107,0.107,0.241,0.118,0.369,0.148C183.361,136.867,182.294,138.212,181.07,139.459z     M185.08,134.162c-9.078-11.972-24.326-19.81-35.849-29.091C130.594,90.062,113.012,73.82,94.91,58.187    c0.782-1.076,1.638-2.078,2.515-3.056c26.868,27.579,59.831,50.582,89.573,74.979C186.466,131.504,185.833,132.862,185.08,134.162    z M187.737,127.667c-29.354-24.794-61.655-47.039-89.654-73.277c1.31-1.386,2.742-2.627,4.229-3.796    c0.021,0.041,0.006,0.084,0.038,0.123c11.343,13.89,25.593,24.718,39.788,35.515c9.81,7.46,19.098,15.329,28.498,23.266    c1.765,1.49,14.369,14.364,17.104,13.53c-0.775,0.235-0.661,1.5,0.196,1.451c0.165-0.01,0.329-0.02,0.494-0.028    C188.244,125.534,188.035,126.613,187.737,127.667z M188.785,121.323c-10.143-11.201-24.924-21.135-36.716-30.336    c-16.907-13.192-34.483-24.972-48.806-41.133c1.265-0.933,2.6-1.764,3.967-2.542c9.418,13.145,24.897,20.893,37.283,30.878    c1.469,1.183,2.869,2.435,4.312,3.644c-0.227,0.259-0.394,0.534-0.638,0.788c-1.572,1.635,0.745,4.052,2.385,2.733    c0.382,0.283,0.878,0.43,1.457,0.329c0.408-0.071,0.792-0.077,1.194-0.133c12.008,10.382,23.422,21.36,35.575,31.588    C188.872,118.537,188.884,119.936,188.785,121.323z"
         fill="#5a6a80"
         id="path7" /></g></g><g
     id="g9" /><g
     id="g11" /><g
     id="g13" /><g
     id="g15" /><g
     id="g17" /><g
     id="g19" /><g
     id="g21" /><g
     id="g23" /><g
     id="g25" /><g
     id="g27" /><g
     id="g29" /><g
     id="g31" /><g
     id="g33" /><g
     id="g35" /><g
     id="g37" /></svg>